<svg xmlns="http://www.w3.org/2000/svg" width="720" height="220" viewBox="0 0 720 220" role="img" aria-label="Chrome Web Store users trend">
  <rect width="720" height="220" rx="8" fill="#fffdf7"/>
  <path d="M 11 8 C 190 3, 512 7, 710 11 M 714 11 C 717 74, 715 151, 711 211 M 708 214 C 523 218, 177 216, 12 211 M 9 211 C 4 145, 7 78, 11 8" fill="none" stroke="#292524" stroke-width="1.3" opacity="0.7"/>
  <text x="24" y="24" fill="#1c1917" font-family="'Comic Sans MS', 'Segoe Print', cursive" font-size="16" font-weight="700">Chrome Web Store users</text>
  <text x="696" y="24" fill="#1d4ed8" font-family="'Comic Sans MS', 'Segoe Print', cursive" font-size="16" font-weight="700" text-anchor="end">108 users</text>
  <text x="696" y="43" fill="#57534e" font-family="'Comic Sans MS', 'Segoe Print', cursive" font-size="11" text-anchor="end">Data through 2026-07-19</text>
  <g><path d="M 48 37.1 C 228 38.9, 468 37.1, 696 38.9" fill="none" stroke="#d6d3c8" stroke-width="1.1"/><text x="38" y="42" text-anchor="end" fill="#57534e" font-size="11">125</text></g>
  <g><path d="M 48 109.4 C 228 106.6, 468 109.4, 696 106.6" fill="none" stroke="#d6d3c8" stroke-width="1.1"/><text x="38" y="112" text-anchor="end" fill="#57534e" font-size="11">63</text></g>
  <g><path d="M 48 177.1 C 228 178.9, 468 177.1, 696 178.9" fill="none" stroke="#d6d3c8" stroke-width="1.1"/><text x="38" y="182" text-anchor="end" fill="#57534e" font-size="11">0</text></g>
  <path d="M 48 36 C 44 98, 50 156, 48 178" fill="none" stroke="#292524" stroke-width="1.4"/>
  <path d="M 46 178 C 218 182, 478 175, 696 179" fill="none" stroke="#292524" stroke-width="1.4"/>
  <path d="M 48.0 129.5 L 66.0 125.7 L 84.0 127.3 L 102.0 120.1 L 120.0 121.7 L 138.0 115.6 L 156.0 117.2 L 174.0 114.5 L 192.0 115.0 L 210.0 113.4 L 228.0 110.5 L 246.0 106.6 L 264.0 101.5 L 282.0 99.9 L 300.0 98.2 L 318.0 96.6 L 336.0 91.4 L 354.0 83.1 L 372.0 84.7 L 390.0 85.4 L 408.0 88.1 L 426.0 85.4 L 444.0 82.5 L 462.0 80.9 L 480.0 76.9 L 498.0 75.3 L 516.0 76.9 L 534.0 75.3 L 552.0 73.5 L 570.0 71.9 L 588.0 78.0 L 606.0 76.4 L 624.0 78.0 L 642.0 76.4 L 660.0 78.0 L 678.0 63.0 L 696.0 57.8" fill="none" stroke="#2563eb" stroke-width="3.6" stroke-linecap="round" stroke-linejoin="round"/>
  <path d="M 48.0 128.0 L 66.0 127.2 L 84.0 125.8 L 102.0 121.6 L 120.0 120.2 L 138.0 117.1 L 156.0 115.7 L 174.0 116.0 L 192.0 113.5 L 210.0 114.9 L 228.0 109.0 L 246.0 108.1 L 264.0 100.0 L 282.0 101.4 L 300.0 96.7 L 318.0 98.1 L 336.0 89.9 L 354.0 84.6 L 372.0 83.2 L 390.0 86.9 L 408.0 86.6 L 426.0 86.9 L 444.0 81.0 L 462.0 82.4 L 480.0 75.4 L 498.0 76.8 L 516.0 75.4 L 534.0 76.8 L 552.0 72.0 L 570.0 73.4 L 588.0 76.5 L 606.0 77.9 L 624.0 76.5 L 642.0 77.9 L 660.0 76.5 L 678.0 64.5 L 696.0 56.3" fill="none" stroke="#60a5fa" stroke-width="1.6" stroke-linecap="round" stroke-linejoin="round" opacity="0.85"/>
  <g><circle cx="48.0" cy="128.7" r="4.3" fill="#fff7ed" stroke="#1d4ed8" stroke-width="2"><title>2026-06-13: 44 users</title></circle><path d="M 44.0 129.7 C 47.0 123.7, 53.0 126.7, 51.0 132.7" fill="none" stroke="#1d4ed8" stroke-width="1.2"/></g><g><circle cx="66.0" cy="126.5" r="4.3" fill="#fff7ed" stroke="#1d4ed8" stroke-width="2"><title>2026-06-14: 46 users</title></circle><path d="M 62.0 127.5 C 65.0 121.5, 71.0 124.5, 69.0 130.5" fill="none" stroke="#1d4ed8" stroke-width="1.2"/></g><g><circle cx="84.0" cy="126.5" r="4.3" fill="#fff7ed" stroke="#1d4ed8" stroke-width="2"><title>2026-06-15: 46 users</title></circle><path d="M 80.0 127.5 C 83.0 121.5, 89.0 124.5, 87.0 130.5" fill="none" stroke="#1d4ed8" stroke-width="1.2"/></g><g><circle cx="102.0" cy="120.9" r="4.3" fill="#fff7ed" stroke="#1d4ed8" stroke-width="2"><title>2026-06-16: 51 users</title></circle><path d="M 98.0 121.9 C 101.0 115.9, 107.0 118.9, 105.0 124.9" fill="none" stroke="#1d4ed8" stroke-width="1.2"/></g><g><circle cx="120.0" cy="120.9" r="4.3" fill="#fff7ed" stroke="#1d4ed8" stroke-width="2"><title>2026-06-17: 51 users</title></circle><path d="M 116.0 121.9 C 119.0 115.9, 125.0 118.9, 123.0 124.9" fill="none" stroke="#1d4ed8" stroke-width="1.2"/></g><g><circle cx="138.0" cy="116.4" r="4.3" fill="#fff7ed" stroke="#1d4ed8" stroke-width="2"><title>2026-06-18: 55 users</title></circle><path d="M 134.0 117.4 C 137.0 111.4, 143.0 114.4, 141.0 120.4" fill="none" stroke="#1d4ed8" stroke-width="1.2"/></g><g><circle cx="156.0" cy="116.4" r="4.3" fill="#fff7ed" stroke="#1d4ed8" stroke-width="2"><title>2026-06-19: 55 users</title></circle><path d="M 152.0 117.4 C 155.0 111.4, 161.0 114.4, 159.0 120.4" fill="none" stroke="#1d4ed8" stroke-width="1.2"/></g><g><circle cx="174.0" cy="115.3" r="4.3" fill="#fff7ed" stroke="#1d4ed8" stroke-width="2"><title>2026-06-20: 56 users</title></circle><path d="M 170.0 116.3 C 173.0 110.3, 179.0 113.3, 177.0 119.3" fill="none" stroke="#1d4ed8" stroke-width="1.2"/></g><g><circle cx="192.0" cy="114.2" r="4.3" fill="#fff7ed" stroke="#1d4ed8" stroke-width="2"><title>2026-06-21: 57 users</title></circle><path d="M 188.0 115.2 C 191.0 109.2, 197.0 112.2, 195.0 118.2" fill="none" stroke="#1d4ed8" stroke-width="1.2"/></g><g><circle cx="210.0" cy="114.2" r="4.3" fill="#fff7ed" stroke="#1d4ed8" stroke-width="2"><title>2026-06-22: 57 users</title></circle><path d="M 206.0 115.2 C 209.0 109.2, 215.0 112.2, 213.0 118.2" fill="none" stroke="#1d4ed8" stroke-width="1.2"/></g><g><circle cx="228.0" cy="109.7" r="4.3" fill="#fff7ed" stroke="#1d4ed8" stroke-width="2"><title>2026-06-23: 61 users</title></circle><path d="M 224.0 110.7 C 227.0 104.7, 233.0 107.7, 231.0 113.7" fill="none" stroke="#1d4ed8" stroke-width="1.2"/></g><g><circle cx="246.0" cy="107.4" r="4.3" fill="#fff7ed" stroke="#1d4ed8" stroke-width="2"><title>2026-06-24: 63 users</title></circle><path d="M 242.0 108.4 C 245.0 102.4, 251.0 105.4, 249.0 111.4" fill="none" stroke="#1d4ed8" stroke-width="1.2"/></g><g><circle cx="264.0" cy="100.7" r="4.3" fill="#fff7ed" stroke="#1d4ed8" stroke-width="2"><title>2026-06-25: 69 users</title></circle><path d="M 260.0 101.7 C 263.0 95.7, 269.0 98.7, 267.0 104.7" fill="none" stroke="#1d4ed8" stroke-width="1.2"/></g><g><circle cx="282.0" cy="100.7" r="4.3" fill="#fff7ed" stroke="#1d4ed8" stroke-width="2"><title>2026-06-26: 69 users</title></circle><path d="M 278.0 101.7 C 281.0 95.7, 287.0 98.7, 285.0 104.7" fill="none" stroke="#1d4ed8" stroke-width="1.2"/></g><g><circle cx="300.0" cy="97.4" r="4.3" fill="#fff7ed" stroke="#1d4ed8" stroke-width="2"><title>2026-06-27: 72 users</title></circle><path d="M 296.0 98.4 C 299.0 92.4, 305.0 95.4, 303.0 101.4" fill="none" stroke="#1d4ed8" stroke-width="1.2"/></g><g><circle cx="318.0" cy="97.4" r="4.3" fill="#fff7ed" stroke="#1d4ed8" stroke-width="2"><title>2026-06-28: 72 users</title></circle><path d="M 314.0 98.4 C 317.0 92.4, 323.0 95.4, 321.0 101.4" fill="none" stroke="#1d4ed8" stroke-width="1.2"/></g><g><circle cx="336.0" cy="90.6" r="4.3" fill="#fff7ed" stroke="#1d4ed8" stroke-width="2"><title>2026-06-29: 78 users</title></circle><path d="M 332.0 91.6 C 335.0 85.6, 341.0 88.6, 339.0 94.6" fill="none" stroke="#1d4ed8" stroke-width="1.2"/></g><g><circle cx="354.0" cy="83.9" r="4.3" fill="#fff7ed" stroke="#1d4ed8" stroke-width="2"><title>2026-06-30: 84 users</title></circle><path d="M 350.0 84.9 C 353.0 78.9, 359.0 81.9, 357.0 87.9" fill="none" stroke="#1d4ed8" stroke-width="1.2"/></g><g><circle cx="372.0" cy="83.9" r="4.3" fill="#fff7ed" stroke="#1d4ed8" stroke-width="2"><title>2026-07-01: 84 users</title></circle><path d="M 368.0 84.9 C 371.0 78.9, 377.0 81.9, 375.0 87.9" fill="none" stroke="#1d4ed8" stroke-width="1.2"/></g><g><circle cx="390.0" cy="86.2" r="4.3" fill="#fff7ed" stroke="#1d4ed8" stroke-width="2"><title>2026-07-02: 82 users</title></circle><path d="M 386.0 87.2 C 389.0 81.2, 395.0 84.2, 393.0 90.2" fill="none" stroke="#1d4ed8" stroke-width="1.2"/></g><g><circle cx="408.0" cy="87.3" r="4.3" fill="#fff7ed" stroke="#1d4ed8" stroke-width="2"><title>2026-07-03: 81 users</title></circle><path d="M 404.0 88.3 C 407.0 82.3, 413.0 85.3, 411.0 91.3" fill="none" stroke="#1d4ed8" stroke-width="1.2"/></g><g><circle cx="426.0" cy="86.2" r="4.3" fill="#fff7ed" stroke="#1d4ed8" stroke-width="2"><title>2026-07-04: 82 users</title></circle><path d="M 422.0 87.2 C 425.0 81.2, 431.0 84.2, 429.0 90.2" fill="none" stroke="#1d4ed8" stroke-width="1.2"/></g><g><circle cx="444.0" cy="81.7" r="4.3" fill="#fff7ed" stroke="#1d4ed8" stroke-width="2"><title>2026-07-05: 86 users</title></circle><path d="M 440.0 82.7 C 443.0 76.7, 449.0 79.7, 447.0 85.7" fill="none" stroke="#1d4ed8" stroke-width="1.2"/></g><g><circle cx="462.0" cy="81.7" r="4.3" fill="#fff7ed" stroke="#1d4ed8" stroke-width="2"><title>2026-07-06: 86 users</title></circle><path d="M 458.0 82.7 C 461.0 76.7, 467.0 79.7, 465.0 85.7" fill="none" stroke="#1d4ed8" stroke-width="1.2"/></g><g><circle cx="480.0" cy="76.1" r="4.3" fill="#fff7ed" stroke="#1d4ed8" stroke-width="2"><title>2026-07-07: 91 users</title></circle><path d="M 476.0 77.1 C 479.0 71.1, 485.0 74.1, 483.0 80.1" fill="none" stroke="#1d4ed8" stroke-width="1.2"/></g><g><circle cx="498.0" cy="76.1" r="4.3" fill="#fff7ed" stroke="#1d4ed8" stroke-width="2"><title>2026-07-08: 91 users</title></circle><path d="M 494.0 77.1 C 497.0 71.1, 503.0 74.1, 501.0 80.1" fill="none" stroke="#1d4ed8" stroke-width="1.2"/></g><g><circle cx="516.0" cy="76.1" r="4.3" fill="#fff7ed" stroke="#1d4ed8" stroke-width="2"><title>2026-07-09: 91 users</title></circle><path d="M 512.0 77.1 C 515.0 71.1, 521.0 74.1, 519.0 80.1" fill="none" stroke="#1d4ed8" stroke-width="1.2"/></g><g><circle cx="534.0" cy="76.1" r="4.3" fill="#fff7ed" stroke="#1d4ed8" stroke-width="2"><title>2026-07-10: 91 users</title></circle><path d="M 530.0 77.1 C 533.0 71.1, 539.0 74.1, 537.0 80.1" fill="none" stroke="#1d4ed8" stroke-width="1.2"/></g><g><circle cx="552.0" cy="72.7" r="4.3" fill="#fff7ed" stroke="#1d4ed8" stroke-width="2"><title>2026-07-11: 94 users</title></circle><path d="M 548.0 73.7 C 551.0 67.7, 557.0 70.7, 555.0 76.7" fill="none" stroke="#1d4ed8" stroke-width="1.2"/></g><g><circle cx="570.0" cy="72.7" r="4.3" fill="#fff7ed" stroke="#1d4ed8" stroke-width="2"><title>2026-07-12: 94 users</title></circle><path d="M 566.0 73.7 C 569.0 67.7, 575.0 70.7, 573.0 76.7" fill="none" stroke="#1d4ed8" stroke-width="1.2"/></g><g><circle cx="588.0" cy="77.2" r="4.3" fill="#fff7ed" stroke="#1d4ed8" stroke-width="2"><title>2026-07-13: 90 users</title></circle><path d="M 584.0 78.2 C 587.0 72.2, 593.0 75.2, 591.0 81.2" fill="none" stroke="#1d4ed8" stroke-width="1.2"/></g><g><circle cx="606.0" cy="77.2" r="4.3" fill="#fff7ed" stroke="#1d4ed8" stroke-width="2"><title>2026-07-14: 90 users</title></circle><path d="M 602.0 78.2 C 605.0 72.2, 611.0 75.2, 609.0 81.2" fill="none" stroke="#1d4ed8" stroke-width="1.2"/></g><g><circle cx="624.0" cy="77.2" r="4.3" fill="#fff7ed" stroke="#1d4ed8" stroke-width="2"><title>2026-07-15: 90 users</title></circle><path d="M 620.0 78.2 C 623.0 72.2, 629.0 75.2, 627.0 81.2" fill="none" stroke="#1d4ed8" stroke-width="1.2"/></g><g><circle cx="642.0" cy="77.2" r="4.3" fill="#fff7ed" stroke="#1d4ed8" stroke-width="2"><title>2026-07-16: 90 users</title></circle><path d="M 638.0 78.2 C 641.0 72.2, 647.0 75.2, 645.0 81.2" fill="none" stroke="#1d4ed8" stroke-width="1.2"/></g><g><circle cx="660.0" cy="77.2" r="4.3" fill="#fff7ed" stroke="#1d4ed8" stroke-width="2"><title>2026-07-17: 90 users</title></circle><path d="M 656.0 78.2 C 659.0 72.2, 665.0 75.2, 663.0 81.2" fill="none" stroke="#1d4ed8" stroke-width="1.2"/></g><g><circle cx="678.0" cy="63.8" r="4.3" fill="#fff7ed" stroke="#1d4ed8" stroke-width="2"><title>2026-07-18: 102 users</title></circle><path d="M 674.0 64.8 C 677.0 58.8, 683.0 61.8, 681.0 67.8" fill="none" stroke="#1d4ed8" stroke-width="1.2"/></g><g><circle cx="696.0" cy="57.0" r="4.3" fill="#fff7ed" stroke="#1d4ed8" stroke-width="2"><title>2026-07-19: 108 users</title></circle><path d="M 692.0 58.0 C 695.0 52.0, 701.0 55.0, 699.0 61.0" fill="none" stroke="#1d4ed8" stroke-width="1.2"/></g>
  <text x="48" y="206" fill="#57534e" font-family="'Comic Sans MS', 'Segoe Print', cursive" font-size="11">2026-06-13</text>
  <text x="696" y="206" fill="#57534e" font-family="'Comic Sans MS', 'Segoe Print', cursive" font-size="11" text-anchor="end">2026-07-19</text>
</svg>
