<svg xmlns="http://www.w3.org/2000/svg" width="720" height="220" viewBox="0 0 720 220" role="img" aria-label="Chrome Web Store users trend">
  <rect width="720" height="220" rx="8" fill="#fffdf7"/>
  <path d="M 11 8 C 190 3, 512 7, 710 11 M 714 11 C 717 74, 715 151, 711 211 M 708 214 C 523 218, 177 216, 12 211 M 9 211 C 4 145, 7 78, 11 8" fill="none" stroke="#292524" stroke-width="1.3" opacity="0.7"/>
  <text x="24" y="24" fill="#1c1917" font-family="'Comic Sans MS', 'Segoe Print', cursive" font-size="16" font-weight="700">Chrome Web Store users</text>
  <text x="696" y="24" fill="#1d4ed8" font-family="'Comic Sans MS', 'Segoe Print', cursive" font-size="16" font-weight="700" text-anchor="end">55 users</text>
  <text x="696" y="43" fill="#57534e" font-family="'Comic Sans MS', 'Segoe Print', cursive" font-size="11" text-anchor="end">Updated 2026-06-21</text>
  <g><path d="M 48 37.1 C 228 38.9, 468 37.1, 696 38.9" fill="none" stroke="#d6d3c8" stroke-width="1.1"/><text x="38" y="42" text-anchor="end" fill="#57534e" font-size="11">64</text></g>
  <g><path d="M 48 109.4 C 228 106.6, 468 109.4, 696 106.6" fill="none" stroke="#d6d3c8" stroke-width="1.1"/><text x="38" y="112" text-anchor="end" fill="#57534e" font-size="11">32</text></g>
  <g><path d="M 48 177.1 C 228 178.9, 468 177.1, 696 178.9" fill="none" stroke="#d6d3c8" stroke-width="1.1"/><text x="38" y="182" text-anchor="end" fill="#57534e" font-size="11">0</text></g>
  <path d="M 48 36 C 44 98, 50 156, 48 178" fill="none" stroke="#292524" stroke-width="1.4"/>
  <path d="M 46 178 C 218 182, 478 175, 696 179" fill="none" stroke="#292524" stroke-width="1.4"/>
  <path d="M 48.0 82.5 L 156.0 76.6 L 264.0 78.2 L 372.0 65.6 L 480.0 67.2 L 588.0 56.9 L 696.0 58.5" fill="none" stroke="#2563eb" stroke-width="3.6" stroke-linecap="round" stroke-linejoin="round"/>
  <path d="M 48.0 81.0 L 156.0 78.1 L 264.0 76.7 L 372.0 67.1 L 480.0 65.7 L 588.0 58.4 L 696.0 57.0" fill="none" stroke="#60a5fa" stroke-width="1.6" stroke-linecap="round" stroke-linejoin="round" opacity="0.85"/>
  <g><circle cx="48.0" cy="81.8" r="4.3" fill="#fff7ed" stroke="#1d4ed8" stroke-width="2"><title>2026-06-15: 44 users</title></circle><path d="M 44.0 82.8 C 47.0 76.8, 53.0 79.8, 51.0 85.8" fill="none" stroke="#1d4ed8" stroke-width="1.2"/></g><g><circle cx="156.0" cy="77.4" r="4.3" fill="#fff7ed" stroke="#1d4ed8" stroke-width="2"><title>2026-06-16: 46 users</title></circle><path d="M 152.0 78.4 C 155.0 72.4, 161.0 75.4, 159.0 81.4" fill="none" stroke="#1d4ed8" stroke-width="1.2"/></g><g><circle cx="264.0" cy="77.4" r="4.3" fill="#fff7ed" stroke="#1d4ed8" stroke-width="2"><title>2026-06-17: 46 users</title></circle><path d="M 260.0 78.4 C 263.0 72.4, 269.0 75.4, 267.0 81.4" fill="none" stroke="#1d4ed8" stroke-width="1.2"/></g><g><circle cx="372.0" cy="66.4" r="4.3" fill="#fff7ed" stroke="#1d4ed8" stroke-width="2"><title>2026-06-18: 51 users</title></circle><path d="M 368.0 67.4 C 371.0 61.4, 377.0 64.4, 375.0 70.4" fill="none" stroke="#1d4ed8" stroke-width="1.2"/></g><g><circle cx="480.0" cy="66.4" r="4.3" fill="#fff7ed" stroke="#1d4ed8" stroke-width="2"><title>2026-06-19: 51 users</title></circle><path d="M 476.0 67.4 C 479.0 61.4, 485.0 64.4, 483.0 70.4" fill="none" stroke="#1d4ed8" stroke-width="1.2"/></g><g><circle cx="588.0" cy="57.7" r="4.3" fill="#fff7ed" stroke="#1d4ed8" stroke-width="2"><title>2026-06-20: 55 users</title></circle><path d="M 584.0 58.7 C 587.0 52.7, 593.0 55.7, 591.0 61.7" fill="none" stroke="#1d4ed8" stroke-width="1.2"/></g><g><circle cx="696.0" cy="57.7" r="4.3" fill="#fff7ed" stroke="#1d4ed8" stroke-width="2"><title>2026-06-21: 55 users</title></circle><path d="M 692.0 58.7 C 695.0 52.7, 701.0 55.7, 699.0 61.7" fill="none" stroke="#1d4ed8" stroke-width="1.2"/></g>
  <text x="48" y="206" fill="#57534e" font-family="'Comic Sans MS', 'Segoe Print', cursive" font-size="11">2026-06-15</text>
  <text x="696" y="206" fill="#57534e" font-family="'Comic Sans MS', 'Segoe Print', cursive" font-size="11" text-anchor="end">2026-06-21</text>
</svg>
