<svg xmlns="http://www.w3.org/2000/svg" width="720" height="220" viewBox="0 0 720 220" role="img" aria-label="Chrome Web Store users trend">
  <rect width="720" height="220" rx="8" fill="#fffdf7"/>
  <path d="M 11 8 C 190 3, 512 7, 710 11 M 714 11 C 717 74, 715 151, 711 211 M 708 214 C 523 218, 177 216, 12 211 M 9 211 C 4 145, 7 78, 11 8" fill="none" stroke="#292524" stroke-width="1.3" opacity="0.7"/>
  <text x="24" y="24" fill="#1c1917" font-family="'Comic Sans MS', 'Segoe Print', cursive" font-size="16" font-weight="700">Chrome Web Store users</text>
  <text x="696" y="24" fill="#1d4ed8" font-family="'Comic Sans MS', 'Segoe Print', cursive" font-size="16" font-weight="700" text-anchor="end">205 users</text>
  <text x="696" y="43" fill="#57534e" font-family="'Comic Sans MS', 'Segoe Print', cursive" font-size="11" text-anchor="end">Data through 2026-09-03</text>
  <g><path d="M 48 37.1 C 228 38.9, 468 37.1, 696 38.9" fill="none" stroke="#d6d3c8" stroke-width="1.1"/><text x="38" y="42" text-anchor="end" fill="#57534e" font-size="11">236</text></g>
  <g><path d="M 48 109.4 C 228 106.6, 468 109.4, 696 106.6" fill="none" stroke="#d6d3c8" stroke-width="1.1"/><text x="38" y="112" text-anchor="end" fill="#57534e" font-size="11">118</text></g>
  <g><path d="M 48 177.1 C 228 178.9, 468 177.1, 696 178.9" fill="none" stroke="#d6d3c8" stroke-width="1.1"/><text x="38" y="182" text-anchor="end" fill="#57534e" font-size="11">0</text></g>
  <path d="M 48 36 C 44 98, 50 156, 48 178" fill="none" stroke="#292524" stroke-width="1.4"/>
  <path d="M 46 178 C 218 182, 478 175, 696 179" fill="none" stroke="#292524" stroke-width="1.4"/>
  <path d="M 48.0 152.7 L 56.0 149.9 L 64.0 151.5 L 72.0 146.9 L 80.0 148.5 L 88.0 144.6 L 96.0 146.2 L 104.0 144.0 L 112.0 145.0 L 120.0 143.4 L 128.0 142.6 L 136.0 139.8 L 144.0 137.9 L 152.0 136.3 L 160.0 136.1 L 168.0 134.5 L 176.0 132.5 L 184.0 127.4 L 192.0 129.0 L 200.0 128.6 L 208.0 130.7 L 216.0 128.6 L 224.0 127.8 L 232.0 126.2 L 240.0 124.8 L 248.0 123.2 L 256.0 124.8 L 264.0 123.2 L 272.0 123.0 L 280.0 121.4 L 288.0 125.4 L 296.0 123.8 L 304.0 125.4 L 312.0 123.8 L 320.0 125.4 L 328.0 116.7 L 336.0 114.7 L 344.0 113.1 L 352.0 111.8 L 360.0 104.8 L 368.0 106.4 L 376.0 103.0 L 384.0 105.8 L 392.0 104.2 L 400.0 105.8 L 408.0 100.7 L 416.0 102.3 L 424.0 101.3 L 432.0 102.9 L 440.0 95.9 L 448.0 95.7 L 456.0 93.6 L 464.0 95.2 L 472.0 93.0 L 480.0 96.3 L 488.0 91.8 L 496.0 92.2 L 504.0 90.6 L 512.0 92.2 L 520.0 88.8 L 528.0 90.4 L 536.0 88.8 L 544.0 85.1 L 552.0 82.3 L 560.0 83.9 L 568.0 82.3 L 576.0 83.9 L 584.0 79.3 L 592.0 80.9 L 600.0 77.5 L 608.0 79.1 L 616.0 74.0 L 624.0 73.2 L 632.0 71.0 L 640.0 70.2 L 648.0 68.0 L 656.0 69.1 L 664.0 65.7 L 672.0 66.1 L 680.0 63.9 L 688.0 65.5 L 696.0 55.6" fill="none" stroke="#2563eb" stroke-width="3.6" stroke-linecap="round" stroke-linejoin="round"/>
  <path d="M 48.0 151.2 L 56.0 151.4 L 64.0 150.0 L 72.0 148.4 L 80.0 147.0 L 88.0 146.1 L 96.0 144.7 L 104.0 145.5 L 112.0 143.5 L 120.0 144.9 L 128.0 141.1 L 136.0 141.3 L 144.0 136.4 L 152.0 137.8 L 160.0 134.6 L 168.0 136.0 L 176.0 131.0 L 184.0 128.9 L 192.0 127.5 L 200.0 130.1 L 208.0 129.2 L 216.0 130.1 L 224.0 126.3 L 232.0 127.7 L 240.0 123.3 L 248.0 124.7 L 256.0 123.3 L 264.0 124.7 L 272.0 121.5 L 280.0 122.9 L 288.0 123.9 L 296.0 125.3 L 304.0 123.9 L 312.0 125.3 L 320.0 123.9 L 328.0 118.2 L 336.0 113.2 L 344.0 114.6 L 352.0 110.3 L 360.0 106.3 L 368.0 104.9 L 376.0 104.5 L 384.0 104.3 L 392.0 105.7 L 400.0 104.3 L 408.0 102.2 L 416.0 100.8 L 424.0 102.8 L 432.0 101.4 L 440.0 97.4 L 448.0 94.2 L 456.0 95.1 L 464.0 93.7 L 472.0 94.5 L 480.0 94.8 L 488.0 93.3 L 496.0 90.7 L 504.0 92.1 L 512.0 90.7 L 520.0 90.3 L 528.0 88.9 L 536.0 90.3 L 544.0 83.6 L 552.0 83.8 L 560.0 82.4 L 568.0 83.8 L 576.0 82.4 L 584.0 80.8 L 592.0 79.4 L 600.0 79.0 L 608.0 77.6 L 616.0 75.5 L 624.0 71.7 L 632.0 72.5 L 640.0 68.7 L 648.0 69.5 L 656.0 67.6 L 664.0 67.2 L 672.0 64.6 L 680.0 65.4 L 688.0 64.0 L 696.0 57.1" fill="none" stroke="#60a5fa" stroke-width="1.6" stroke-linecap="round" stroke-linejoin="round" opacity="0.85"/>
  <g><circle cx="48.0" cy="151.9" r="4.3" fill="#fff7ed" stroke="#1d4ed8" stroke-width="2"><title>2026-06-13: 44 users</title></circle><path d="M 44.0 152.9 C 47.0 146.9, 53.0 149.9, 51.0 155.9" fill="none" stroke="#1d4ed8" stroke-width="1.2"/></g><g><circle cx="56.0" cy="150.7" r="4.3" fill="#fff7ed" stroke="#1d4ed8" stroke-width="2"><title>2026-06-14: 46 users</title></circle><path d="M 52.0 151.7 C 55.0 145.7, 61.0 148.7, 59.0 154.7" fill="none" stroke="#1d4ed8" stroke-width="1.2"/></g><g><circle cx="64.0" cy="150.7" r="4.3" fill="#fff7ed" stroke="#1d4ed8" stroke-width="2"><title>2026-06-15: 46 users</title></circle><path d="M 60.0 151.7 C 63.0 145.7, 69.0 148.7, 67.0 154.7" fill="none" stroke="#1d4ed8" stroke-width="1.2"/></g><g><circle cx="72.0" cy="147.7" r="4.3" fill="#fff7ed" stroke="#1d4ed8" stroke-width="2"><title>2026-06-16: 51 users</title></circle><path d="M 68.0 148.7 C 71.0 142.7, 77.0 145.7, 75.0 151.7" fill="none" stroke="#1d4ed8" stroke-width="1.2"/></g><g><circle cx="80.0" cy="147.7" r="4.3" fill="#fff7ed" stroke="#1d4ed8" stroke-width="2"><title>2026-06-17: 51 users</title></circle><path d="M 76.0 148.7 C 79.0 142.7, 85.0 145.7, 83.0 151.7" fill="none" stroke="#1d4ed8" stroke-width="1.2"/></g><g><circle cx="88.0" cy="145.4" r="4.3" fill="#fff7ed" stroke="#1d4ed8" stroke-width="2"><title>2026-06-18: 55 users</title></circle><path d="M 84.0 146.4 C 87.0 140.4, 93.0 143.4, 91.0 149.4" fill="none" stroke="#1d4ed8" stroke-width="1.2"/></g><g><circle cx="96.0" cy="145.4" r="4.3" fill="#fff7ed" stroke="#1d4ed8" stroke-width="2"><title>2026-06-19: 55 users</title></circle><path d="M 92.0 146.4 C 95.0 140.4, 101.0 143.4, 99.0 149.4" fill="none" stroke="#1d4ed8" stroke-width="1.2"/></g><g><circle cx="104.0" cy="144.8" r="4.3" fill="#fff7ed" stroke="#1d4ed8" stroke-width="2"><title>2026-06-20: 56 users</title></circle><path d="M 100.0 145.8 C 103.0 139.8, 109.0 142.8, 107.0 148.8" fill="none" stroke="#1d4ed8" stroke-width="1.2"/></g><g><circle cx="112.0" cy="144.2" r="4.3" fill="#fff7ed" stroke="#1d4ed8" stroke-width="2"><title>2026-06-21: 57 users</title></circle><path d="M 108.0 145.2 C 111.0 139.2, 117.0 142.2, 115.0 148.2" fill="none" stroke="#1d4ed8" stroke-width="1.2"/></g><g><circle cx="120.0" cy="144.2" r="4.3" fill="#fff7ed" stroke="#1d4ed8" stroke-width="2"><title>2026-06-22: 57 users</title></circle><path d="M 116.0 145.2 C 119.0 139.2, 125.0 142.2, 123.0 148.2" fill="none" stroke="#1d4ed8" stroke-width="1.2"/></g><g><circle cx="128.0" cy="141.8" r="4.3" fill="#fff7ed" stroke="#1d4ed8" stroke-width="2"><title>2026-06-23: 61 users</title></circle><path d="M 124.0 142.8 C 127.0 136.8, 133.0 139.8, 131.0 145.8" fill="none" stroke="#1d4ed8" stroke-width="1.2"/></g><g><circle cx="136.0" cy="140.6" r="4.3" fill="#fff7ed" stroke="#1d4ed8" stroke-width="2"><title>2026-06-24: 63 users</title></circle><path d="M 132.0 141.6 C 135.0 135.6, 141.0 138.6, 139.0 144.6" fill="none" stroke="#1d4ed8" stroke-width="1.2"/></g><g><circle cx="144.0" cy="137.1" r="4.3" fill="#fff7ed" stroke="#1d4ed8" stroke-width="2"><title>2026-06-25: 69 users</title></circle><path d="M 140.0 138.1 C 143.0 132.1, 149.0 135.1, 147.0 141.1" fill="none" stroke="#1d4ed8" stroke-width="1.2"/></g><g><circle cx="152.0" cy="137.1" r="4.3" fill="#fff7ed" stroke="#1d4ed8" stroke-width="2"><title>2026-06-26: 69 users</title></circle><path d="M 148.0 138.1 C 151.0 132.1, 157.0 135.1, 155.0 141.1" fill="none" stroke="#1d4ed8" stroke-width="1.2"/></g><g><circle cx="160.0" cy="135.3" r="4.3" fill="#fff7ed" stroke="#1d4ed8" stroke-width="2"><title>2026-06-27: 72 users</title></circle><path d="M 156.0 136.3 C 159.0 130.3, 165.0 133.3, 163.0 139.3" fill="none" stroke="#1d4ed8" stroke-width="1.2"/></g><g><circle cx="168.0" cy="135.3" r="4.3" fill="#fff7ed" stroke="#1d4ed8" stroke-width="2"><title>2026-06-28: 72 users</title></circle><path d="M 164.0 136.3 C 167.0 130.3, 173.0 133.3, 171.0 139.3" fill="none" stroke="#1d4ed8" stroke-width="1.2"/></g><g><circle cx="176.0" cy="131.7" r="4.3" fill="#fff7ed" stroke="#1d4ed8" stroke-width="2"><title>2026-06-29: 78 users</title></circle><path d="M 172.0 132.7 C 175.0 126.7, 181.0 129.7, 179.0 135.7" fill="none" stroke="#1d4ed8" stroke-width="1.2"/></g><g><circle cx="184.0" cy="128.2" r="4.3" fill="#fff7ed" stroke="#1d4ed8" stroke-width="2"><title>2026-06-30: 84 users</title></circle><path d="M 180.0 129.2 C 183.0 123.2, 189.0 126.2, 187.0 132.2" fill="none" stroke="#1d4ed8" stroke-width="1.2"/></g><g><circle cx="192.0" cy="128.2" r="4.3" fill="#fff7ed" stroke="#1d4ed8" stroke-width="2"><title>2026-07-01: 84 users</title></circle><path d="M 188.0 129.2 C 191.0 123.2, 197.0 126.2, 195.0 132.2" fill="none" stroke="#1d4ed8" stroke-width="1.2"/></g><g><circle cx="200.0" cy="129.4" r="4.3" fill="#fff7ed" stroke="#1d4ed8" stroke-width="2"><title>2026-07-02: 82 users</title></circle><path d="M 196.0 130.4 C 199.0 124.4, 205.0 127.4, 203.0 133.4" fill="none" stroke="#1d4ed8" stroke-width="1.2"/></g><g><circle cx="208.0" cy="129.9" r="4.3" fill="#fff7ed" stroke="#1d4ed8" stroke-width="2"><title>2026-07-03: 81 users</title></circle><path d="M 204.0 130.9 C 207.0 124.9, 213.0 127.9, 211.0 133.9" fill="none" stroke="#1d4ed8" stroke-width="1.2"/></g><g><circle cx="216.0" cy="129.4" r="4.3" fill="#fff7ed" stroke="#1d4ed8" stroke-width="2"><title>2026-07-04: 82 users</title></circle><path d="M 212.0 130.4 C 215.0 124.4, 221.0 127.4, 219.0 133.4" fill="none" stroke="#1d4ed8" stroke-width="1.2"/></g><g><circle cx="224.0" cy="127.0" r="4.3" fill="#fff7ed" stroke="#1d4ed8" stroke-width="2"><title>2026-07-05: 86 users</title></circle><path d="M 220.0 128.0 C 223.0 122.0, 229.0 125.0, 227.0 131.0" fill="none" stroke="#1d4ed8" stroke-width="1.2"/></g><g><circle cx="232.0" cy="127.0" r="4.3" fill="#fff7ed" stroke="#1d4ed8" stroke-width="2"><title>2026-07-06: 86 users</title></circle><path d="M 228.0 128.0 C 231.0 122.0, 237.0 125.0, 235.0 131.0" fill="none" stroke="#1d4ed8" stroke-width="1.2"/></g><g><circle cx="240.0" cy="124.0" r="4.3" fill="#fff7ed" stroke="#1d4ed8" stroke-width="2"><title>2026-07-07: 91 users</title></circle><path d="M 236.0 125.0 C 239.0 119.0, 245.0 122.0, 243.0 128.0" fill="none" stroke="#1d4ed8" stroke-width="1.2"/></g><g><circle cx="248.0" cy="124.0" r="4.3" fill="#fff7ed" stroke="#1d4ed8" stroke-width="2"><title>2026-07-08: 91 users</title></circle><path d="M 244.0 125.0 C 247.0 119.0, 253.0 122.0, 251.0 128.0" fill="none" stroke="#1d4ed8" stroke-width="1.2"/></g><g><circle cx="256.0" cy="124.0" r="4.3" fill="#fff7ed" stroke="#1d4ed8" stroke-width="2"><title>2026-07-09: 91 users</title></circle><path d="M 252.0 125.0 C 255.0 119.0, 261.0 122.0, 259.0 128.0" fill="none" stroke="#1d4ed8" stroke-width="1.2"/></g><g><circle cx="264.0" cy="124.0" r="4.3" fill="#fff7ed" stroke="#1d4ed8" stroke-width="2"><title>2026-07-10: 91 users</title></circle><path d="M 260.0 125.0 C 263.0 119.0, 269.0 122.0, 267.0 128.0" fill="none" stroke="#1d4ed8" stroke-width="1.2"/></g><g><circle cx="272.0" cy="122.2" r="4.3" fill="#fff7ed" stroke="#1d4ed8" stroke-width="2"><title>2026-07-11: 94 users</title></circle><path d="M 268.0 123.2 C 271.0 117.2, 277.0 120.2, 275.0 126.2" fill="none" stroke="#1d4ed8" stroke-width="1.2"/></g><g><circle cx="280.0" cy="122.2" r="4.3" fill="#fff7ed" stroke="#1d4ed8" stroke-width="2"><title>2026-07-12: 94 users</title></circle><path d="M 276.0 123.2 C 279.0 117.2, 285.0 120.2, 283.0 126.2" fill="none" stroke="#1d4ed8" stroke-width="1.2"/></g><g><circle cx="288.0" cy="124.6" r="4.3" fill="#fff7ed" stroke="#1d4ed8" stroke-width="2"><title>2026-07-13: 90 users</title></circle><path d="M 284.0 125.6 C 287.0 119.6, 293.0 122.6, 291.0 128.6" fill="none" stroke="#1d4ed8" stroke-width="1.2"/></g><g><circle cx="296.0" cy="124.6" r="4.3" fill="#fff7ed" stroke="#1d4ed8" stroke-width="2"><title>2026-07-14: 90 users</title></circle><path d="M 292.0 125.6 C 295.0 119.6, 301.0 122.6, 299.0 128.6" fill="none" stroke="#1d4ed8" stroke-width="1.2"/></g><g><circle cx="304.0" cy="124.6" r="4.3" fill="#fff7ed" stroke="#1d4ed8" stroke-width="2"><title>2026-07-15: 90 users</title></circle><path d="M 300.0 125.6 C 303.0 119.6, 309.0 122.6, 307.0 128.6" fill="none" stroke="#1d4ed8" stroke-width="1.2"/></g><g><circle cx="312.0" cy="124.6" r="4.3" fill="#fff7ed" stroke="#1d4ed8" stroke-width="2"><title>2026-07-16: 90 users</title></circle><path d="M 308.0 125.6 C 311.0 119.6, 317.0 122.6, 315.0 128.6" fill="none" stroke="#1d4ed8" stroke-width="1.2"/></g><g><circle cx="320.0" cy="124.6" r="4.3" fill="#fff7ed" stroke="#1d4ed8" stroke-width="2"><title>2026-07-17: 90 users</title></circle><path d="M 316.0 125.6 C 319.0 119.6, 325.0 122.6, 323.0 128.6" fill="none" stroke="#1d4ed8" stroke-width="1.2"/></g><g><circle cx="328.0" cy="117.5" r="4.3" fill="#fff7ed" stroke="#1d4ed8" stroke-width="2"><title>2026-07-18: 102 users</title></circle><path d="M 324.0 118.5 C 327.0 112.5, 333.0 115.5, 331.0 121.5" fill="none" stroke="#1d4ed8" stroke-width="1.2"/></g><g><circle cx="336.0" cy="113.9" r="4.3" fill="#fff7ed" stroke="#1d4ed8" stroke-width="2"><title>2026-07-19: 108 users</title></circle><path d="M 332.0 114.9 C 335.0 108.9, 341.0 111.9, 339.0 117.9" fill="none" stroke="#1d4ed8" stroke-width="1.2"/></g><g><circle cx="344.0" cy="113.9" r="4.3" fill="#fff7ed" stroke="#1d4ed8" stroke-width="2"><title>2026-07-20: 108 users</title></circle><path d="M 340.0 114.9 C 343.0 108.9, 349.0 111.9, 347.0 117.9" fill="none" stroke="#1d4ed8" stroke-width="1.2"/></g><g><circle cx="352.0" cy="111.0" r="4.3" fill="#fff7ed" stroke="#1d4ed8" stroke-width="2"><title>2026-07-21: 113 users</title></circle><path d="M 348.0 112.0 C 351.0 106.0, 357.0 109.0, 355.0 115.0" fill="none" stroke="#1d4ed8" stroke-width="1.2"/></g><g><circle cx="360.0" cy="105.6" r="4.3" fill="#fff7ed" stroke="#1d4ed8" stroke-width="2"><title>2026-07-22: 122 users</title></circle><path d="M 356.0 106.6 C 359.0 100.6, 365.0 103.6, 363.0 109.6" fill="none" stroke="#1d4ed8" stroke-width="1.2"/></g><g><circle cx="368.0" cy="105.6" r="4.3" fill="#fff7ed" stroke="#1d4ed8" stroke-width="2"><title>2026-07-23: 122 users</title></circle><path d="M 364.0 106.6 C 367.0 100.6, 373.0 103.6, 371.0 109.6" fill="none" stroke="#1d4ed8" stroke-width="1.2"/></g><g><circle cx="376.0" cy="103.8" r="4.3" fill="#fff7ed" stroke="#1d4ed8" stroke-width="2"><title>2026-07-24: 125 users</title></circle><path d="M 372.0 104.8 C 375.0 98.8, 381.0 101.8, 379.0 107.8" fill="none" stroke="#1d4ed8" stroke-width="1.2"/></g><g><circle cx="384.0" cy="105.0" r="4.3" fill="#fff7ed" stroke="#1d4ed8" stroke-width="2"><title>2026-07-25: 123 users</title></circle><path d="M 380.0 106.0 C 383.0 100.0, 389.0 103.0, 387.0 109.0" fill="none" stroke="#1d4ed8" stroke-width="1.2"/></g><g><circle cx="392.0" cy="105.0" r="4.3" fill="#fff7ed" stroke="#1d4ed8" stroke-width="2"><title>2026-07-26: 123 users</title></circle><path d="M 388.0 106.0 C 391.0 100.0, 397.0 103.0, 395.0 109.0" fill="none" stroke="#1d4ed8" stroke-width="1.2"/></g><g><circle cx="400.0" cy="105.0" r="4.3" fill="#fff7ed" stroke="#1d4ed8" stroke-width="2"><title>2026-07-27: 123 users</title></circle><path d="M 396.0 106.0 C 399.0 100.0, 405.0 103.0, 403.0 109.0" fill="none" stroke="#1d4ed8" stroke-width="1.2"/></g><g><circle cx="408.0" cy="101.5" r="4.3" fill="#fff7ed" stroke="#1d4ed8" stroke-width="2"><title>2026-07-28: 129 users</title></circle><path d="M 404.0 102.5 C 407.0 96.5, 413.0 99.5, 411.0 105.5" fill="none" stroke="#1d4ed8" stroke-width="1.2"/></g><g><circle cx="416.0" cy="101.5" r="4.3" fill="#fff7ed" stroke="#1d4ed8" stroke-width="2"><title>2026-07-29: 129 users</title></circle><path d="M 412.0 102.5 C 415.0 96.5, 421.0 99.5, 419.0 105.5" fill="none" stroke="#1d4ed8" stroke-width="1.2"/></g><g><circle cx="424.0" cy="102.1" r="4.3" fill="#fff7ed" stroke="#1d4ed8" stroke-width="2"><title>2026-07-30: 128 users</title></circle><path d="M 420.0 103.1 C 423.0 97.1, 429.0 100.1, 427.0 106.1" fill="none" stroke="#1d4ed8" stroke-width="1.2"/></g><g><circle cx="432.0" cy="102.1" r="4.3" fill="#fff7ed" stroke="#1d4ed8" stroke-width="2"><title>2026-07-31: 128 users</title></circle><path d="M 428.0 103.1 C 431.0 97.1, 437.0 100.1, 435.0 106.1" fill="none" stroke="#1d4ed8" stroke-width="1.2"/></g><g><circle cx="440.0" cy="96.7" r="4.3" fill="#fff7ed" stroke="#1d4ed8" stroke-width="2"><title>2026-08-01: 137 users</title></circle><path d="M 436.0 97.7 C 439.0 91.7, 445.0 94.7, 443.0 100.7" fill="none" stroke="#1d4ed8" stroke-width="1.2"/></g><g><circle cx="448.0" cy="94.9" r="4.3" fill="#fff7ed" stroke="#1d4ed8" stroke-width="2"><title>2026-08-02: 140 users</title></circle><path d="M 444.0 95.9 C 447.0 89.9, 453.0 92.9, 451.0 98.9" fill="none" stroke="#1d4ed8" stroke-width="1.2"/></g><g><circle cx="456.0" cy="94.4" r="4.3" fill="#fff7ed" stroke="#1d4ed8" stroke-width="2"><title>2026-08-03: 141 users</title></circle><path d="M 452.0 95.4 C 455.0 89.4, 461.0 92.4, 459.0 98.4" fill="none" stroke="#1d4ed8" stroke-width="1.2"/></g><g><circle cx="464.0" cy="94.4" r="4.3" fill="#fff7ed" stroke="#1d4ed8" stroke-width="2"><title>2026-08-04: 141 users</title></circle><path d="M 460.0 95.4 C 463.0 89.4, 469.0 92.4, 467.0 98.4" fill="none" stroke="#1d4ed8" stroke-width="1.2"/></g><g><circle cx="472.0" cy="93.8" r="4.3" fill="#fff7ed" stroke="#1d4ed8" stroke-width="2"><title>2026-08-06: 142 users</title></circle><path d="M 468.0 94.8 C 471.0 88.8, 477.0 91.8, 475.0 97.8" fill="none" stroke="#1d4ed8" stroke-width="1.2"/></g><g><circle cx="480.0" cy="95.5" r="4.3" fill="#fff7ed" stroke="#1d4ed8" stroke-width="2"><title>2026-08-07: 139 users</title></circle><path d="M 476.0 96.5 C 479.0 90.5, 485.0 93.5, 483.0 99.5" fill="none" stroke="#1d4ed8" stroke-width="1.2"/></g><g><circle cx="488.0" cy="92.6" r="4.3" fill="#fff7ed" stroke="#1d4ed8" stroke-width="2"><title>2026-08-08: 144 users</title></circle><path d="M 484.0 93.6 C 487.0 87.6, 493.0 90.6, 491.0 96.6" fill="none" stroke="#1d4ed8" stroke-width="1.2"/></g><g><circle cx="496.0" cy="91.4" r="4.3" fill="#fff7ed" stroke="#1d4ed8" stroke-width="2"><title>2026-08-09: 146 users</title></circle><path d="M 492.0 92.4 C 495.0 86.4, 501.0 89.4, 499.0 95.4" fill="none" stroke="#1d4ed8" stroke-width="1.2"/></g><g><circle cx="504.0" cy="91.4" r="4.3" fill="#fff7ed" stroke="#1d4ed8" stroke-width="2"><title>2026-08-10: 146 users</title></circle><path d="M 500.0 92.4 C 503.0 86.4, 509.0 89.4, 507.0 95.4" fill="none" stroke="#1d4ed8" stroke-width="1.2"/></g><g><circle cx="512.0" cy="91.4" r="4.3" fill="#fff7ed" stroke="#1d4ed8" stroke-width="2"><title>2026-08-11: 146 users</title></circle><path d="M 508.0 92.4 C 511.0 86.4, 517.0 89.4, 515.0 95.4" fill="none" stroke="#1d4ed8" stroke-width="1.2"/></g><g><circle cx="520.0" cy="89.6" r="4.3" fill="#fff7ed" stroke="#1d4ed8" stroke-width="2"><title>2026-08-12: 149 users</title></circle><path d="M 516.0 90.6 C 519.0 84.6, 525.0 87.6, 523.0 93.6" fill="none" stroke="#1d4ed8" stroke-width="1.2"/></g><g><circle cx="528.0" cy="89.6" r="4.3" fill="#fff7ed" stroke="#1d4ed8" stroke-width="2"><title>2026-08-13: 149 users</title></circle><path d="M 524.0 90.6 C 527.0 84.6, 533.0 87.6, 531.0 93.6" fill="none" stroke="#1d4ed8" stroke-width="1.2"/></g><g><circle cx="536.0" cy="89.6" r="4.3" fill="#fff7ed" stroke="#1d4ed8" stroke-width="2"><title>2026-08-14: 149 users</title></circle><path d="M 532.0 90.6 C 535.0 84.6, 541.0 87.6, 539.0 93.6" fill="none" stroke="#1d4ed8" stroke-width="1.2"/></g><g><circle cx="544.0" cy="84.3" r="4.3" fill="#fff7ed" stroke="#1d4ed8" stroke-width="2"><title>2026-08-15: 158 users</title></circle><path d="M 540.0 85.3 C 543.0 79.3, 549.0 82.3, 547.0 88.3" fill="none" stroke="#1d4ed8" stroke-width="1.2"/></g><g><circle cx="552.0" cy="83.1" r="4.3" fill="#fff7ed" stroke="#1d4ed8" stroke-width="2"><title>2026-08-16: 160 users</title></circle><path d="M 548.0 84.1 C 551.0 78.1, 557.0 81.1, 555.0 87.1" fill="none" stroke="#1d4ed8" stroke-width="1.2"/></g><g><circle cx="560.0" cy="83.1" r="4.3" fill="#fff7ed" stroke="#1d4ed8" stroke-width="2"><title>2026-08-17: 160 users</title></circle><path d="M 556.0 84.1 C 559.0 78.1, 565.0 81.1, 563.0 87.1" fill="none" stroke="#1d4ed8" stroke-width="1.2"/></g><g><circle cx="568.0" cy="83.1" r="4.3" fill="#fff7ed" stroke="#1d4ed8" stroke-width="2"><title>2026-08-18: 160 users</title></circle><path d="M 564.0 84.1 C 567.0 78.1, 573.0 81.1, 571.0 87.1" fill="none" stroke="#1d4ed8" stroke-width="1.2"/></g><g><circle cx="576.0" cy="83.1" r="4.3" fill="#fff7ed" stroke="#1d4ed8" stroke-width="2"><title>2026-08-19: 160 users</title></circle><path d="M 572.0 84.1 C 575.0 78.1, 581.0 81.1, 579.0 87.1" fill="none" stroke="#1d4ed8" stroke-width="1.2"/></g><g><circle cx="584.0" cy="80.1" r="4.3" fill="#fff7ed" stroke="#1d4ed8" stroke-width="2"><title>2026-08-20: 165 users</title></circle><path d="M 580.0 81.1 C 583.0 75.1, 589.0 78.1, 587.0 84.1" fill="none" stroke="#1d4ed8" stroke-width="1.2"/></g><g><circle cx="592.0" cy="80.1" r="4.3" fill="#fff7ed" stroke="#1d4ed8" stroke-width="2"><title>2026-08-21: 165 users</title></circle><path d="M 588.0 81.1 C 591.0 75.1, 597.0 78.1, 595.0 84.1" fill="none" stroke="#1d4ed8" stroke-width="1.2"/></g><g><circle cx="600.0" cy="78.3" r="4.3" fill="#fff7ed" stroke="#1d4ed8" stroke-width="2"><title>2026-08-22: 168 users</title></circle><path d="M 596.0 79.3 C 599.0 73.3, 605.0 76.3, 603.0 82.3" fill="none" stroke="#1d4ed8" stroke-width="1.2"/></g><g><circle cx="608.0" cy="78.3" r="4.3" fill="#fff7ed" stroke="#1d4ed8" stroke-width="2"><title>2026-08-23: 168 users</title></circle><path d="M 604.0 79.3 C 607.0 73.3, 613.0 76.3, 611.0 82.3" fill="none" stroke="#1d4ed8" stroke-width="1.2"/></g><g><circle cx="616.0" cy="74.8" r="4.3" fill="#fff7ed" stroke="#1d4ed8" stroke-width="2"><title>2026-08-24: 174 users</title></circle><path d="M 612.0 75.8 C 615.0 69.8, 621.0 72.8, 619.0 78.8" fill="none" stroke="#1d4ed8" stroke-width="1.2"/></g><g><circle cx="624.0" cy="72.4" r="4.3" fill="#fff7ed" stroke="#1d4ed8" stroke-width="2"><title>2026-08-25: 178 users</title></circle><path d="M 620.0 73.4 C 623.0 67.4, 629.0 70.4, 627.0 76.4" fill="none" stroke="#1d4ed8" stroke-width="1.2"/></g><g><circle cx="632.0" cy="71.8" r="4.3" fill="#fff7ed" stroke="#1d4ed8" stroke-width="2"><title>2026-08-26: 179 users</title></circle><path d="M 628.0 72.8 C 631.0 66.8, 637.0 69.8, 635.0 75.8" fill="none" stroke="#1d4ed8" stroke-width="1.2"/></g><g><circle cx="640.0" cy="69.4" r="4.3" fill="#fff7ed" stroke="#1d4ed8" stroke-width="2"><title>2026-08-27: 183 users</title></circle><path d="M 636.0 70.4 C 639.0 64.4, 645.0 67.4, 643.0 73.4" fill="none" stroke="#1d4ed8" stroke-width="1.2"/></g><g><circle cx="648.0" cy="68.8" r="4.3" fill="#fff7ed" stroke="#1d4ed8" stroke-width="2"><title>2026-08-28: 184 users</title></circle><path d="M 644.0 69.8 C 647.0 63.8, 653.0 66.8, 651.0 72.8" fill="none" stroke="#1d4ed8" stroke-width="1.2"/></g><g><circle cx="656.0" cy="68.3" r="4.3" fill="#fff7ed" stroke="#1d4ed8" stroke-width="2"><title>2026-08-29: 185 users</title></circle><path d="M 652.0 69.3 C 655.0 63.3, 661.0 66.3, 659.0 72.3" fill="none" stroke="#1d4ed8" stroke-width="1.2"/></g><g><circle cx="664.0" cy="66.5" r="4.3" fill="#fff7ed" stroke="#1d4ed8" stroke-width="2"><title>2026-08-30: 188 users</title></circle><path d="M 660.0 67.5 C 663.0 61.5, 669.0 64.5, 667.0 70.5" fill="none" stroke="#1d4ed8" stroke-width="1.2"/></g><g><circle cx="672.0" cy="65.3" r="4.3" fill="#fff7ed" stroke="#1d4ed8" stroke-width="2"><title>2026-08-31: 190 users</title></circle><path d="M 668.0 66.3 C 671.0 60.3, 677.0 63.3, 675.0 69.3" fill="none" stroke="#1d4ed8" stroke-width="1.2"/></g><g><circle cx="680.0" cy="64.7" r="4.3" fill="#fff7ed" stroke="#1d4ed8" stroke-width="2"><title>2026-09-01: 191 users</title></circle><path d="M 676.0 65.7 C 679.0 59.7, 685.0 62.7, 683.0 68.7" fill="none" stroke="#1d4ed8" stroke-width="1.2"/></g><g><circle cx="688.0" cy="64.7" r="4.3" fill="#fff7ed" stroke="#1d4ed8" stroke-width="2"><title>2026-09-02: 191 users</title></circle><path d="M 684.0 65.7 C 687.0 59.7, 693.0 62.7, 691.0 68.7" fill="none" stroke="#1d4ed8" stroke-width="1.2"/></g><g><circle cx="696.0" cy="56.4" r="4.3" fill="#fff7ed" stroke="#1d4ed8" stroke-width="2"><title>2026-09-03: 205 users</title></circle><path d="M 692.0 57.4 C 695.0 51.4, 701.0 54.4, 699.0 60.4" fill="none" stroke="#1d4ed8" stroke-width="1.2"/></g>
  <text x="48" y="206" fill="#57534e" font-family="'Comic Sans MS', 'Segoe Print', cursive" font-size="11">2026-06-13</text>
  <text x="696" y="206" fill="#57534e" font-family="'Comic Sans MS', 'Segoe Print', cursive" font-size="11" text-anchor="end">2026-09-03</text>
</svg>
