<svg xmlns="http://www.w3.org/2000/svg" width="720" height="220" viewBox="0 0 720 220" role="img" aria-label="Chrome Web Store users trend">
  <rect width="720" height="220" rx="8" fill="#fffdf7"/>
  <path d="M 11 8 C 190 3, 512 7, 710 11 M 714 11 C 717 74, 715 151, 711 211 M 708 214 C 523 218, 177 216, 12 211 M 9 211 C 4 145, 7 78, 11 8" fill="none" stroke="#292524" stroke-width="1.3" opacity="0.7"/>
  <text x="24" y="24" fill="#1c1917" font-family="'Comic Sans MS', 'Segoe Print', cursive" font-size="16" font-weight="700">Chrome Web Store users</text>
  <text x="696" y="24" fill="#1d4ed8" font-family="'Comic Sans MS', 'Segoe Print', cursive" font-size="16" font-weight="700" text-anchor="end">253 users</text>
  <text x="696" y="43" fill="#57534e" font-family="'Comic Sans MS', 'Segoe Print', cursive" font-size="11" text-anchor="end">Data through 2026-09-19</text>
  <g><path d="M 48 37.1 C 228 38.9, 468 37.1, 696 38.9" fill="none" stroke="#d6d3c8" stroke-width="1.1"/><text x="38" y="42" text-anchor="end" fill="#57534e" font-size="11">291</text></g>
  <g><path d="M 48 109.4 C 228 106.6, 468 109.4, 696 106.6" fill="none" stroke="#d6d3c8" stroke-width="1.1"/><text x="38" y="112" text-anchor="end" fill="#57534e" font-size="11">146</text></g>
  <g><path d="M 48 177.1 C 228 178.9, 468 177.1, 696 178.9" fill="none" stroke="#d6d3c8" stroke-width="1.1"/><text x="38" y="182" text-anchor="end" fill="#57534e" font-size="11">0</text></g>
  <path d="M 48 36 C 44 98, 50 156, 48 178" fill="none" stroke="#292524" stroke-width="1.4"/>
  <path d="M 46 178 C 218 182, 478 175, 696 179" fill="none" stroke="#292524" stroke-width="1.4"/>
  <path d="M 48.0 157.6 L 54.7 155.1 L 61.4 156.7 L 68.0 152.7 L 74.7 154.3 L 81.4 150.7 L 88.1 152.3 L 94.8 150.3 L 101.4 151.4 L 108.1 149.8 L 114.8 149.5 L 121.5 146.9 L 128.2 145.6 L 134.8 144.0 L 141.5 144.2 L 148.2 142.6 L 154.9 141.3 L 161.6 136.8 L 168.2 138.4 L 174.9 137.7 L 181.6 139.8 L 188.3 137.7 L 195.0 137.4 L 201.6 135.8 L 208.3 135.0 L 215.0 133.4 L 221.7 135.0 L 228.4 133.4 L 235.1 133.6 L 241.7 132.0 L 248.4 135.5 L 255.1 133.9 L 261.8 135.5 L 268.5 133.9 L 275.1 135.5 L 281.8 128.1 L 288.5 126.8 L 295.2 125.2 L 301.9 124.4 L 308.5 118.5 L 315.2 120.1 L 321.9 117.1 L 328.6 119.6 L 335.3 118.0 L 341.9 119.6 L 348.6 115.1 L 355.3 116.7 L 362.0 115.6 L 368.7 117.2 L 375.3 111.3 L 382.0 111.4 L 388.7 109.4 L 395.4 111.0 L 402.1 108.9 L 408.7 111.9 L 415.4 107.9 L 422.1 108.6 L 428.8 107.0 L 435.5 108.6 L 442.1 105.5 L 448.8 107.1 L 455.5 105.5 L 462.2 102.8 L 468.9 100.2 L 475.5 101.8 L 482.2 100.2 L 488.9 101.8 L 495.6 97.8 L 502.3 99.4 L 508.9 96.4 L 515.6 98.0 L 522.3 93.5 L 529.0 93.2 L 535.7 91.1 L 542.4 90.8 L 549.0 88.7 L 555.7 89.8 L 562.4 86.8 L 569.1 87.4 L 575.8 85.3 L 582.4 86.9 L 589.1 78.6 L 595.8 78.7 L 602.5 77.1 L 609.2 77.3 L 615.8 76.2 L 622.5 75.4 L 629.2 73.8 L 635.9 75.4 L 642.6 70.4 L 649.2 72.0 L 655.9 70.4 L 662.6 71.0 L 669.3 67.5 L 676.0 69.1 L 682.6 67.5 L 689.3 69.1 L 696.0 55.5" fill="none" stroke="#2563eb" stroke-width="3.6" stroke-linecap="round" stroke-linejoin="round"/>
  <path d="M 48.0 156.1 L 54.7 156.6 L 61.4 155.2 L 68.0 154.2 L 74.7 152.8 L 81.4 152.2 L 88.1 150.8 L 94.8 151.8 L 101.4 149.9 L 108.1 151.3 L 114.8 148.0 L 121.5 148.4 L 128.2 144.1 L 134.8 145.5 L 141.5 142.7 L 148.2 144.1 L 154.9 139.8 L 161.6 138.3 L 168.2 136.9 L 174.9 139.2 L 181.6 138.3 L 188.3 139.2 L 195.0 135.9 L 201.6 137.3 L 208.3 133.5 L 215.0 134.9 L 221.7 133.5 L 228.4 134.9 L 235.1 132.1 L 241.7 133.5 L 248.4 134.0 L 255.1 135.4 L 261.8 134.0 L 268.5 135.4 L 275.1 134.0 L 281.8 129.6 L 288.5 125.3 L 295.2 126.7 L 301.9 122.9 L 308.5 120.0 L 315.2 118.6 L 321.9 118.6 L 328.6 118.1 L 335.3 119.5 L 341.9 118.1 L 348.6 116.6 L 355.3 115.2 L 362.0 117.1 L 368.7 115.7 L 375.3 112.8 L 382.0 109.9 L 388.7 110.9 L 395.4 109.5 L 402.1 110.4 L 408.7 110.4 L 415.4 109.4 L 422.1 107.1 L 428.8 108.5 L 435.5 107.1 L 442.1 107.0 L 448.8 105.6 L 455.5 107.0 L 462.2 101.3 L 468.9 101.7 L 475.5 100.3 L 482.2 101.7 L 488.9 100.3 L 495.6 99.3 L 502.3 97.9 L 508.9 97.9 L 515.6 96.5 L 522.3 95.0 L 529.0 91.7 L 535.7 92.6 L 542.4 89.3 L 549.0 90.2 L 555.7 88.3 L 562.4 88.3 L 569.1 85.9 L 575.8 86.8 L 582.4 85.4 L 589.1 80.1 L 595.8 77.2 L 602.5 78.6 L 609.2 75.8 L 615.8 77.7 L 622.5 73.9 L 629.2 75.3 L 635.9 73.9 L 642.6 71.9 L 649.2 70.5 L 655.9 71.9 L 662.6 69.5 L 669.3 69.0 L 676.0 67.6 L 682.6 69.0 L 689.3 67.6 L 696.0 57.0" fill="none" stroke="#60a5fa" stroke-width="1.6" stroke-linecap="round" stroke-linejoin="round" opacity="0.85"/>
  <g><circle cx="48.0" cy="156.8" r="4.3" fill="#fff7ed" stroke="#1d4ed8" stroke-width="2"><title>2026-06-13: 44 users</title></circle><path d="M 44.0 157.8 C 47.0 151.8, 53.0 154.8, 51.0 160.8" fill="none" stroke="#1d4ed8" stroke-width="1.2"/></g><g><circle cx="54.7" cy="155.9" r="4.3" fill="#fff7ed" stroke="#1d4ed8" stroke-width="2"><title>2026-06-14: 46 users</title></circle><path d="M 50.7 156.9 C 53.7 150.9, 59.7 153.9, 57.7 159.9" fill="none" stroke="#1d4ed8" stroke-width="1.2"/></g><g><circle cx="61.4" cy="155.9" r="4.3" fill="#fff7ed" stroke="#1d4ed8" stroke-width="2"><title>2026-06-15: 46 users</title></circle><path d="M 57.4 156.9 C 60.4 150.9, 66.4 153.9, 64.4 159.9" fill="none" stroke="#1d4ed8" stroke-width="1.2"/></g><g><circle cx="68.0" cy="153.5" r="4.3" fill="#fff7ed" stroke="#1d4ed8" stroke-width="2"><title>2026-06-16: 51 users</title></circle><path d="M 64.0 154.5 C 67.0 148.5, 73.0 151.5, 71.0 157.5" fill="none" stroke="#1d4ed8" stroke-width="1.2"/></g><g><circle cx="74.7" cy="153.5" r="4.3" fill="#fff7ed" stroke="#1d4ed8" stroke-width="2"><title>2026-06-17: 51 users</title></circle><path d="M 70.7 154.5 C 73.7 148.5, 79.7 151.5, 77.7 157.5" fill="none" stroke="#1d4ed8" stroke-width="1.2"/></g><g><circle cx="81.4" cy="151.5" r="4.3" fill="#fff7ed" stroke="#1d4ed8" stroke-width="2"><title>2026-06-18: 55 users</title></circle><path d="M 77.4 152.5 C 80.4 146.5, 86.4 149.5, 84.4 155.5" fill="none" stroke="#1d4ed8" stroke-width="1.2"/></g><g><circle cx="88.1" cy="151.5" r="4.3" fill="#fff7ed" stroke="#1d4ed8" stroke-width="2"><title>2026-06-19: 55 users</title></circle><path d="M 84.1 152.5 C 87.1 146.5, 93.1 149.5, 91.1 155.5" fill="none" stroke="#1d4ed8" stroke-width="1.2"/></g><g><circle cx="94.8" cy="151.1" r="4.3" fill="#fff7ed" stroke="#1d4ed8" stroke-width="2"><title>2026-06-20: 56 users</title></circle><path d="M 90.8 152.1 C 93.8 146.1, 99.8 149.1, 97.8 155.1" fill="none" stroke="#1d4ed8" stroke-width="1.2"/></g><g><circle cx="101.4" cy="150.6" r="4.3" fill="#fff7ed" stroke="#1d4ed8" stroke-width="2"><title>2026-06-21: 57 users</title></circle><path d="M 97.4 151.6 C 100.4 145.6, 106.4 148.6, 104.4 154.6" fill="none" stroke="#1d4ed8" stroke-width="1.2"/></g><g><circle cx="108.1" cy="150.6" r="4.3" fill="#fff7ed" stroke="#1d4ed8" stroke-width="2"><title>2026-06-22: 57 users</title></circle><path d="M 104.1 151.6 C 107.1 145.6, 113.1 148.6, 111.1 154.6" fill="none" stroke="#1d4ed8" stroke-width="1.2"/></g><g><circle cx="114.8" cy="148.7" r="4.3" fill="#fff7ed" stroke="#1d4ed8" stroke-width="2"><title>2026-06-23: 61 users</title></circle><path d="M 110.8 149.7 C 113.8 143.7, 119.8 146.7, 117.8 152.7" fill="none" stroke="#1d4ed8" stroke-width="1.2"/></g><g><circle cx="121.5" cy="147.7" r="4.3" fill="#fff7ed" stroke="#1d4ed8" stroke-width="2"><title>2026-06-24: 63 users</title></circle><path d="M 117.5 148.7 C 120.5 142.7, 126.5 145.7, 124.5 151.7" fill="none" stroke="#1d4ed8" stroke-width="1.2"/></g><g><circle cx="128.2" cy="144.8" r="4.3" fill="#fff7ed" stroke="#1d4ed8" stroke-width="2"><title>2026-06-25: 69 users</title></circle><path d="M 124.2 145.8 C 127.2 139.8, 133.2 142.8, 131.2 148.8" fill="none" stroke="#1d4ed8" stroke-width="1.2"/></g><g><circle cx="134.8" cy="144.8" r="4.3" fill="#fff7ed" stroke="#1d4ed8" stroke-width="2"><title>2026-06-26: 69 users</title></circle><path d="M 130.8 145.8 C 133.8 139.8, 139.8 142.8, 137.8 148.8" fill="none" stroke="#1d4ed8" stroke-width="1.2"/></g><g><circle cx="141.5" cy="143.4" r="4.3" fill="#fff7ed" stroke="#1d4ed8" stroke-width="2"><title>2026-06-27: 72 users</title></circle><path d="M 137.5 144.4 C 140.5 138.4, 146.5 141.4, 144.5 147.4" fill="none" stroke="#1d4ed8" stroke-width="1.2"/></g><g><circle cx="148.2" cy="143.4" r="4.3" fill="#fff7ed" stroke="#1d4ed8" stroke-width="2"><title>2026-06-28: 72 users</title></circle><path d="M 144.2 144.4 C 147.2 138.4, 153.2 141.4, 151.2 147.4" fill="none" stroke="#1d4ed8" stroke-width="1.2"/></g><g><circle cx="154.9" cy="140.5" r="4.3" fill="#fff7ed" stroke="#1d4ed8" stroke-width="2"><title>2026-06-29: 78 users</title></circle><path d="M 150.9 141.5 C 153.9 135.5, 159.9 138.5, 157.9 144.5" fill="none" stroke="#1d4ed8" stroke-width="1.2"/></g><g><circle cx="161.6" cy="137.6" r="4.3" fill="#fff7ed" stroke="#1d4ed8" stroke-width="2"><title>2026-06-30: 84 users</title></circle><path d="M 157.6 138.6 C 160.6 132.6, 166.6 135.6, 164.6 141.6" fill="none" stroke="#1d4ed8" stroke-width="1.2"/></g><g><circle cx="168.2" cy="137.6" r="4.3" fill="#fff7ed" stroke="#1d4ed8" stroke-width="2"><title>2026-07-01: 84 users</title></circle><path d="M 164.2 138.6 C 167.2 132.6, 173.2 135.6, 171.2 141.6" fill="none" stroke="#1d4ed8" stroke-width="1.2"/></g><g><circle cx="174.9" cy="138.5" r="4.3" fill="#fff7ed" stroke="#1d4ed8" stroke-width="2"><title>2026-07-02: 82 users</title></circle><path d="M 170.9 139.5 C 173.9 133.5, 179.9 136.5, 177.9 142.5" fill="none" stroke="#1d4ed8" stroke-width="1.2"/></g><g><circle cx="181.6" cy="139.0" r="4.3" fill="#fff7ed" stroke="#1d4ed8" stroke-width="2"><title>2026-07-03: 81 users</title></circle><path d="M 177.6 140.0 C 180.6 134.0, 186.6 137.0, 184.6 143.0" fill="none" stroke="#1d4ed8" stroke-width="1.2"/></g><g><circle cx="188.3" cy="138.5" r="4.3" fill="#fff7ed" stroke="#1d4ed8" stroke-width="2"><title>2026-07-04: 82 users</title></circle><path d="M 184.3 139.5 C 187.3 133.5, 193.3 136.5, 191.3 142.5" fill="none" stroke="#1d4ed8" stroke-width="1.2"/></g><g><circle cx="195.0" cy="136.6" r="4.3" fill="#fff7ed" stroke="#1d4ed8" stroke-width="2"><title>2026-07-05: 86 users</title></circle><path d="M 191.0 137.6 C 194.0 131.6, 200.0 134.6, 198.0 140.6" fill="none" stroke="#1d4ed8" stroke-width="1.2"/></g><g><circle cx="201.6" cy="136.6" r="4.3" fill="#fff7ed" stroke="#1d4ed8" stroke-width="2"><title>2026-07-06: 86 users</title></circle><path d="M 197.6 137.6 C 200.6 131.6, 206.6 134.6, 204.6 140.6" fill="none" stroke="#1d4ed8" stroke-width="1.2"/></g><g><circle cx="208.3" cy="134.2" r="4.3" fill="#fff7ed" stroke="#1d4ed8" stroke-width="2"><title>2026-07-07: 91 users</title></circle><path d="M 204.3 135.2 C 207.3 129.2, 213.3 132.2, 211.3 138.2" fill="none" stroke="#1d4ed8" stroke-width="1.2"/></g><g><circle cx="215.0" cy="134.2" r="4.3" fill="#fff7ed" stroke="#1d4ed8" stroke-width="2"><title>2026-07-08: 91 users</title></circle><path d="M 211.0 135.2 C 214.0 129.2, 220.0 132.2, 218.0 138.2" fill="none" stroke="#1d4ed8" stroke-width="1.2"/></g><g><circle cx="221.7" cy="134.2" r="4.3" fill="#fff7ed" stroke="#1d4ed8" stroke-width="2"><title>2026-07-09: 91 users</title></circle><path d="M 217.7 135.2 C 220.7 129.2, 226.7 132.2, 224.7 138.2" fill="none" stroke="#1d4ed8" stroke-width="1.2"/></g><g><circle cx="228.4" cy="134.2" r="4.3" fill="#fff7ed" stroke="#1d4ed8" stroke-width="2"><title>2026-07-10: 91 users</title></circle><path d="M 224.4 135.2 C 227.4 129.2, 233.4 132.2, 231.4 138.2" fill="none" stroke="#1d4ed8" stroke-width="1.2"/></g><g><circle cx="235.1" cy="132.8" r="4.3" fill="#fff7ed" stroke="#1d4ed8" stroke-width="2"><title>2026-07-11: 94 users</title></circle><path d="M 231.1 133.8 C 234.1 127.8, 240.1 130.8, 238.1 136.8" fill="none" stroke="#1d4ed8" stroke-width="1.2"/></g><g><circle cx="241.7" cy="132.8" r="4.3" fill="#fff7ed" stroke="#1d4ed8" stroke-width="2"><title>2026-07-12: 94 users</title></circle><path d="M 237.7 133.8 C 240.7 127.8, 246.7 130.8, 244.7 136.8" fill="none" stroke="#1d4ed8" stroke-width="1.2"/></g><g><circle cx="248.4" cy="134.7" r="4.3" fill="#fff7ed" stroke="#1d4ed8" stroke-width="2"><title>2026-07-13: 90 users</title></circle><path d="M 244.4 135.7 C 247.4 129.7, 253.4 132.7, 251.4 138.7" fill="none" stroke="#1d4ed8" stroke-width="1.2"/></g><g><circle cx="255.1" cy="134.7" r="4.3" fill="#fff7ed" stroke="#1d4ed8" stroke-width="2"><title>2026-07-14: 90 users</title></circle><path d="M 251.1 135.7 C 254.1 129.7, 260.1 132.7, 258.1 138.7" fill="none" stroke="#1d4ed8" stroke-width="1.2"/></g><g><circle cx="261.8" cy="134.7" r="4.3" fill="#fff7ed" stroke="#1d4ed8" stroke-width="2"><title>2026-07-15: 90 users</title></circle><path d="M 257.8 135.7 C 260.8 129.7, 266.8 132.7, 264.8 138.7" fill="none" stroke="#1d4ed8" stroke-width="1.2"/></g><g><circle cx="268.5" cy="134.7" r="4.3" fill="#fff7ed" stroke="#1d4ed8" stroke-width="2"><title>2026-07-16: 90 users</title></circle><path d="M 264.5 135.7 C 267.5 129.7, 273.5 132.7, 271.5 138.7" fill="none" stroke="#1d4ed8" stroke-width="1.2"/></g><g><circle cx="275.1" cy="134.7" r="4.3" fill="#fff7ed" stroke="#1d4ed8" stroke-width="2"><title>2026-07-17: 90 users</title></circle><path d="M 271.1 135.7 C 274.1 129.7, 280.1 132.7, 278.1 138.7" fill="none" stroke="#1d4ed8" stroke-width="1.2"/></g><g><circle cx="281.8" cy="128.9" r="4.3" fill="#fff7ed" stroke="#1d4ed8" stroke-width="2"><title>2026-07-18: 102 users</title></circle><path d="M 277.8 129.9 C 280.8 123.9, 286.8 126.9, 284.8 132.9" fill="none" stroke="#1d4ed8" stroke-width="1.2"/></g><g><circle cx="288.5" cy="126.0" r="4.3" fill="#fff7ed" stroke="#1d4ed8" stroke-width="2"><title>2026-07-19: 108 users</title></circle><path d="M 284.5 127.0 C 287.5 121.0, 293.5 124.0, 291.5 130.0" fill="none" stroke="#1d4ed8" stroke-width="1.2"/></g><g><circle cx="295.2" cy="126.0" r="4.3" fill="#fff7ed" stroke="#1d4ed8" stroke-width="2"><title>2026-07-20: 108 users</title></circle><path d="M 291.2 127.0 C 294.2 121.0, 300.2 124.0, 298.2 130.0" fill="none" stroke="#1d4ed8" stroke-width="1.2"/></g><g><circle cx="301.9" cy="123.6" r="4.3" fill="#fff7ed" stroke="#1d4ed8" stroke-width="2"><title>2026-07-21: 113 users</title></circle><path d="M 297.9 124.6 C 300.9 118.6, 306.9 121.6, 304.9 127.6" fill="none" stroke="#1d4ed8" stroke-width="1.2"/></g><g><circle cx="308.5" cy="119.3" r="4.3" fill="#fff7ed" stroke="#1d4ed8" stroke-width="2"><title>2026-07-22: 122 users</title></circle><path d="M 304.5 120.3 C 307.5 114.3, 313.5 117.3, 311.5 123.3" fill="none" stroke="#1d4ed8" stroke-width="1.2"/></g><g><circle cx="315.2" cy="119.3" r="4.3" fill="#fff7ed" stroke="#1d4ed8" stroke-width="2"><title>2026-07-23: 122 users</title></circle><path d="M 311.2 120.3 C 314.2 114.3, 320.2 117.3, 318.2 123.3" fill="none" stroke="#1d4ed8" stroke-width="1.2"/></g><g><circle cx="321.9" cy="117.9" r="4.3" fill="#fff7ed" stroke="#1d4ed8" stroke-width="2"><title>2026-07-24: 125 users</title></circle><path d="M 317.9 118.9 C 320.9 112.9, 326.9 115.9, 324.9 121.9" fill="none" stroke="#1d4ed8" stroke-width="1.2"/></g><g><circle cx="328.6" cy="118.8" r="4.3" fill="#fff7ed" stroke="#1d4ed8" stroke-width="2"><title>2026-07-25: 123 users</title></circle><path d="M 324.6 119.8 C 327.6 113.8, 333.6 116.8, 331.6 122.8" fill="none" stroke="#1d4ed8" stroke-width="1.2"/></g><g><circle cx="335.3" cy="118.8" r="4.3" fill="#fff7ed" stroke="#1d4ed8" stroke-width="2"><title>2026-07-26: 123 users</title></circle><path d="M 331.3 119.8 C 334.3 113.8, 340.3 116.8, 338.3 122.8" fill="none" stroke="#1d4ed8" stroke-width="1.2"/></g><g><circle cx="341.9" cy="118.8" r="4.3" fill="#fff7ed" stroke="#1d4ed8" stroke-width="2"><title>2026-07-27: 123 users</title></circle><path d="M 337.9 119.8 C 340.9 113.8, 346.9 116.8, 344.9 122.8" fill="none" stroke="#1d4ed8" stroke-width="1.2"/></g><g><circle cx="348.6" cy="115.9" r="4.3" fill="#fff7ed" stroke="#1d4ed8" stroke-width="2"><title>2026-07-28: 129 users</title></circle><path d="M 344.6 116.9 C 347.6 110.9, 353.6 113.9, 351.6 119.9" fill="none" stroke="#1d4ed8" stroke-width="1.2"/></g><g><circle cx="355.3" cy="115.9" r="4.3" fill="#fff7ed" stroke="#1d4ed8" stroke-width="2"><title>2026-07-29: 129 users</title></circle><path d="M 351.3 116.9 C 354.3 110.9, 360.3 113.9, 358.3 119.9" fill="none" stroke="#1d4ed8" stroke-width="1.2"/></g><g><circle cx="362.0" cy="116.4" r="4.3" fill="#fff7ed" stroke="#1d4ed8" stroke-width="2"><title>2026-07-30: 128 users</title></circle><path d="M 358.0 117.4 C 361.0 111.4, 367.0 114.4, 365.0 120.4" fill="none" stroke="#1d4ed8" stroke-width="1.2"/></g><g><circle cx="368.7" cy="116.4" r="4.3" fill="#fff7ed" stroke="#1d4ed8" stroke-width="2"><title>2026-07-31: 128 users</title></circle><path d="M 364.7 117.4 C 367.7 111.4, 373.7 114.4, 371.7 120.4" fill="none" stroke="#1d4ed8" stroke-width="1.2"/></g><g><circle cx="375.3" cy="112.1" r="4.3" fill="#fff7ed" stroke="#1d4ed8" stroke-width="2"><title>2026-08-01: 137 users</title></circle><path d="M 371.3 113.1 C 374.3 107.1, 380.3 110.1, 378.3 116.1" fill="none" stroke="#1d4ed8" stroke-width="1.2"/></g><g><circle cx="382.0" cy="110.6" r="4.3" fill="#fff7ed" stroke="#1d4ed8" stroke-width="2"><title>2026-08-02: 140 users</title></circle><path d="M 378.0 111.6 C 381.0 105.6, 387.0 108.6, 385.0 114.6" fill="none" stroke="#1d4ed8" stroke-width="1.2"/></g><g><circle cx="388.7" cy="110.2" r="4.3" fill="#fff7ed" stroke="#1d4ed8" stroke-width="2"><title>2026-08-03: 141 users</title></circle><path d="M 384.7 111.2 C 387.7 105.2, 393.7 108.2, 391.7 114.2" fill="none" stroke="#1d4ed8" stroke-width="1.2"/></g><g><circle cx="395.4" cy="110.2" r="4.3" fill="#fff7ed" stroke="#1d4ed8" stroke-width="2"><title>2026-08-04: 141 users</title></circle><path d="M 391.4 111.2 C 394.4 105.2, 400.4 108.2, 398.4 114.2" fill="none" stroke="#1d4ed8" stroke-width="1.2"/></g><g><circle cx="402.1" cy="109.7" r="4.3" fill="#fff7ed" stroke="#1d4ed8" stroke-width="2"><title>2026-08-06: 142 users</title></circle><path d="M 398.1 110.7 C 401.1 104.7, 407.1 107.7, 405.1 113.7" fill="none" stroke="#1d4ed8" stroke-width="1.2"/></g><g><circle cx="408.7" cy="111.1" r="4.3" fill="#fff7ed" stroke="#1d4ed8" stroke-width="2"><title>2026-08-07: 139 users</title></circle><path d="M 404.7 112.1 C 407.7 106.1, 413.7 109.1, 411.7 115.1" fill="none" stroke="#1d4ed8" stroke-width="1.2"/></g><g><circle cx="415.4" cy="108.7" r="4.3" fill="#fff7ed" stroke="#1d4ed8" stroke-width="2"><title>2026-08-08: 144 users</title></circle><path d="M 411.4 109.7 C 414.4 103.7, 420.4 106.7, 418.4 112.7" fill="none" stroke="#1d4ed8" stroke-width="1.2"/></g><g><circle cx="422.1" cy="107.8" r="4.3" fill="#fff7ed" stroke="#1d4ed8" stroke-width="2"><title>2026-08-09: 146 users</title></circle><path d="M 418.1 108.8 C 421.1 102.8, 427.1 105.8, 425.1 111.8" fill="none" stroke="#1d4ed8" stroke-width="1.2"/></g><g><circle cx="428.8" cy="107.8" r="4.3" fill="#fff7ed" stroke="#1d4ed8" stroke-width="2"><title>2026-08-10: 146 users</title></circle><path d="M 424.8 108.8 C 427.8 102.8, 433.8 105.8, 431.8 111.8" fill="none" stroke="#1d4ed8" stroke-width="1.2"/></g><g><circle cx="435.5" cy="107.8" r="4.3" fill="#fff7ed" stroke="#1d4ed8" stroke-width="2"><title>2026-08-11: 146 users</title></circle><path d="M 431.5 108.8 C 434.5 102.8, 440.5 105.8, 438.5 111.8" fill="none" stroke="#1d4ed8" stroke-width="1.2"/></g><g><circle cx="442.1" cy="106.3" r="4.3" fill="#fff7ed" stroke="#1d4ed8" stroke-width="2"><title>2026-08-12: 149 users</title></circle><path d="M 438.1 107.3 C 441.1 101.3, 447.1 104.3, 445.1 110.3" fill="none" stroke="#1d4ed8" stroke-width="1.2"/></g><g><circle cx="448.8" cy="106.3" r="4.3" fill="#fff7ed" stroke="#1d4ed8" stroke-width="2"><title>2026-08-13: 149 users</title></circle><path d="M 444.8 107.3 C 447.8 101.3, 453.8 104.3, 451.8 110.3" fill="none" stroke="#1d4ed8" stroke-width="1.2"/></g><g><circle cx="455.5" cy="106.3" r="4.3" fill="#fff7ed" stroke="#1d4ed8" stroke-width="2"><title>2026-08-14: 149 users</title></circle><path d="M 451.5 107.3 C 454.5 101.3, 460.5 104.3, 458.5 110.3" fill="none" stroke="#1d4ed8" stroke-width="1.2"/></g><g><circle cx="462.2" cy="102.0" r="4.3" fill="#fff7ed" stroke="#1d4ed8" stroke-width="2"><title>2026-08-15: 158 users</title></circle><path d="M 458.2 103.0 C 461.2 97.0, 467.2 100.0, 465.2 106.0" fill="none" stroke="#1d4ed8" stroke-width="1.2"/></g><g><circle cx="468.9" cy="101.0" r="4.3" fill="#fff7ed" stroke="#1d4ed8" stroke-width="2"><title>2026-08-16: 160 users</title></circle><path d="M 464.9 102.0 C 467.9 96.0, 473.9 99.0, 471.9 105.0" fill="none" stroke="#1d4ed8" stroke-width="1.2"/></g><g><circle cx="475.5" cy="101.0" r="4.3" fill="#fff7ed" stroke="#1d4ed8" stroke-width="2"><title>2026-08-17: 160 users</title></circle><path d="M 471.5 102.0 C 474.5 96.0, 480.5 99.0, 478.5 105.0" fill="none" stroke="#1d4ed8" stroke-width="1.2"/></g><g><circle cx="482.2" cy="101.0" r="4.3" fill="#fff7ed" stroke="#1d4ed8" stroke-width="2"><title>2026-08-18: 160 users</title></circle><path d="M 478.2 102.0 C 481.2 96.0, 487.2 99.0, 485.2 105.0" fill="none" stroke="#1d4ed8" stroke-width="1.2"/></g><g><circle cx="488.9" cy="101.0" r="4.3" fill="#fff7ed" stroke="#1d4ed8" stroke-width="2"><title>2026-08-19: 160 users</title></circle><path d="M 484.9 102.0 C 487.9 96.0, 493.9 99.0, 491.9 105.0" fill="none" stroke="#1d4ed8" stroke-width="1.2"/></g><g><circle cx="495.6" cy="98.6" r="4.3" fill="#fff7ed" stroke="#1d4ed8" stroke-width="2"><title>2026-08-20: 165 users</title></circle><path d="M 491.6 99.6 C 494.6 93.6, 500.6 96.6, 498.6 102.6" fill="none" stroke="#1d4ed8" stroke-width="1.2"/></g><g><circle cx="502.3" cy="98.6" r="4.3" fill="#fff7ed" stroke="#1d4ed8" stroke-width="2"><title>2026-08-21: 165 users</title></circle><path d="M 498.3 99.6 C 501.3 93.6, 507.3 96.6, 505.3 102.6" fill="none" stroke="#1d4ed8" stroke-width="1.2"/></g><g><circle cx="508.9" cy="97.2" r="4.3" fill="#fff7ed" stroke="#1d4ed8" stroke-width="2"><title>2026-08-22: 168 users</title></circle><path d="M 504.9 98.2 C 507.9 92.2, 513.9 95.2, 511.9 101.2" fill="none" stroke="#1d4ed8" stroke-width="1.2"/></g><g><circle cx="515.6" cy="97.2" r="4.3" fill="#fff7ed" stroke="#1d4ed8" stroke-width="2"><title>2026-08-23: 168 users</title></circle><path d="M 511.6 98.2 C 514.6 92.2, 520.6 95.2, 518.6 101.2" fill="none" stroke="#1d4ed8" stroke-width="1.2"/></g><g><circle cx="522.3" cy="94.3" r="4.3" fill="#fff7ed" stroke="#1d4ed8" stroke-width="2"><title>2026-08-24: 174 users</title></circle><path d="M 518.3 95.3 C 521.3 89.3, 527.3 92.3, 525.3 98.3" fill="none" stroke="#1d4ed8" stroke-width="1.2"/></g><g><circle cx="529.0" cy="92.4" r="4.3" fill="#fff7ed" stroke="#1d4ed8" stroke-width="2"><title>2026-08-25: 178 users</title></circle><path d="M 525.0 93.4 C 528.0 87.4, 534.0 90.4, 532.0 96.4" fill="none" stroke="#1d4ed8" stroke-width="1.2"/></g><g><circle cx="535.7" cy="91.9" r="4.3" fill="#fff7ed" stroke="#1d4ed8" stroke-width="2"><title>2026-08-26: 179 users</title></circle><path d="M 531.7 92.9 C 534.7 86.9, 540.7 89.9, 538.7 95.9" fill="none" stroke="#1d4ed8" stroke-width="1.2"/></g><g><circle cx="542.4" cy="90.0" r="4.3" fill="#fff7ed" stroke="#1d4ed8" stroke-width="2"><title>2026-08-27: 183 users</title></circle><path d="M 538.4 91.0 C 541.4 85.0, 547.4 88.0, 545.4 94.0" fill="none" stroke="#1d4ed8" stroke-width="1.2"/></g><g><circle cx="549.0" cy="89.5" r="4.3" fill="#fff7ed" stroke="#1d4ed8" stroke-width="2"><title>2026-08-28: 184 users</title></circle><path d="M 545.0 90.5 C 548.0 84.5, 554.0 87.5, 552.0 93.5" fill="none" stroke="#1d4ed8" stroke-width="1.2"/></g><g><circle cx="555.7" cy="89.0" r="4.3" fill="#fff7ed" stroke="#1d4ed8" stroke-width="2"><title>2026-08-29: 185 users</title></circle><path d="M 551.7 90.0 C 554.7 84.0, 560.7 87.0, 558.7 93.0" fill="none" stroke="#1d4ed8" stroke-width="1.2"/></g><g><circle cx="562.4" cy="87.6" r="4.3" fill="#fff7ed" stroke="#1d4ed8" stroke-width="2"><title>2026-08-30: 188 users</title></circle><path d="M 558.4 88.6 C 561.4 82.6, 567.4 85.6, 565.4 91.6" fill="none" stroke="#1d4ed8" stroke-width="1.2"/></g><g><circle cx="569.1" cy="86.6" r="4.3" fill="#fff7ed" stroke="#1d4ed8" stroke-width="2"><title>2026-08-31: 190 users</title></circle><path d="M 565.1 87.6 C 568.1 81.6, 574.1 84.6, 572.1 90.6" fill="none" stroke="#1d4ed8" stroke-width="1.2"/></g><g><circle cx="575.8" cy="86.1" r="4.3" fill="#fff7ed" stroke="#1d4ed8" stroke-width="2"><title>2026-09-01: 191 users</title></circle><path d="M 571.8 87.1 C 574.8 81.1, 580.8 84.1, 578.8 90.1" fill="none" stroke="#1d4ed8" stroke-width="1.2"/></g><g><circle cx="582.4" cy="86.1" r="4.3" fill="#fff7ed" stroke="#1d4ed8" stroke-width="2"><title>2026-09-02: 191 users</title></circle><path d="M 578.4 87.1 C 581.4 81.1, 587.4 84.1, 585.4 90.1" fill="none" stroke="#1d4ed8" stroke-width="1.2"/></g><g><circle cx="589.1" cy="79.4" r="4.3" fill="#fff7ed" stroke="#1d4ed8" stroke-width="2"><title>2026-09-03: 205 users</title></circle><path d="M 585.1 80.4 C 588.1 74.4, 594.1 77.4, 592.1 83.4" fill="none" stroke="#1d4ed8" stroke-width="1.2"/></g><g><circle cx="595.8" cy="77.9" r="4.3" fill="#fff7ed" stroke="#1d4ed8" stroke-width="2"><title>2026-09-04: 208 users</title></circle><path d="M 591.8 78.9 C 594.8 72.9, 600.8 75.9, 598.8 81.9" fill="none" stroke="#1d4ed8" stroke-width="1.2"/></g><g><circle cx="602.5" cy="77.9" r="4.3" fill="#fff7ed" stroke="#1d4ed8" stroke-width="2"><title>2026-09-05: 208 users</title></circle><path d="M 598.5 78.9 C 601.5 72.9, 607.5 75.9, 605.5 81.9" fill="none" stroke="#1d4ed8" stroke-width="1.2"/></g><g><circle cx="609.2" cy="76.5" r="4.3" fill="#fff7ed" stroke="#1d4ed8" stroke-width="2"><title>2026-09-06: 211 users</title></circle><path d="M 605.2 77.5 C 608.2 71.5, 614.2 74.5, 612.2 80.5" fill="none" stroke="#1d4ed8" stroke-width="1.2"/></g><g><circle cx="615.8" cy="77.0" r="4.3" fill="#fff7ed" stroke="#1d4ed8" stroke-width="2"><title>2026-09-07: 210 users</title></circle><path d="M 611.8 78.0 C 614.8 72.0, 620.8 75.0, 618.8 81.0" fill="none" stroke="#1d4ed8" stroke-width="1.2"/></g><g><circle cx="622.5" cy="74.6" r="4.3" fill="#fff7ed" stroke="#1d4ed8" stroke-width="2"><title>2026-09-08: 215 users</title></circle><path d="M 618.5 75.6 C 621.5 69.6, 627.5 72.6, 625.5 78.6" fill="none" stroke="#1d4ed8" stroke-width="1.2"/></g><g><circle cx="629.2" cy="74.6" r="4.3" fill="#fff7ed" stroke="#1d4ed8" stroke-width="2"><title>2026-09-09: 215 users</title></circle><path d="M 625.2 75.6 C 628.2 69.6, 634.2 72.6, 632.2 78.6" fill="none" stroke="#1d4ed8" stroke-width="1.2"/></g><g><circle cx="635.9" cy="74.6" r="4.3" fill="#fff7ed" stroke="#1d4ed8" stroke-width="2"><title>2026-09-10: 215 users</title></circle><path d="M 631.9 75.6 C 634.9 69.6, 640.9 72.6, 638.9 78.6" fill="none" stroke="#1d4ed8" stroke-width="1.2"/></g><g><circle cx="642.6" cy="71.2" r="4.3" fill="#fff7ed" stroke="#1d4ed8" stroke-width="2"><title>2026-09-11: 222 users</title></circle><path d="M 638.6 72.2 C 641.6 66.2, 647.6 69.2, 645.6 75.2" fill="none" stroke="#1d4ed8" stroke-width="1.2"/></g><g><circle cx="649.2" cy="71.2" r="4.3" fill="#fff7ed" stroke="#1d4ed8" stroke-width="2"><title>2026-09-12: 222 users</title></circle><path d="M 645.2 72.2 C 648.2 66.2, 654.2 69.2, 652.2 75.2" fill="none" stroke="#1d4ed8" stroke-width="1.2"/></g><g><circle cx="655.9" cy="71.2" r="4.3" fill="#fff7ed" stroke="#1d4ed8" stroke-width="2"><title>2026-09-13: 222 users</title></circle><path d="M 651.9 72.2 C 654.9 66.2, 660.9 69.2, 658.9 75.2" fill="none" stroke="#1d4ed8" stroke-width="1.2"/></g><g><circle cx="662.6" cy="70.2" r="4.3" fill="#fff7ed" stroke="#1d4ed8" stroke-width="2"><title>2026-09-14: 224 users</title></circle><path d="M 658.6 71.2 C 661.6 65.2, 667.6 68.2, 665.6 74.2" fill="none" stroke="#1d4ed8" stroke-width="1.2"/></g><g><circle cx="669.3" cy="68.3" r="4.3" fill="#fff7ed" stroke="#1d4ed8" stroke-width="2"><title>2026-09-15: 228 users</title></circle><path d="M 665.3 69.3 C 668.3 63.3, 674.3 66.3, 672.3 72.3" fill="none" stroke="#1d4ed8" stroke-width="1.2"/></g><g><circle cx="676.0" cy="68.3" r="4.3" fill="#fff7ed" stroke="#1d4ed8" stroke-width="2"><title>2026-09-16: 228 users</title></circle><path d="M 672.0 69.3 C 675.0 63.3, 681.0 66.3, 679.0 72.3" fill="none" stroke="#1d4ed8" stroke-width="1.2"/></g><g><circle cx="682.6" cy="68.3" r="4.3" fill="#fff7ed" stroke="#1d4ed8" stroke-width="2"><title>2026-09-17: 228 users</title></circle><path d="M 678.6 69.3 C 681.6 63.3, 687.6 66.3, 685.6 72.3" fill="none" stroke="#1d4ed8" stroke-width="1.2"/></g><g><circle cx="689.3" cy="68.3" r="4.3" fill="#fff7ed" stroke="#1d4ed8" stroke-width="2"><title>2026-09-18: 228 users</title></circle><path d="M 685.3 69.3 C 688.3 63.3, 694.3 66.3, 692.3 72.3" fill="none" stroke="#1d4ed8" stroke-width="1.2"/></g><g><circle cx="696.0" cy="56.3" r="4.3" fill="#fff7ed" stroke="#1d4ed8" stroke-width="2"><title>2026-09-19: 253 users</title></circle><path d="M 692.0 57.3 C 695.0 51.3, 701.0 54.3, 699.0 60.3" fill="none" stroke="#1d4ed8" stroke-width="1.2"/></g>
  <text x="48" y="206" fill="#57534e" font-family="'Comic Sans MS', 'Segoe Print', cursive" font-size="11">2026-06-13</text>
  <text x="696" y="206" fill="#57534e" font-family="'Comic Sans MS', 'Segoe Print', cursive" font-size="11" text-anchor="end">2026-09-19</text>
</svg>
