<svg xmlns="http://www.w3.org/2000/svg" width="720" height="220" viewBox="0 0 720 220" role="img" aria-label="Chrome Web Store users trend">
  <rect width="720" height="220" rx="8" fill="#fffdf7"/>
  <path d="M 11 8 C 190 3, 512 7, 710 11 M 714 11 C 717 74, 715 151, 711 211 M 708 214 C 523 218, 177 216, 12 211 M 9 211 C 4 145, 7 78, 11 8" fill="none" stroke="#292524" stroke-width="1.3" opacity="0.7"/>
  <text x="24" y="24" fill="#1c1917" font-family="'Comic Sans MS', 'Segoe Print', cursive" font-size="16" font-weight="700">Chrome Web Store users</text>
  <text x="696" y="24" fill="#1d4ed8" font-family="'Comic Sans MS', 'Segoe Print', cursive" font-size="16" font-weight="700" text-anchor="end">268 users</text>
  <text x="696" y="43" fill="#57534e" font-family="'Comic Sans MS', 'Segoe Print', cursive" font-size="11" text-anchor="end">Data through 2026-09-23</text>
  <g><path d="M 48 37.1 C 228 38.9, 468 37.1, 696 38.9" fill="none" stroke="#d6d3c8" stroke-width="1.1"/><text x="38" y="42" text-anchor="end" fill="#57534e" font-size="11">309</text></g>
  <g><path d="M 48 109.4 C 228 106.6, 468 109.4, 696 106.6" fill="none" stroke="#d6d3c8" stroke-width="1.1"/><text x="38" y="112" text-anchor="end" fill="#57534e" font-size="11">155</text></g>
  <g><path d="M 48 177.1 C 228 178.9, 468 177.1, 696 178.9" fill="none" stroke="#d6d3c8" stroke-width="1.1"/><text x="38" y="182" text-anchor="end" fill="#57534e" font-size="11">0</text></g>
  <path d="M 48 36 C 44 98, 50 156, 48 178" fill="none" stroke="#292524" stroke-width="1.4"/>
  <path d="M 46 178 C 218 182, 478 175, 696 179" fill="none" stroke="#292524" stroke-width="1.4"/>
  <path d="M 48.0 158.9 L 54.4 156.4 L 60.8 158.0 L 67.2 154.1 L 73.7 155.7 L 80.1 152.3 L 86.5 153.9 L 92.9 151.8 L 99.3 153.0 L 105.7 151.4 L 112.2 151.2 L 118.6 148.7 L 125.0 147.5 L 131.4 145.9 L 137.8 146.2 L 144.2 144.6 L 150.7 143.5 L 157.1 139.1 L 163.5 140.7 L 169.9 140.0 L 176.3 142.1 L 182.7 140.0 L 189.1 139.8 L 195.6 138.2 L 202.0 137.6 L 208.4 136.0 L 214.8 137.6 L 221.2 136.0 L 227.6 136.2 L 234.1 134.6 L 240.5 138.0 L 246.9 136.4 L 253.3 138.0 L 259.7 136.4 L 266.1 138.0 L 272.6 131.0 L 279.0 129.9 L 285.4 128.3 L 291.8 127.6 L 298.2 121.9 L 304.6 123.5 L 311.0 120.6 L 317.5 123.1 L 323.9 121.5 L 330.3 123.1 L 336.7 118.8 L 343.1 120.4 L 349.5 119.2 L 356.0 120.8 L 362.4 115.1 L 368.8 115.4 L 375.2 113.3 L 381.6 114.9 L 388.0 112.9 L 394.5 115.8 L 400.9 112.0 L 407.3 112.7 L 413.7 111.1 L 420.1 112.7 L 426.5 109.7 L 433.0 111.3 L 439.4 109.7 L 445.8 107.2 L 452.2 104.7 L 458.6 106.3 L 465.0 104.7 L 471.4 106.3 L 477.9 102.4 L 484.3 104.0 L 490.7 101.1 L 497.1 102.7 L 503.5 98.4 L 509.9 98.2 L 516.4 96.1 L 522.8 95.9 L 529.2 93.8 L 535.6 95.0 L 542.0 92.0 L 548.4 92.7 L 554.9 90.7 L 561.3 92.3 L 567.7 84.3 L 574.1 84.6 L 580.5 83.0 L 586.9 83.2 L 593.3 82.1 L 599.8 81.4 L 606.2 79.8 L 612.6 81.4 L 619.0 76.6 L 625.4 78.2 L 631.8 76.6 L 638.3 77.3 L 644.7 73.9 L 651.1 75.5 L 657.5 73.9 L 663.9 75.5 L 670.3 62.6 L 676.8 60.5 L 683.2 58.9 L 689.6 60.5 L 696.0 55.8" fill="none" stroke="#2563eb" stroke-width="3.6" stroke-linecap="round" stroke-linejoin="round"/>
  <path d="M 48.0 157.4 L 54.4 157.9 L 60.8 156.5 L 67.2 155.6 L 73.7 154.2 L 80.1 153.8 L 86.5 152.4 L 92.9 153.3 L 99.3 151.5 L 105.7 152.9 L 112.2 149.7 L 118.6 150.2 L 125.0 146.0 L 131.4 147.4 L 137.8 144.7 L 144.2 146.1 L 150.7 142.0 L 157.1 140.6 L 163.5 139.2 L 169.9 141.5 L 176.3 140.6 L 182.7 141.5 L 189.1 138.3 L 195.6 139.7 L 202.0 136.1 L 208.4 137.5 L 214.8 136.1 L 221.2 137.5 L 227.6 134.7 L 234.1 136.1 L 240.5 136.5 L 246.9 137.9 L 253.3 136.5 L 259.7 137.9 L 266.1 136.5 L 272.6 132.5 L 279.0 128.4 L 285.4 129.8 L 291.8 126.1 L 298.2 123.4 L 304.6 122.0 L 311.0 122.1 L 317.5 121.6 L 323.9 123.0 L 330.3 121.6 L 336.7 120.3 L 343.1 118.9 L 349.5 120.7 L 356.0 119.3 L 362.4 116.6 L 368.8 113.9 L 375.2 114.8 L 381.6 113.4 L 388.0 114.4 L 394.5 114.3 L 400.9 113.5 L 407.3 111.2 L 413.7 112.6 L 420.1 111.2 L 426.5 111.2 L 433.0 109.8 L 439.4 111.2 L 445.8 105.7 L 452.2 106.2 L 458.6 104.8 L 465.0 106.2 L 471.4 104.8 L 477.9 103.9 L 484.3 102.5 L 490.7 102.6 L 497.1 101.2 L 503.5 99.9 L 509.9 96.7 L 516.4 97.6 L 522.8 94.4 L 529.2 95.3 L 535.6 93.5 L 542.0 93.5 L 548.4 91.2 L 554.9 92.2 L 561.3 90.8 L 567.7 85.8 L 574.1 83.1 L 580.5 84.5 L 586.9 81.7 L 593.3 83.6 L 599.8 79.9 L 606.2 81.3 L 612.6 79.9 L 619.0 78.1 L 625.4 76.7 L 631.8 78.1 L 638.3 75.8 L 644.7 75.4 L 651.1 74.0 L 657.5 75.4 L 663.9 74.0 L 670.3 64.1 L 676.8 59.0 L 683.2 60.4 L 689.6 59.0 L 696.0 57.3" fill="none" stroke="#60a5fa" stroke-width="1.6" stroke-linecap="round" stroke-linejoin="round" opacity="0.85"/>
  <g><circle cx="48.0" cy="158.1" r="4.3" fill="#fff7ed" stroke="#1d4ed8" stroke-width="2"><title>2026-06-13: 44 users</title></circle><path d="M 44.0 159.1 C 47.0 153.1, 53.0 156.1, 51.0 162.1" fill="none" stroke="#1d4ed8" stroke-width="1.2"/></g><g><circle cx="54.4" cy="157.2" r="4.3" fill="#fff7ed" stroke="#1d4ed8" stroke-width="2"><title>2026-06-14: 46 users</title></circle><path d="M 50.4 158.2 C 53.4 152.2, 59.4 155.2, 57.4 161.2" fill="none" stroke="#1d4ed8" stroke-width="1.2"/></g><g><circle cx="60.8" cy="157.2" r="4.3" fill="#fff7ed" stroke="#1d4ed8" stroke-width="2"><title>2026-06-15: 46 users</title></circle><path d="M 56.8 158.2 C 59.8 152.2, 65.8 155.2, 63.8 161.2" fill="none" stroke="#1d4ed8" stroke-width="1.2"/></g><g><circle cx="67.2" cy="154.9" r="4.3" fill="#fff7ed" stroke="#1d4ed8" stroke-width="2"><title>2026-06-16: 51 users</title></circle><path d="M 63.2 155.9 C 66.2 149.9, 72.2 152.9, 70.2 158.9" fill="none" stroke="#1d4ed8" stroke-width="1.2"/></g><g><circle cx="73.7" cy="154.9" r="4.3" fill="#fff7ed" stroke="#1d4ed8" stroke-width="2"><title>2026-06-17: 51 users</title></circle><path d="M 69.7 155.9 C 72.7 149.9, 78.7 152.9, 76.7 158.9" fill="none" stroke="#1d4ed8" stroke-width="1.2"/></g><g><circle cx="80.1" cy="153.1" r="4.3" fill="#fff7ed" stroke="#1d4ed8" stroke-width="2"><title>2026-06-18: 55 users</title></circle><path d="M 76.1 154.1 C 79.1 148.1, 85.1 151.1, 83.1 157.1" fill="none" stroke="#1d4ed8" stroke-width="1.2"/></g><g><circle cx="86.5" cy="153.1" r="4.3" fill="#fff7ed" stroke="#1d4ed8" stroke-width="2"><title>2026-06-19: 55 users</title></circle><path d="M 82.5 154.1 C 85.5 148.1, 91.5 151.1, 89.5 157.1" fill="none" stroke="#1d4ed8" stroke-width="1.2"/></g><g><circle cx="92.9" cy="152.6" r="4.3" fill="#fff7ed" stroke="#1d4ed8" stroke-width="2"><title>2026-06-20: 56 users</title></circle><path d="M 88.9 153.6 C 91.9 147.6, 97.9 150.6, 95.9 156.6" fill="none" stroke="#1d4ed8" stroke-width="1.2"/></g><g><circle cx="99.3" cy="152.2" r="4.3" fill="#fff7ed" stroke="#1d4ed8" stroke-width="2"><title>2026-06-21: 57 users</title></circle><path d="M 95.3 153.2 C 98.3 147.2, 104.3 150.2, 102.3 156.2" fill="none" stroke="#1d4ed8" stroke-width="1.2"/></g><g><circle cx="105.7" cy="152.2" r="4.3" fill="#fff7ed" stroke="#1d4ed8" stroke-width="2"><title>2026-06-22: 57 users</title></circle><path d="M 101.7 153.2 C 104.7 147.2, 110.7 150.2, 108.7 156.2" fill="none" stroke="#1d4ed8" stroke-width="1.2"/></g><g><circle cx="112.2" cy="150.4" r="4.3" fill="#fff7ed" stroke="#1d4ed8" stroke-width="2"><title>2026-06-23: 61 users</title></circle><path d="M 108.2 151.4 C 111.2 145.4, 117.2 148.4, 115.2 154.4" fill="none" stroke="#1d4ed8" stroke-width="1.2"/></g><g><circle cx="118.6" cy="149.5" r="4.3" fill="#fff7ed" stroke="#1d4ed8" stroke-width="2"><title>2026-06-24: 63 users</title></circle><path d="M 114.6 150.5 C 117.6 144.5, 123.6 147.5, 121.6 153.5" fill="none" stroke="#1d4ed8" stroke-width="1.2"/></g><g><circle cx="125.0" cy="146.7" r="4.3" fill="#fff7ed" stroke="#1d4ed8" stroke-width="2"><title>2026-06-25: 69 users</title></circle><path d="M 121.0 147.7 C 124.0 141.7, 130.0 144.7, 128.0 150.7" fill="none" stroke="#1d4ed8" stroke-width="1.2"/></g><g><circle cx="131.4" cy="146.7" r="4.3" fill="#fff7ed" stroke="#1d4ed8" stroke-width="2"><title>2026-06-26: 69 users</title></circle><path d="M 127.4 147.7 C 130.4 141.7, 136.4 144.7, 134.4 150.7" fill="none" stroke="#1d4ed8" stroke-width="1.2"/></g><g><circle cx="137.8" cy="145.4" r="4.3" fill="#fff7ed" stroke="#1d4ed8" stroke-width="2"><title>2026-06-27: 72 users</title></circle><path d="M 133.8 146.4 C 136.8 140.4, 142.8 143.4, 140.8 149.4" fill="none" stroke="#1d4ed8" stroke-width="1.2"/></g><g><circle cx="144.2" cy="145.4" r="4.3" fill="#fff7ed" stroke="#1d4ed8" stroke-width="2"><title>2026-06-28: 72 users</title></circle><path d="M 140.2 146.4 C 143.2 140.4, 149.2 143.4, 147.2 149.4" fill="none" stroke="#1d4ed8" stroke-width="1.2"/></g><g><circle cx="150.7" cy="142.7" r="4.3" fill="#fff7ed" stroke="#1d4ed8" stroke-width="2"><title>2026-06-29: 78 users</title></circle><path d="M 146.7 143.7 C 149.7 137.7, 155.7 140.7, 153.7 146.7" fill="none" stroke="#1d4ed8" stroke-width="1.2"/></g><g><circle cx="157.1" cy="139.9" r="4.3" fill="#fff7ed" stroke="#1d4ed8" stroke-width="2"><title>2026-06-30: 84 users</title></circle><path d="M 153.1 140.9 C 156.1 134.9, 162.1 137.9, 160.1 143.9" fill="none" stroke="#1d4ed8" stroke-width="1.2"/></g><g><circle cx="163.5" cy="139.9" r="4.3" fill="#fff7ed" stroke="#1d4ed8" stroke-width="2"><title>2026-07-01: 84 users</title></circle><path d="M 159.5 140.9 C 162.5 134.9, 168.5 137.9, 166.5 143.9" fill="none" stroke="#1d4ed8" stroke-width="1.2"/></g><g><circle cx="169.9" cy="140.8" r="4.3" fill="#fff7ed" stroke="#1d4ed8" stroke-width="2"><title>2026-07-02: 82 users</title></circle><path d="M 165.9 141.8 C 168.9 135.8, 174.9 138.8, 172.9 144.8" fill="none" stroke="#1d4ed8" stroke-width="1.2"/></g><g><circle cx="176.3" cy="141.3" r="4.3" fill="#fff7ed" stroke="#1d4ed8" stroke-width="2"><title>2026-07-03: 81 users</title></circle><path d="M 172.3 142.3 C 175.3 136.3, 181.3 139.3, 179.3 145.3" fill="none" stroke="#1d4ed8" stroke-width="1.2"/></g><g><circle cx="182.7" cy="140.8" r="4.3" fill="#fff7ed" stroke="#1d4ed8" stroke-width="2"><title>2026-07-04: 82 users</title></circle><path d="M 178.7 141.8 C 181.7 135.8, 187.7 138.8, 185.7 144.8" fill="none" stroke="#1d4ed8" stroke-width="1.2"/></g><g><circle cx="189.1" cy="139.0" r="4.3" fill="#fff7ed" stroke="#1d4ed8" stroke-width="2"><title>2026-07-05: 86 users</title></circle><path d="M 185.1 140.0 C 188.1 134.0, 194.1 137.0, 192.1 143.0" fill="none" stroke="#1d4ed8" stroke-width="1.2"/></g><g><circle cx="195.6" cy="139.0" r="4.3" fill="#fff7ed" stroke="#1d4ed8" stroke-width="2"><title>2026-07-06: 86 users</title></circle><path d="M 191.6 140.0 C 194.6 134.0, 200.6 137.0, 198.6 143.0" fill="none" stroke="#1d4ed8" stroke-width="1.2"/></g><g><circle cx="202.0" cy="136.8" r="4.3" fill="#fff7ed" stroke="#1d4ed8" stroke-width="2"><title>2026-07-07: 91 users</title></circle><path d="M 198.0 137.8 C 201.0 131.8, 207.0 134.8, 205.0 140.8" fill="none" stroke="#1d4ed8" stroke-width="1.2"/></g><g><circle cx="208.4" cy="136.8" r="4.3" fill="#fff7ed" stroke="#1d4ed8" stroke-width="2"><title>2026-07-08: 91 users</title></circle><path d="M 204.4 137.8 C 207.4 131.8, 213.4 134.8, 211.4 140.8" fill="none" stroke="#1d4ed8" stroke-width="1.2"/></g><g><circle cx="214.8" cy="136.8" r="4.3" fill="#fff7ed" stroke="#1d4ed8" stroke-width="2"><title>2026-07-09: 91 users</title></circle><path d="M 210.8 137.8 C 213.8 131.8, 219.8 134.8, 217.8 140.8" fill="none" stroke="#1d4ed8" stroke-width="1.2"/></g><g><circle cx="221.2" cy="136.8" r="4.3" fill="#fff7ed" stroke="#1d4ed8" stroke-width="2"><title>2026-07-10: 91 users</title></circle><path d="M 217.2 137.8 C 220.2 131.8, 226.2 134.8, 224.2 140.8" fill="none" stroke="#1d4ed8" stroke-width="1.2"/></g><g><circle cx="227.6" cy="135.4" r="4.3" fill="#fff7ed" stroke="#1d4ed8" stroke-width="2"><title>2026-07-11: 94 users</title></circle><path d="M 223.6 136.4 C 226.6 130.4, 232.6 133.4, 230.6 139.4" fill="none" stroke="#1d4ed8" stroke-width="1.2"/></g><g><circle cx="234.1" cy="135.4" r="4.3" fill="#fff7ed" stroke="#1d4ed8" stroke-width="2"><title>2026-07-12: 94 users</title></circle><path d="M 230.1 136.4 C 233.1 130.4, 239.1 133.4, 237.1 139.4" fill="none" stroke="#1d4ed8" stroke-width="1.2"/></g><g><circle cx="240.5" cy="137.2" r="4.3" fill="#fff7ed" stroke="#1d4ed8" stroke-width="2"><title>2026-07-13: 90 users</title></circle><path d="M 236.5 138.2 C 239.5 132.2, 245.5 135.2, 243.5 141.2" fill="none" stroke="#1d4ed8" stroke-width="1.2"/></g><g><circle cx="246.9" cy="137.2" r="4.3" fill="#fff7ed" stroke="#1d4ed8" stroke-width="2"><title>2026-07-14: 90 users</title></circle><path d="M 242.9 138.2 C 245.9 132.2, 251.9 135.2, 249.9 141.2" fill="none" stroke="#1d4ed8" stroke-width="1.2"/></g><g><circle cx="253.3" cy="137.2" r="4.3" fill="#fff7ed" stroke="#1d4ed8" stroke-width="2"><title>2026-07-15: 90 users</title></circle><path d="M 249.3 138.2 C 252.3 132.2, 258.3 135.2, 256.3 141.2" fill="none" stroke="#1d4ed8" stroke-width="1.2"/></g><g><circle cx="259.7" cy="137.2" r="4.3" fill="#fff7ed" stroke="#1d4ed8" stroke-width="2"><title>2026-07-16: 90 users</title></circle><path d="M 255.7 138.2 C 258.7 132.2, 264.7 135.2, 262.7 141.2" fill="none" stroke="#1d4ed8" stroke-width="1.2"/></g><g><circle cx="266.1" cy="137.2" r="4.3" fill="#fff7ed" stroke="#1d4ed8" stroke-width="2"><title>2026-07-17: 90 users</title></circle><path d="M 262.1 138.2 C 265.1 132.2, 271.1 135.2, 269.1 141.2" fill="none" stroke="#1d4ed8" stroke-width="1.2"/></g><g><circle cx="272.6" cy="131.8" r="4.3" fill="#fff7ed" stroke="#1d4ed8" stroke-width="2"><title>2026-07-18: 102 users</title></circle><path d="M 268.6 132.8 C 271.6 126.8, 277.6 129.8, 275.6 135.8" fill="none" stroke="#1d4ed8" stroke-width="1.2"/></g><g><circle cx="279.0" cy="129.1" r="4.3" fill="#fff7ed" stroke="#1d4ed8" stroke-width="2"><title>2026-07-19: 108 users</title></circle><path d="M 275.0 130.1 C 278.0 124.1, 284.0 127.1, 282.0 133.1" fill="none" stroke="#1d4ed8" stroke-width="1.2"/></g><g><circle cx="285.4" cy="129.1" r="4.3" fill="#fff7ed" stroke="#1d4ed8" stroke-width="2"><title>2026-07-20: 108 users</title></circle><path d="M 281.4 130.1 C 284.4 124.1, 290.4 127.1, 288.4 133.1" fill="none" stroke="#1d4ed8" stroke-width="1.2"/></g><g><circle cx="291.8" cy="126.8" r="4.3" fill="#fff7ed" stroke="#1d4ed8" stroke-width="2"><title>2026-07-21: 113 users</title></circle><path d="M 287.8 127.8 C 290.8 121.8, 296.8 124.8, 294.8 130.8" fill="none" stroke="#1d4ed8" stroke-width="1.2"/></g><g><circle cx="298.2" cy="122.7" r="4.3" fill="#fff7ed" stroke="#1d4ed8" stroke-width="2"><title>2026-07-22: 122 users</title></circle><path d="M 294.2 123.7 C 297.2 117.7, 303.2 120.7, 301.2 126.7" fill="none" stroke="#1d4ed8" stroke-width="1.2"/></g><g><circle cx="304.6" cy="122.7" r="4.3" fill="#fff7ed" stroke="#1d4ed8" stroke-width="2"><title>2026-07-23: 122 users</title></circle><path d="M 300.6 123.7 C 303.6 117.7, 309.6 120.7, 307.6 126.7" fill="none" stroke="#1d4ed8" stroke-width="1.2"/></g><g><circle cx="311.0" cy="121.4" r="4.3" fill="#fff7ed" stroke="#1d4ed8" stroke-width="2"><title>2026-07-24: 125 users</title></circle><path d="M 307.0 122.4 C 310.0 116.4, 316.0 119.4, 314.0 125.4" fill="none" stroke="#1d4ed8" stroke-width="1.2"/></g><g><circle cx="317.5" cy="122.3" r="4.3" fill="#fff7ed" stroke="#1d4ed8" stroke-width="2"><title>2026-07-25: 123 users</title></circle><path d="M 313.5 123.3 C 316.5 117.3, 322.5 120.3, 320.5 126.3" fill="none" stroke="#1d4ed8" stroke-width="1.2"/></g><g><circle cx="323.9" cy="122.3" r="4.3" fill="#fff7ed" stroke="#1d4ed8" stroke-width="2"><title>2026-07-26: 123 users</title></circle><path d="M 319.9 123.3 C 322.9 117.3, 328.9 120.3, 326.9 126.3" fill="none" stroke="#1d4ed8" stroke-width="1.2"/></g><g><circle cx="330.3" cy="122.3" r="4.3" fill="#fff7ed" stroke="#1d4ed8" stroke-width="2"><title>2026-07-27: 123 users</title></circle><path d="M 326.3 123.3 C 329.3 117.3, 335.3 120.3, 333.3 126.3" fill="none" stroke="#1d4ed8" stroke-width="1.2"/></g><g><circle cx="336.7" cy="119.6" r="4.3" fill="#fff7ed" stroke="#1d4ed8" stroke-width="2"><title>2026-07-28: 129 users</title></circle><path d="M 332.7 120.6 C 335.7 114.6, 341.7 117.6, 339.7 123.6" fill="none" stroke="#1d4ed8" stroke-width="1.2"/></g><g><circle cx="343.1" cy="119.6" r="4.3" fill="#fff7ed" stroke="#1d4ed8" stroke-width="2"><title>2026-07-29: 129 users</title></circle><path d="M 339.1 120.6 C 342.1 114.6, 348.1 117.6, 346.1 123.6" fill="none" stroke="#1d4ed8" stroke-width="1.2"/></g><g><circle cx="349.5" cy="120.0" r="4.3" fill="#fff7ed" stroke="#1d4ed8" stroke-width="2"><title>2026-07-30: 128 users</title></circle><path d="M 345.5 121.0 C 348.5 115.0, 354.5 118.0, 352.5 124.0" fill="none" stroke="#1d4ed8" stroke-width="1.2"/></g><g><circle cx="356.0" cy="120.0" r="4.3" fill="#fff7ed" stroke="#1d4ed8" stroke-width="2"><title>2026-07-31: 128 users</title></circle><path d="M 352.0 121.0 C 355.0 115.0, 361.0 118.0, 359.0 124.0" fill="none" stroke="#1d4ed8" stroke-width="1.2"/></g><g><circle cx="362.4" cy="115.9" r="4.3" fill="#fff7ed" stroke="#1d4ed8" stroke-width="2"><title>2026-08-01: 137 users</title></circle><path d="M 358.4 116.9 C 361.4 110.9, 367.4 113.9, 365.4 119.9" fill="none" stroke="#1d4ed8" stroke-width="1.2"/></g><g><circle cx="368.8" cy="114.6" r="4.3" fill="#fff7ed" stroke="#1d4ed8" stroke-width="2"><title>2026-08-02: 140 users</title></circle><path d="M 364.8 115.6 C 367.8 109.6, 373.8 112.6, 371.8 118.6" fill="none" stroke="#1d4ed8" stroke-width="1.2"/></g><g><circle cx="375.2" cy="114.1" r="4.3" fill="#fff7ed" stroke="#1d4ed8" stroke-width="2"><title>2026-08-03: 141 users</title></circle><path d="M 371.2 115.1 C 374.2 109.1, 380.2 112.1, 378.2 118.1" fill="none" stroke="#1d4ed8" stroke-width="1.2"/></g><g><circle cx="381.6" cy="114.1" r="4.3" fill="#fff7ed" stroke="#1d4ed8" stroke-width="2"><title>2026-08-04: 141 users</title></circle><path d="M 377.6 115.1 C 380.6 109.1, 386.6 112.1, 384.6 118.1" fill="none" stroke="#1d4ed8" stroke-width="1.2"/></g><g><circle cx="388.0" cy="113.7" r="4.3" fill="#fff7ed" stroke="#1d4ed8" stroke-width="2"><title>2026-08-06: 142 users</title></circle><path d="M 384.0 114.7 C 387.0 108.7, 393.0 111.7, 391.0 117.7" fill="none" stroke="#1d4ed8" stroke-width="1.2"/></g><g><circle cx="394.5" cy="115.0" r="4.3" fill="#fff7ed" stroke="#1d4ed8" stroke-width="2"><title>2026-08-07: 139 users</title></circle><path d="M 390.5 116.0 C 393.5 110.0, 399.5 113.0, 397.5 119.0" fill="none" stroke="#1d4ed8" stroke-width="1.2"/></g><g><circle cx="400.9" cy="112.8" r="4.3" fill="#fff7ed" stroke="#1d4ed8" stroke-width="2"><title>2026-08-08: 144 users</title></circle><path d="M 396.9 113.8 C 399.9 107.8, 405.9 110.8, 403.9 116.8" fill="none" stroke="#1d4ed8" stroke-width="1.2"/></g><g><circle cx="407.3" cy="111.9" r="4.3" fill="#fff7ed" stroke="#1d4ed8" stroke-width="2"><title>2026-08-09: 146 users</title></circle><path d="M 403.3 112.9 C 406.3 106.9, 412.3 109.9, 410.3 115.9" fill="none" stroke="#1d4ed8" stroke-width="1.2"/></g><g><circle cx="413.7" cy="111.9" r="4.3" fill="#fff7ed" stroke="#1d4ed8" stroke-width="2"><title>2026-08-10: 146 users</title></circle><path d="M 409.7 112.9 C 412.7 106.9, 418.7 109.9, 416.7 115.9" fill="none" stroke="#1d4ed8" stroke-width="1.2"/></g><g><circle cx="420.1" cy="111.9" r="4.3" fill="#fff7ed" stroke="#1d4ed8" stroke-width="2"><title>2026-08-11: 146 users</title></circle><path d="M 416.1 112.9 C 419.1 106.9, 425.1 109.9, 423.1 115.9" fill="none" stroke="#1d4ed8" stroke-width="1.2"/></g><g><circle cx="426.5" cy="110.5" r="4.3" fill="#fff7ed" stroke="#1d4ed8" stroke-width="2"><title>2026-08-12: 149 users</title></circle><path d="M 422.5 111.5 C 425.5 105.5, 431.5 108.5, 429.5 114.5" fill="none" stroke="#1d4ed8" stroke-width="1.2"/></g><g><circle cx="433.0" cy="110.5" r="4.3" fill="#fff7ed" stroke="#1d4ed8" stroke-width="2"><title>2026-08-13: 149 users</title></circle><path d="M 429.0 111.5 C 432.0 105.5, 438.0 108.5, 436.0 114.5" fill="none" stroke="#1d4ed8" stroke-width="1.2"/></g><g><circle cx="439.4" cy="110.5" r="4.3" fill="#fff7ed" stroke="#1d4ed8" stroke-width="2"><title>2026-08-14: 149 users</title></circle><path d="M 435.4 111.5 C 438.4 105.5, 444.4 108.5, 442.4 114.5" fill="none" stroke="#1d4ed8" stroke-width="1.2"/></g><g><circle cx="445.8" cy="106.4" r="4.3" fill="#fff7ed" stroke="#1d4ed8" stroke-width="2"><title>2026-08-15: 158 users</title></circle><path d="M 441.8 107.4 C 444.8 101.4, 450.8 104.4, 448.8 110.4" fill="none" stroke="#1d4ed8" stroke-width="1.2"/></g><g><circle cx="452.2" cy="105.5" r="4.3" fill="#fff7ed" stroke="#1d4ed8" stroke-width="2"><title>2026-08-16: 160 users</title></circle><path d="M 448.2 106.5 C 451.2 100.5, 457.2 103.5, 455.2 109.5" fill="none" stroke="#1d4ed8" stroke-width="1.2"/></g><g><circle cx="458.6" cy="105.5" r="4.3" fill="#fff7ed" stroke="#1d4ed8" stroke-width="2"><title>2026-08-17: 160 users</title></circle><path d="M 454.6 106.5 C 457.6 100.5, 463.6 103.5, 461.6 109.5" fill="none" stroke="#1d4ed8" stroke-width="1.2"/></g><g><circle cx="465.0" cy="105.5" r="4.3" fill="#fff7ed" stroke="#1d4ed8" stroke-width="2"><title>2026-08-18: 160 users</title></circle><path d="M 461.0 106.5 C 464.0 100.5, 470.0 103.5, 468.0 109.5" fill="none" stroke="#1d4ed8" stroke-width="1.2"/></g><g><circle cx="471.4" cy="105.5" r="4.3" fill="#fff7ed" stroke="#1d4ed8" stroke-width="2"><title>2026-08-19: 160 users</title></circle><path d="M 467.4 106.5 C 470.4 100.5, 476.4 103.5, 474.4 109.5" fill="none" stroke="#1d4ed8" stroke-width="1.2"/></g><g><circle cx="477.9" cy="103.2" r="4.3" fill="#fff7ed" stroke="#1d4ed8" stroke-width="2"><title>2026-08-20: 165 users</title></circle><path d="M 473.9 104.2 C 476.9 98.2, 482.9 101.2, 480.9 107.2" fill="none" stroke="#1d4ed8" stroke-width="1.2"/></g><g><circle cx="484.3" cy="103.2" r="4.3" fill="#fff7ed" stroke="#1d4ed8" stroke-width="2"><title>2026-08-21: 165 users</title></circle><path d="M 480.3 104.2 C 483.3 98.2, 489.3 101.2, 487.3 107.2" fill="none" stroke="#1d4ed8" stroke-width="1.2"/></g><g><circle cx="490.7" cy="101.9" r="4.3" fill="#fff7ed" stroke="#1d4ed8" stroke-width="2"><title>2026-08-22: 168 users</title></circle><path d="M 486.7 102.9 C 489.7 96.9, 495.7 99.9, 493.7 105.9" fill="none" stroke="#1d4ed8" stroke-width="1.2"/></g><g><circle cx="497.1" cy="101.9" r="4.3" fill="#fff7ed" stroke="#1d4ed8" stroke-width="2"><title>2026-08-23: 168 users</title></circle><path d="M 493.1 102.9 C 496.1 96.9, 502.1 99.9, 500.1 105.9" fill="none" stroke="#1d4ed8" stroke-width="1.2"/></g><g><circle cx="503.5" cy="99.2" r="4.3" fill="#fff7ed" stroke="#1d4ed8" stroke-width="2"><title>2026-08-24: 174 users</title></circle><path d="M 499.5 100.2 C 502.5 94.2, 508.5 97.2, 506.5 103.2" fill="none" stroke="#1d4ed8" stroke-width="1.2"/></g><g><circle cx="509.9" cy="97.4" r="4.3" fill="#fff7ed" stroke="#1d4ed8" stroke-width="2"><title>2026-08-25: 178 users</title></circle><path d="M 505.9 98.4 C 508.9 92.4, 514.9 95.4, 512.9 101.4" fill="none" stroke="#1d4ed8" stroke-width="1.2"/></g><g><circle cx="516.4" cy="96.9" r="4.3" fill="#fff7ed" stroke="#1d4ed8" stroke-width="2"><title>2026-08-26: 179 users</title></circle><path d="M 512.4 97.9 C 515.4 91.9, 521.4 94.9, 519.4 100.9" fill="none" stroke="#1d4ed8" stroke-width="1.2"/></g><g><circle cx="522.8" cy="95.1" r="4.3" fill="#fff7ed" stroke="#1d4ed8" stroke-width="2"><title>2026-08-27: 183 users</title></circle><path d="M 518.8 96.1 C 521.8 90.1, 527.8 93.1, 525.8 99.1" fill="none" stroke="#1d4ed8" stroke-width="1.2"/></g><g><circle cx="529.2" cy="94.6" r="4.3" fill="#fff7ed" stroke="#1d4ed8" stroke-width="2"><title>2026-08-28: 184 users</title></circle><path d="M 525.2 95.6 C 528.2 89.6, 534.2 92.6, 532.2 98.6" fill="none" stroke="#1d4ed8" stroke-width="1.2"/></g><g><circle cx="535.6" cy="94.2" r="4.3" fill="#fff7ed" stroke="#1d4ed8" stroke-width="2"><title>2026-08-29: 185 users</title></circle><path d="M 531.6 95.2 C 534.6 89.2, 540.6 92.2, 538.6 98.2" fill="none" stroke="#1d4ed8" stroke-width="1.2"/></g><g><circle cx="542.0" cy="92.8" r="4.3" fill="#fff7ed" stroke="#1d4ed8" stroke-width="2"><title>2026-08-30: 188 users</title></circle><path d="M 538.0 93.8 C 541.0 87.8, 547.0 90.8, 545.0 96.8" fill="none" stroke="#1d4ed8" stroke-width="1.2"/></g><g><circle cx="548.4" cy="91.9" r="4.3" fill="#fff7ed" stroke="#1d4ed8" stroke-width="2"><title>2026-08-31: 190 users</title></circle><path d="M 544.4 92.9 C 547.4 86.9, 553.4 89.9, 551.4 95.9" fill="none" stroke="#1d4ed8" stroke-width="1.2"/></g><g><circle cx="554.9" cy="91.5" r="4.3" fill="#fff7ed" stroke="#1d4ed8" stroke-width="2"><title>2026-09-01: 191 users</title></circle><path d="M 550.9 92.5 C 553.9 86.5, 559.9 89.5, 557.9 95.5" fill="none" stroke="#1d4ed8" stroke-width="1.2"/></g><g><circle cx="561.3" cy="91.5" r="4.3" fill="#fff7ed" stroke="#1d4ed8" stroke-width="2"><title>2026-09-02: 191 users</title></circle><path d="M 557.3 92.5 C 560.3 86.5, 566.3 89.5, 564.3 95.5" fill="none" stroke="#1d4ed8" stroke-width="1.2"/></g><g><circle cx="567.7" cy="85.1" r="4.3" fill="#fff7ed" stroke="#1d4ed8" stroke-width="2"><title>2026-09-03: 205 users</title></circle><path d="M 563.7 86.1 C 566.7 80.1, 572.7 83.1, 570.7 89.1" fill="none" stroke="#1d4ed8" stroke-width="1.2"/></g><g><circle cx="574.1" cy="83.8" r="4.3" fill="#fff7ed" stroke="#1d4ed8" stroke-width="2"><title>2026-09-04: 208 users</title></circle><path d="M 570.1 84.8 C 573.1 78.8, 579.1 81.8, 577.1 87.8" fill="none" stroke="#1d4ed8" stroke-width="1.2"/></g><g><circle cx="580.5" cy="83.8" r="4.3" fill="#fff7ed" stroke="#1d4ed8" stroke-width="2"><title>2026-09-05: 208 users</title></circle><path d="M 576.5 84.8 C 579.5 78.8, 585.5 81.8, 583.5 87.8" fill="none" stroke="#1d4ed8" stroke-width="1.2"/></g><g><circle cx="586.9" cy="82.4" r="4.3" fill="#fff7ed" stroke="#1d4ed8" stroke-width="2"><title>2026-09-06: 211 users</title></circle><path d="M 582.9 83.4 C 585.9 77.4, 591.9 80.4, 589.9 86.4" fill="none" stroke="#1d4ed8" stroke-width="1.2"/></g><g><circle cx="593.3" cy="82.9" r="4.3" fill="#fff7ed" stroke="#1d4ed8" stroke-width="2"><title>2026-09-07: 210 users</title></circle><path d="M 589.3 83.9 C 592.3 77.9, 598.3 80.9, 596.3 86.9" fill="none" stroke="#1d4ed8" stroke-width="1.2"/></g><g><circle cx="599.8" cy="80.6" r="4.3" fill="#fff7ed" stroke="#1d4ed8" stroke-width="2"><title>2026-09-08: 215 users</title></circle><path d="M 595.8 81.6 C 598.8 75.6, 604.8 78.6, 602.8 84.6" fill="none" stroke="#1d4ed8" stroke-width="1.2"/></g><g><circle cx="606.2" cy="80.6" r="4.3" fill="#fff7ed" stroke="#1d4ed8" stroke-width="2"><title>2026-09-09: 215 users</title></circle><path d="M 602.2 81.6 C 605.2 75.6, 611.2 78.6, 609.2 84.6" fill="none" stroke="#1d4ed8" stroke-width="1.2"/></g><g><circle cx="612.6" cy="80.6" r="4.3" fill="#fff7ed" stroke="#1d4ed8" stroke-width="2"><title>2026-09-10: 215 users</title></circle><path d="M 608.6 81.6 C 611.6 75.6, 617.6 78.6, 615.6 84.6" fill="none" stroke="#1d4ed8" stroke-width="1.2"/></g><g><circle cx="619.0" cy="77.4" r="4.3" fill="#fff7ed" stroke="#1d4ed8" stroke-width="2"><title>2026-09-11: 222 users</title></circle><path d="M 615.0 78.4 C 618.0 72.4, 624.0 75.4, 622.0 81.4" fill="none" stroke="#1d4ed8" stroke-width="1.2"/></g><g><circle cx="625.4" cy="77.4" r="4.3" fill="#fff7ed" stroke="#1d4ed8" stroke-width="2"><title>2026-09-12: 222 users</title></circle><path d="M 621.4 78.4 C 624.4 72.4, 630.4 75.4, 628.4 81.4" fill="none" stroke="#1d4ed8" stroke-width="1.2"/></g><g><circle cx="631.8" cy="77.4" r="4.3" fill="#fff7ed" stroke="#1d4ed8" stroke-width="2"><title>2026-09-13: 222 users</title></circle><path d="M 627.8 78.4 C 630.8 72.4, 636.8 75.4, 634.8 81.4" fill="none" stroke="#1d4ed8" stroke-width="1.2"/></g><g><circle cx="638.3" cy="76.5" r="4.3" fill="#fff7ed" stroke="#1d4ed8" stroke-width="2"><title>2026-09-14: 224 users</title></circle><path d="M 634.3 77.5 C 637.3 71.5, 643.3 74.5, 641.3 80.5" fill="none" stroke="#1d4ed8" stroke-width="1.2"/></g><g><circle cx="644.7" cy="74.7" r="4.3" fill="#fff7ed" stroke="#1d4ed8" stroke-width="2"><title>2026-09-15: 228 users</title></circle><path d="M 640.7 75.7 C 643.7 69.7, 649.7 72.7, 647.7 78.7" fill="none" stroke="#1d4ed8" stroke-width="1.2"/></g><g><circle cx="651.1" cy="74.7" r="4.3" fill="#fff7ed" stroke="#1d4ed8" stroke-width="2"><title>2026-09-16: 228 users</title></circle><path d="M 647.1 75.7 C 650.1 69.7, 656.1 72.7, 654.1 78.7" fill="none" stroke="#1d4ed8" stroke-width="1.2"/></g><g><circle cx="657.5" cy="74.7" r="4.3" fill="#fff7ed" stroke="#1d4ed8" stroke-width="2"><title>2026-09-17: 228 users</title></circle><path d="M 653.5 75.7 C 656.5 69.7, 662.5 72.7, 660.5 78.7" fill="none" stroke="#1d4ed8" stroke-width="1.2"/></g><g><circle cx="663.9" cy="74.7" r="4.3" fill="#fff7ed" stroke="#1d4ed8" stroke-width="2"><title>2026-09-18: 228 users</title></circle><path d="M 659.9 75.7 C 662.9 69.7, 668.9 72.7, 666.9 78.7" fill="none" stroke="#1d4ed8" stroke-width="1.2"/></g><g><circle cx="670.3" cy="63.4" r="4.3" fill="#fff7ed" stroke="#1d4ed8" stroke-width="2"><title>2026-09-19: 253 users</title></circle><path d="M 666.3 64.4 C 669.3 58.4, 675.3 61.4, 673.3 67.4" fill="none" stroke="#1d4ed8" stroke-width="1.2"/></g><g><circle cx="676.8" cy="59.7" r="4.3" fill="#fff7ed" stroke="#1d4ed8" stroke-width="2"><title>2026-09-20: 261 users</title></circle><path d="M 672.8 60.7 C 675.8 54.7, 681.8 57.7, 679.8 63.7" fill="none" stroke="#1d4ed8" stroke-width="1.2"/></g><g><circle cx="683.2" cy="59.7" r="4.3" fill="#fff7ed" stroke="#1d4ed8" stroke-width="2"><title>2026-09-21: 261 users</title></circle><path d="M 679.2 60.7 C 682.2 54.7, 688.2 57.7, 686.2 63.7" fill="none" stroke="#1d4ed8" stroke-width="1.2"/></g><g><circle cx="689.6" cy="59.7" r="4.3" fill="#fff7ed" stroke="#1d4ed8" stroke-width="2"><title>2026-09-22: 261 users</title></circle><path d="M 685.6 60.7 C 688.6 54.7, 694.6 57.7, 692.6 63.7" fill="none" stroke="#1d4ed8" stroke-width="1.2"/></g><g><circle cx="696.0" cy="56.6" r="4.3" fill="#fff7ed" stroke="#1d4ed8" stroke-width="2"><title>2026-09-23: 268 users</title></circle><path d="M 692.0 57.6 C 695.0 51.6, 701.0 54.6, 699.0 60.6" fill="none" stroke="#1d4ed8" stroke-width="1.2"/></g>
  <text x="48" y="206" fill="#57534e" font-family="'Comic Sans MS', 'Segoe Print', cursive" font-size="11">2026-06-13</text>
  <text x="696" y="206" fill="#57534e" font-family="'Comic Sans MS', 'Segoe Print', cursive" font-size="11" text-anchor="end">2026-09-23</text>
</svg>
