<svg xmlns="http://www.w3.org/2000/svg" width="720" height="220" viewBox="0 0 720 220" role="img" aria-label="Chrome Web Store users trend">
  <rect width="720" height="220" rx="8" fill="#fffdf7"/>
  <path d="M 11 8 C 190 3, 512 7, 710 11 M 714 11 C 717 74, 715 151, 711 211 M 708 214 C 523 218, 177 216, 12 211 M 9 211 C 4 145, 7 78, 11 8" fill="none" stroke="#292524" stroke-width="1.3" opacity="0.7"/>
  <text x="24" y="24" fill="#1c1917" font-family="'Comic Sans MS', 'Segoe Print', cursive" font-size="16" font-weight="700">Chrome Web Store users</text>
  <text x="696" y="24" fill="#1d4ed8" font-family="'Comic Sans MS', 'Segoe Print', cursive" font-size="16" font-weight="700" text-anchor="end">160 users</text>
  <text x="696" y="43" fill="#57534e" font-family="'Comic Sans MS', 'Segoe Print', cursive" font-size="11" text-anchor="end">Data through 2026-08-16</text>
  <g><path d="M 48 37.1 C 228 38.9, 468 37.1, 696 38.9" fill="none" stroke="#d6d3c8" stroke-width="1.1"/><text x="38" y="42" text-anchor="end" fill="#57534e" font-size="11">184</text></g>
  <g><path d="M 48 109.4 C 228 106.6, 468 109.4, 696 106.6" fill="none" stroke="#d6d3c8" stroke-width="1.1"/><text x="38" y="112" text-anchor="end" fill="#57534e" font-size="11">92</text></g>
  <g><path d="M 48 177.1 C 228 178.9, 468 177.1, 696 178.9" fill="none" stroke="#d6d3c8" stroke-width="1.1"/><text x="38" y="182" text-anchor="end" fill="#57534e" font-size="11">0</text></g>
  <path d="M 48 36 C 44 98, 50 156, 48 178" fill="none" stroke="#292524" stroke-width="1.4"/>
  <path d="M 46 178 C 218 182, 478 175, 696 179" fill="none" stroke="#292524" stroke-width="1.4"/>
  <path d="M 48.0 145.3 L 58.3 142.2 L 68.6 143.8 L 78.9 138.4 L 89.1 140.0 L 99.4 135.4 L 109.7 137.0 L 120.0 134.6 L 130.3 135.4 L 140.6 133.8 L 150.9 132.4 L 161.1 129.3 L 171.4 126.3 L 181.7 124.7 L 192.0 124.0 L 202.3 122.4 L 212.6 119.5 L 222.9 113.3 L 233.1 114.9 L 243.4 114.8 L 253.7 117.2 L 264.0 114.8 L 274.3 113.4 L 284.6 111.8 L 294.9 109.6 L 305.1 108.0 L 315.4 109.6 L 325.7 108.0 L 336.0 107.3 L 346.3 105.7 L 356.6 110.3 L 366.9 108.7 L 377.1 110.3 L 387.4 108.7 L 397.7 110.3 L 408.0 99.6 L 418.3 96.6 L 428.6 95.0 L 438.9 92.8 L 449.1 84.4 L 459.4 86.0 L 469.7 82.1 L 480.0 85.2 L 490.3 83.6 L 500.6 85.2 L 510.9 79.0 L 521.1 80.6 L 531.4 79.8 L 541.7 81.4 L 552.0 73.0 L 562.3 72.3 L 572.6 69.9 L 582.9 71.5 L 593.1 69.2 L 603.4 73.0 L 613.7 67.6 L 624.0 67.7 L 634.3 66.1 L 644.6 67.7 L 654.9 63.8 L 665.1 65.4 L 675.4 63.8 L 685.7 58.6 L 696.0 55.5" fill="none" stroke="#2563eb" stroke-width="3.6" stroke-linecap="round" stroke-linejoin="round"/>
  <path d="M 48.0 143.8 L 58.3 143.7 L 68.6 142.3 L 78.9 139.9 L 89.1 138.5 L 99.4 136.9 L 109.7 135.5 L 120.0 136.1 L 130.3 133.9 L 140.6 135.3 L 150.9 130.9 L 161.1 130.8 L 171.4 124.8 L 181.7 126.2 L 192.0 122.5 L 202.3 123.9 L 212.6 118.0 L 222.9 114.8 L 233.1 113.4 L 243.4 116.3 L 253.7 115.7 L 264.0 116.3 L 274.3 111.9 L 284.6 113.3 L 294.9 108.1 L 305.1 109.5 L 315.4 108.1 L 325.7 109.5 L 336.0 105.8 L 346.3 107.2 L 356.6 108.8 L 366.9 110.2 L 377.1 108.8 L 387.4 110.2 L 397.7 108.8 L 408.0 101.1 L 418.3 95.1 L 428.6 96.5 L 438.9 91.3 L 449.1 85.9 L 459.4 84.5 L 469.7 83.6 L 480.0 83.7 L 490.3 85.1 L 500.6 83.7 L 510.9 80.5 L 521.1 79.1 L 531.4 81.3 L 541.7 79.9 L 552.0 74.5 L 562.3 70.8 L 572.6 71.4 L 582.9 70.0 L 593.1 70.7 L 603.4 71.5 L 613.7 69.1 L 624.0 66.2 L 634.3 67.6 L 644.6 66.2 L 654.9 65.3 L 665.1 63.9 L 675.4 65.3 L 685.7 57.1 L 696.0 57.0" fill="none" stroke="#60a5fa" stroke-width="1.6" stroke-linecap="round" stroke-linejoin="round" opacity="0.85"/>
  <g><circle cx="48.0" cy="144.5" r="4.3" fill="#fff7ed" stroke="#1d4ed8" stroke-width="2"><title>2026-06-13: 44 users</title></circle><path d="M 44.0 145.5 C 47.0 139.5, 53.0 142.5, 51.0 148.5" fill="none" stroke="#1d4ed8" stroke-width="1.2"/></g><g><circle cx="58.3" cy="143.0" r="4.3" fill="#fff7ed" stroke="#1d4ed8" stroke-width="2"><title>2026-06-14: 46 users</title></circle><path d="M 54.3 144.0 C 57.3 138.0, 63.3 141.0, 61.3 147.0" fill="none" stroke="#1d4ed8" stroke-width="1.2"/></g><g><circle cx="68.6" cy="143.0" r="4.3" fill="#fff7ed" stroke="#1d4ed8" stroke-width="2"><title>2026-06-15: 46 users</title></circle><path d="M 64.6 144.0 C 67.6 138.0, 73.6 141.0, 71.6 147.0" fill="none" stroke="#1d4ed8" stroke-width="1.2"/></g><g><circle cx="78.9" cy="139.2" r="4.3" fill="#fff7ed" stroke="#1d4ed8" stroke-width="2"><title>2026-06-16: 51 users</title></circle><path d="M 74.9 140.2 C 77.9 134.2, 83.9 137.2, 81.9 143.2" fill="none" stroke="#1d4ed8" stroke-width="1.2"/></g><g><circle cx="89.1" cy="139.2" r="4.3" fill="#fff7ed" stroke="#1d4ed8" stroke-width="2"><title>2026-06-17: 51 users</title></circle><path d="M 85.1 140.2 C 88.1 134.2, 94.1 137.2, 92.1 143.2" fill="none" stroke="#1d4ed8" stroke-width="1.2"/></g><g><circle cx="99.4" cy="136.2" r="4.3" fill="#fff7ed" stroke="#1d4ed8" stroke-width="2"><title>2026-06-18: 55 users</title></circle><path d="M 95.4 137.2 C 98.4 131.2, 104.4 134.2, 102.4 140.2" fill="none" stroke="#1d4ed8" stroke-width="1.2"/></g><g><circle cx="109.7" cy="136.2" r="4.3" fill="#fff7ed" stroke="#1d4ed8" stroke-width="2"><title>2026-06-19: 55 users</title></circle><path d="M 105.7 137.2 C 108.7 131.2, 114.7 134.2, 112.7 140.2" fill="none" stroke="#1d4ed8" stroke-width="1.2"/></g><g><circle cx="120.0" cy="135.4" r="4.3" fill="#fff7ed" stroke="#1d4ed8" stroke-width="2"><title>2026-06-20: 56 users</title></circle><path d="M 116.0 136.4 C 119.0 130.4, 125.0 133.4, 123.0 139.4" fill="none" stroke="#1d4ed8" stroke-width="1.2"/></g><g><circle cx="130.3" cy="134.6" r="4.3" fill="#fff7ed" stroke="#1d4ed8" stroke-width="2"><title>2026-06-21: 57 users</title></circle><path d="M 126.3 135.6 C 129.3 129.6, 135.3 132.6, 133.3 138.6" fill="none" stroke="#1d4ed8" stroke-width="1.2"/></g><g><circle cx="140.6" cy="134.6" r="4.3" fill="#fff7ed" stroke="#1d4ed8" stroke-width="2"><title>2026-06-22: 57 users</title></circle><path d="M 136.6 135.6 C 139.6 129.6, 145.6 132.6, 143.6 138.6" fill="none" stroke="#1d4ed8" stroke-width="1.2"/></g><g><circle cx="150.9" cy="131.6" r="4.3" fill="#fff7ed" stroke="#1d4ed8" stroke-width="2"><title>2026-06-23: 61 users</title></circle><path d="M 146.9 132.6 C 149.9 126.6, 155.9 129.6, 153.9 135.6" fill="none" stroke="#1d4ed8" stroke-width="1.2"/></g><g><circle cx="161.1" cy="130.1" r="4.3" fill="#fff7ed" stroke="#1d4ed8" stroke-width="2"><title>2026-06-24: 63 users</title></circle><path d="M 157.1 131.1 C 160.1 125.1, 166.1 128.1, 164.1 134.1" fill="none" stroke="#1d4ed8" stroke-width="1.2"/></g><g><circle cx="171.4" cy="125.5" r="4.3" fill="#fff7ed" stroke="#1d4ed8" stroke-width="2"><title>2026-06-25: 69 users</title></circle><path d="M 167.4 126.5 C 170.4 120.5, 176.4 123.5, 174.4 129.5" fill="none" stroke="#1d4ed8" stroke-width="1.2"/></g><g><circle cx="181.7" cy="125.5" r="4.3" fill="#fff7ed" stroke="#1d4ed8" stroke-width="2"><title>2026-06-26: 69 users</title></circle><path d="M 177.7 126.5 C 180.7 120.5, 186.7 123.5, 184.7 129.5" fill="none" stroke="#1d4ed8" stroke-width="1.2"/></g><g><circle cx="192.0" cy="123.2" r="4.3" fill="#fff7ed" stroke="#1d4ed8" stroke-width="2"><title>2026-06-27: 72 users</title></circle><path d="M 188.0 124.2 C 191.0 118.2, 197.0 121.2, 195.0 127.2" fill="none" stroke="#1d4ed8" stroke-width="1.2"/></g><g><circle cx="202.3" cy="123.2" r="4.3" fill="#fff7ed" stroke="#1d4ed8" stroke-width="2"><title>2026-06-28: 72 users</title></circle><path d="M 198.3 124.2 C 201.3 118.2, 207.3 121.2, 205.3 127.2" fill="none" stroke="#1d4ed8" stroke-width="1.2"/></g><g><circle cx="212.6" cy="118.7" r="4.3" fill="#fff7ed" stroke="#1d4ed8" stroke-width="2"><title>2026-06-29: 78 users</title></circle><path d="M 208.6 119.7 C 211.6 113.7, 217.6 116.7, 215.6 122.7" fill="none" stroke="#1d4ed8" stroke-width="1.2"/></g><g><circle cx="222.9" cy="114.1" r="4.3" fill="#fff7ed" stroke="#1d4ed8" stroke-width="2"><title>2026-06-30: 84 users</title></circle><path d="M 218.9 115.1 C 221.9 109.1, 227.9 112.1, 225.9 118.1" fill="none" stroke="#1d4ed8" stroke-width="1.2"/></g><g><circle cx="233.1" cy="114.1" r="4.3" fill="#fff7ed" stroke="#1d4ed8" stroke-width="2"><title>2026-07-01: 84 users</title></circle><path d="M 229.1 115.1 C 232.1 109.1, 238.1 112.1, 236.1 118.1" fill="none" stroke="#1d4ed8" stroke-width="1.2"/></g><g><circle cx="243.4" cy="115.6" r="4.3" fill="#fff7ed" stroke="#1d4ed8" stroke-width="2"><title>2026-07-02: 82 users</title></circle><path d="M 239.4 116.6 C 242.4 110.6, 248.4 113.6, 246.4 119.6" fill="none" stroke="#1d4ed8" stroke-width="1.2"/></g><g><circle cx="253.7" cy="116.4" r="4.3" fill="#fff7ed" stroke="#1d4ed8" stroke-width="2"><title>2026-07-03: 81 users</title></circle><path d="M 249.7 117.4 C 252.7 111.4, 258.7 114.4, 256.7 120.4" fill="none" stroke="#1d4ed8" stroke-width="1.2"/></g><g><circle cx="264.0" cy="115.6" r="4.3" fill="#fff7ed" stroke="#1d4ed8" stroke-width="2"><title>2026-07-04: 82 users</title></circle><path d="M 260.0 116.6 C 263.0 110.6, 269.0 113.6, 267.0 119.6" fill="none" stroke="#1d4ed8" stroke-width="1.2"/></g><g><circle cx="274.3" cy="112.6" r="4.3" fill="#fff7ed" stroke="#1d4ed8" stroke-width="2"><title>2026-07-05: 86 users</title></circle><path d="M 270.3 113.6 C 273.3 107.6, 279.3 110.6, 277.3 116.6" fill="none" stroke="#1d4ed8" stroke-width="1.2"/></g><g><circle cx="284.6" cy="112.6" r="4.3" fill="#fff7ed" stroke="#1d4ed8" stroke-width="2"><title>2026-07-06: 86 users</title></circle><path d="M 280.6 113.6 C 283.6 107.6, 289.6 110.6, 287.6 116.6" fill="none" stroke="#1d4ed8" stroke-width="1.2"/></g><g><circle cx="294.9" cy="108.8" r="4.3" fill="#fff7ed" stroke="#1d4ed8" stroke-width="2"><title>2026-07-07: 91 users</title></circle><path d="M 290.9 109.8 C 293.9 103.8, 299.9 106.8, 297.9 112.8" fill="none" stroke="#1d4ed8" stroke-width="1.2"/></g><g><circle cx="305.1" cy="108.8" r="4.3" fill="#fff7ed" stroke="#1d4ed8" stroke-width="2"><title>2026-07-08: 91 users</title></circle><path d="M 301.1 109.8 C 304.1 103.8, 310.1 106.8, 308.1 112.8" fill="none" stroke="#1d4ed8" stroke-width="1.2"/></g><g><circle cx="315.4" cy="108.8" r="4.3" fill="#fff7ed" stroke="#1d4ed8" stroke-width="2"><title>2026-07-09: 91 users</title></circle><path d="M 311.4 109.8 C 314.4 103.8, 320.4 106.8, 318.4 112.8" fill="none" stroke="#1d4ed8" stroke-width="1.2"/></g><g><circle cx="325.7" cy="108.8" r="4.3" fill="#fff7ed" stroke="#1d4ed8" stroke-width="2"><title>2026-07-10: 91 users</title></circle><path d="M 321.7 109.8 C 324.7 103.8, 330.7 106.8, 328.7 112.8" fill="none" stroke="#1d4ed8" stroke-width="1.2"/></g><g><circle cx="336.0" cy="106.5" r="4.3" fill="#fff7ed" stroke="#1d4ed8" stroke-width="2"><title>2026-07-11: 94 users</title></circle><path d="M 332.0 107.5 C 335.0 101.5, 341.0 104.5, 339.0 110.5" fill="none" stroke="#1d4ed8" stroke-width="1.2"/></g><g><circle cx="346.3" cy="106.5" r="4.3" fill="#fff7ed" stroke="#1d4ed8" stroke-width="2"><title>2026-07-12: 94 users</title></circle><path d="M 342.3 107.5 C 345.3 101.5, 351.3 104.5, 349.3 110.5" fill="none" stroke="#1d4ed8" stroke-width="1.2"/></g><g><circle cx="356.6" cy="109.5" r="4.3" fill="#fff7ed" stroke="#1d4ed8" stroke-width="2"><title>2026-07-13: 90 users</title></circle><path d="M 352.6 110.5 C 355.6 104.5, 361.6 107.5, 359.6 113.5" fill="none" stroke="#1d4ed8" stroke-width="1.2"/></g><g><circle cx="366.9" cy="109.5" r="4.3" fill="#fff7ed" stroke="#1d4ed8" stroke-width="2"><title>2026-07-14: 90 users</title></circle><path d="M 362.9 110.5 C 365.9 104.5, 371.9 107.5, 369.9 113.5" fill="none" stroke="#1d4ed8" stroke-width="1.2"/></g><g><circle cx="377.1" cy="109.5" r="4.3" fill="#fff7ed" stroke="#1d4ed8" stroke-width="2"><title>2026-07-15: 90 users</title></circle><path d="M 373.1 110.5 C 376.1 104.5, 382.1 107.5, 380.1 113.5" fill="none" stroke="#1d4ed8" stroke-width="1.2"/></g><g><circle cx="387.4" cy="109.5" r="4.3" fill="#fff7ed" stroke="#1d4ed8" stroke-width="2"><title>2026-07-16: 90 users</title></circle><path d="M 383.4 110.5 C 386.4 104.5, 392.4 107.5, 390.4 113.5" fill="none" stroke="#1d4ed8" stroke-width="1.2"/></g><g><circle cx="397.7" cy="109.5" r="4.3" fill="#fff7ed" stroke="#1d4ed8" stroke-width="2"><title>2026-07-17: 90 users</title></circle><path d="M 393.7 110.5 C 396.7 104.5, 402.7 107.5, 400.7 113.5" fill="none" stroke="#1d4ed8" stroke-width="1.2"/></g><g><circle cx="408.0" cy="100.4" r="4.3" fill="#fff7ed" stroke="#1d4ed8" stroke-width="2"><title>2026-07-18: 102 users</title></circle><path d="M 404.0 101.4 C 407.0 95.4, 413.0 98.4, 411.0 104.4" fill="none" stroke="#1d4ed8" stroke-width="1.2"/></g><g><circle cx="418.3" cy="95.8" r="4.3" fill="#fff7ed" stroke="#1d4ed8" stroke-width="2"><title>2026-07-19: 108 users</title></circle><path d="M 414.3 96.8 C 417.3 90.8, 423.3 93.8, 421.3 99.8" fill="none" stroke="#1d4ed8" stroke-width="1.2"/></g><g><circle cx="428.6" cy="95.8" r="4.3" fill="#fff7ed" stroke="#1d4ed8" stroke-width="2"><title>2026-07-20: 108 users</title></circle><path d="M 424.6 96.8 C 427.6 90.8, 433.6 93.8, 431.6 99.8" fill="none" stroke="#1d4ed8" stroke-width="1.2"/></g><g><circle cx="438.9" cy="92.0" r="4.3" fill="#fff7ed" stroke="#1d4ed8" stroke-width="2"><title>2026-07-21: 113 users</title></circle><path d="M 434.9 93.0 C 437.9 87.0, 443.9 90.0, 441.9 96.0" fill="none" stroke="#1d4ed8" stroke-width="1.2"/></g><g><circle cx="449.1" cy="85.2" r="4.3" fill="#fff7ed" stroke="#1d4ed8" stroke-width="2"><title>2026-07-22: 122 users</title></circle><path d="M 445.1 86.2 C 448.1 80.2, 454.1 83.2, 452.1 89.2" fill="none" stroke="#1d4ed8" stroke-width="1.2"/></g><g><circle cx="459.4" cy="85.2" r="4.3" fill="#fff7ed" stroke="#1d4ed8" stroke-width="2"><title>2026-07-23: 122 users</title></circle><path d="M 455.4 86.2 C 458.4 80.2, 464.4 83.2, 462.4 89.2" fill="none" stroke="#1d4ed8" stroke-width="1.2"/></g><g><circle cx="469.7" cy="82.9" r="4.3" fill="#fff7ed" stroke="#1d4ed8" stroke-width="2"><title>2026-07-24: 125 users</title></circle><path d="M 465.7 83.9 C 468.7 77.9, 474.7 80.9, 472.7 86.9" fill="none" stroke="#1d4ed8" stroke-width="1.2"/></g><g><circle cx="480.0" cy="84.4" r="4.3" fill="#fff7ed" stroke="#1d4ed8" stroke-width="2"><title>2026-07-25: 123 users</title></circle><path d="M 476.0 85.4 C 479.0 79.4, 485.0 82.4, 483.0 88.4" fill="none" stroke="#1d4ed8" stroke-width="1.2"/></g><g><circle cx="490.3" cy="84.4" r="4.3" fill="#fff7ed" stroke="#1d4ed8" stroke-width="2"><title>2026-07-26: 123 users</title></circle><path d="M 486.3 85.4 C 489.3 79.4, 495.3 82.4, 493.3 88.4" fill="none" stroke="#1d4ed8" stroke-width="1.2"/></g><g><circle cx="500.6" cy="84.4" r="4.3" fill="#fff7ed" stroke="#1d4ed8" stroke-width="2"><title>2026-07-27: 123 users</title></circle><path d="M 496.6 85.4 C 499.6 79.4, 505.6 82.4, 503.6 88.4" fill="none" stroke="#1d4ed8" stroke-width="1.2"/></g><g><circle cx="510.9" cy="79.8" r="4.3" fill="#fff7ed" stroke="#1d4ed8" stroke-width="2"><title>2026-07-28: 129 users</title></circle><path d="M 506.9 80.8 C 509.9 74.8, 515.9 77.8, 513.9 83.8" fill="none" stroke="#1d4ed8" stroke-width="1.2"/></g><g><circle cx="521.1" cy="79.8" r="4.3" fill="#fff7ed" stroke="#1d4ed8" stroke-width="2"><title>2026-07-29: 129 users</title></circle><path d="M 517.1 80.8 C 520.1 74.8, 526.1 77.8, 524.1 83.8" fill="none" stroke="#1d4ed8" stroke-width="1.2"/></g><g><circle cx="531.4" cy="80.6" r="4.3" fill="#fff7ed" stroke="#1d4ed8" stroke-width="2"><title>2026-07-30: 128 users</title></circle><path d="M 527.4 81.6 C 530.4 75.6, 536.4 78.6, 534.4 84.6" fill="none" stroke="#1d4ed8" stroke-width="1.2"/></g><g><circle cx="541.7" cy="80.6" r="4.3" fill="#fff7ed" stroke="#1d4ed8" stroke-width="2"><title>2026-07-31: 128 users</title></circle><path d="M 537.7 81.6 C 540.7 75.6, 546.7 78.6, 544.7 84.6" fill="none" stroke="#1d4ed8" stroke-width="1.2"/></g><g><circle cx="552.0" cy="73.8" r="4.3" fill="#fff7ed" stroke="#1d4ed8" stroke-width="2"><title>2026-08-01: 137 users</title></circle><path d="M 548.0 74.8 C 551.0 68.8, 557.0 71.8, 555.0 77.8" fill="none" stroke="#1d4ed8" stroke-width="1.2"/></g><g><circle cx="562.3" cy="71.5" r="4.3" fill="#fff7ed" stroke="#1d4ed8" stroke-width="2"><title>2026-08-02: 140 users</title></circle><path d="M 558.3 72.5 C 561.3 66.5, 567.3 69.5, 565.3 75.5" fill="none" stroke="#1d4ed8" stroke-width="1.2"/></g><g><circle cx="572.6" cy="70.7" r="4.3" fill="#fff7ed" stroke="#1d4ed8" stroke-width="2"><title>2026-08-03: 141 users</title></circle><path d="M 568.6 71.7 C 571.6 65.7, 577.6 68.7, 575.6 74.7" fill="none" stroke="#1d4ed8" stroke-width="1.2"/></g><g><circle cx="582.9" cy="70.7" r="4.3" fill="#fff7ed" stroke="#1d4ed8" stroke-width="2"><title>2026-08-04: 141 users</title></circle><path d="M 578.9 71.7 C 581.9 65.7, 587.9 68.7, 585.9 74.7" fill="none" stroke="#1d4ed8" stroke-width="1.2"/></g><g><circle cx="593.1" cy="70.0" r="4.3" fill="#fff7ed" stroke="#1d4ed8" stroke-width="2"><title>2026-08-06: 142 users</title></circle><path d="M 589.1 71.0 C 592.1 65.0, 598.1 68.0, 596.1 74.0" fill="none" stroke="#1d4ed8" stroke-width="1.2"/></g><g><circle cx="603.4" cy="72.2" r="4.3" fill="#fff7ed" stroke="#1d4ed8" stroke-width="2"><title>2026-08-07: 139 users</title></circle><path d="M 599.4 73.2 C 602.4 67.2, 608.4 70.2, 606.4 76.2" fill="none" stroke="#1d4ed8" stroke-width="1.2"/></g><g><circle cx="613.7" cy="68.4" r="4.3" fill="#fff7ed" stroke="#1d4ed8" stroke-width="2"><title>2026-08-08: 144 users</title></circle><path d="M 609.7 69.4 C 612.7 63.4, 618.7 66.4, 616.7 72.4" fill="none" stroke="#1d4ed8" stroke-width="1.2"/></g><g><circle cx="624.0" cy="66.9" r="4.3" fill="#fff7ed" stroke="#1d4ed8" stroke-width="2"><title>2026-08-09: 146 users</title></circle><path d="M 620.0 67.9 C 623.0 61.9, 629.0 64.9, 627.0 70.9" fill="none" stroke="#1d4ed8" stroke-width="1.2"/></g><g><circle cx="634.3" cy="66.9" r="4.3" fill="#fff7ed" stroke="#1d4ed8" stroke-width="2"><title>2026-08-10: 146 users</title></circle><path d="M 630.3 67.9 C 633.3 61.9, 639.3 64.9, 637.3 70.9" fill="none" stroke="#1d4ed8" stroke-width="1.2"/></g><g><circle cx="644.6" cy="66.9" r="4.3" fill="#fff7ed" stroke="#1d4ed8" stroke-width="2"><title>2026-08-11: 146 users</title></circle><path d="M 640.6 67.9 C 643.6 61.9, 649.6 64.9, 647.6 70.9" fill="none" stroke="#1d4ed8" stroke-width="1.2"/></g><g><circle cx="654.9" cy="64.6" r="4.3" fill="#fff7ed" stroke="#1d4ed8" stroke-width="2"><title>2026-08-12: 149 users</title></circle><path d="M 650.9 65.6 C 653.9 59.6, 659.9 62.6, 657.9 68.6" fill="none" stroke="#1d4ed8" stroke-width="1.2"/></g><g><circle cx="665.1" cy="64.6" r="4.3" fill="#fff7ed" stroke="#1d4ed8" stroke-width="2"><title>2026-08-13: 149 users</title></circle><path d="M 661.1 65.6 C 664.1 59.6, 670.1 62.6, 668.1 68.6" fill="none" stroke="#1d4ed8" stroke-width="1.2"/></g><g><circle cx="675.4" cy="64.6" r="4.3" fill="#fff7ed" stroke="#1d4ed8" stroke-width="2"><title>2026-08-14: 149 users</title></circle><path d="M 671.4 65.6 C 674.4 59.6, 680.4 62.6, 678.4 68.6" fill="none" stroke="#1d4ed8" stroke-width="1.2"/></g><g><circle cx="685.7" cy="57.8" r="4.3" fill="#fff7ed" stroke="#1d4ed8" stroke-width="2"><title>2026-08-15: 158 users</title></circle><path d="M 681.7 58.8 C 684.7 52.8, 690.7 55.8, 688.7 61.8" fill="none" stroke="#1d4ed8" stroke-width="1.2"/></g><g><circle cx="696.0" cy="56.3" r="4.3" fill="#fff7ed" stroke="#1d4ed8" stroke-width="2"><title>2026-08-16: 160 users</title></circle><path d="M 692.0 57.3 C 695.0 51.3, 701.0 54.3, 699.0 60.3" fill="none" stroke="#1d4ed8" stroke-width="1.2"/></g>
  <text x="48" y="206" fill="#57534e" font-family="'Comic Sans MS', 'Segoe Print', cursive" font-size="11">2026-06-13</text>
  <text x="696" y="206" fill="#57534e" font-family="'Comic Sans MS', 'Segoe Print', cursive" font-size="11" text-anchor="end">2026-08-16</text>
</svg>
