<svg xmlns="http://www.w3.org/2000/svg" width="720" height="220" viewBox="0 0 720 220" role="img" aria-label="Chrome Web Store users trend">
  <rect width="720" height="220" rx="8" fill="#fffdf7"/>
  <path d="M 11 8 C 190 3, 512 7, 710 11 M 714 11 C 717 74, 715 151, 711 211 M 708 214 C 523 218, 177 216, 12 211 M 9 211 C 4 145, 7 78, 11 8" fill="none" stroke="#292524" stroke-width="1.3" opacity="0.7"/>
  <text x="24" y="24" fill="#1c1917" font-family="'Comic Sans MS', 'Segoe Print', cursive" font-size="16" font-weight="700">Chrome Web Store users</text>
  <text x="696" y="24" fill="#1d4ed8" font-family="'Comic Sans MS', 'Segoe Print', cursive" font-size="16" font-weight="700" text-anchor="end">188 users</text>
  <text x="696" y="43" fill="#57534e" font-family="'Comic Sans MS', 'Segoe Print', cursive" font-size="11" text-anchor="end">Data through 2026-08-30</text>
  <g><path d="M 48 37.1 C 228 38.9, 468 37.1, 696 38.9" fill="none" stroke="#d6d3c8" stroke-width="1.1"/><text x="38" y="42" text-anchor="end" fill="#57534e" font-size="11">217</text></g>
  <g><path d="M 48 109.4 C 228 106.6, 468 109.4, 696 106.6" fill="none" stroke="#d6d3c8" stroke-width="1.1"/><text x="38" y="112" text-anchor="end" fill="#57534e" font-size="11">109</text></g>
  <g><path d="M 48 177.1 C 228 178.9, 468 177.1, 696 178.9" fill="none" stroke="#d6d3c8" stroke-width="1.1"/><text x="38" y="182" text-anchor="end" fill="#57534e" font-size="11">0</text></g>
  <path d="M 48 36 C 44 98, 50 156, 48 178" fill="none" stroke="#292524" stroke-width="1.4"/>
  <path d="M 46 178 C 218 182, 478 175, 696 179" fill="none" stroke="#292524" stroke-width="1.4"/>
  <path d="M 48.0 150.4 L 56.4 147.5 L 64.8 149.1 L 73.2 144.3 L 81.7 145.9 L 90.1 141.7 L 98.5 143.3 L 106.9 141.1 L 115.3 142.0 L 123.7 140.4 L 132.2 139.4 L 140.6 136.6 L 149.0 134.3 L 157.4 132.7 L 165.8 132.3 L 174.2 130.7 L 182.6 128.5 L 191.1 123.0 L 199.5 124.6 L 207.9 124.3 L 216.3 126.5 L 224.7 124.3 L 233.1 123.3 L 241.6 121.7 L 250.0 120.1 L 258.4 118.5 L 266.8 120.1 L 275.2 118.5 L 283.6 118.2 L 292.1 116.6 L 300.5 120.7 L 308.9 119.1 L 317.3 120.7 L 325.7 119.1 L 334.1 120.7 L 342.5 111.4 L 351.0 109.1 L 359.4 107.5 L 367.8 105.9 L 376.2 98.5 L 384.6 100.1 L 393.0 96.6 L 401.5 99.4 L 409.9 97.8 L 418.3 99.4 L 426.7 94.0 L 435.1 95.6 L 443.5 94.6 L 451.9 96.2 L 460.4 88.8 L 468.8 88.5 L 477.2 86.2 L 485.6 87.8 L 494.0 85.6 L 502.4 89.1 L 510.9 84.3 L 519.3 84.6 L 527.7 83.0 L 536.1 84.6 L 544.5 81.1 L 552.9 82.7 L 561.4 81.1 L 569.8 76.9 L 578.2 74.0 L 586.6 75.6 L 595.0 74.0 L 603.4 75.6 L 611.8 70.7 L 620.3 72.3 L 628.7 68.8 L 637.1 70.4 L 645.5 64.9 L 653.9 64.0 L 662.3 61.7 L 670.8 60.7 L 679.2 58.5 L 687.6 59.4 L 696.0 55.9" fill="none" stroke="#2563eb" stroke-width="3.6" stroke-linecap="round" stroke-linejoin="round"/>
  <path d="M 48.0 148.9 L 56.4 149.0 L 64.8 147.6 L 73.2 145.8 L 81.7 144.4 L 90.1 143.2 L 98.5 141.8 L 106.9 142.6 L 115.3 140.5 L 123.7 141.9 L 132.2 137.9 L 140.6 138.1 L 149.0 132.8 L 157.4 134.2 L 165.8 130.8 L 174.2 132.2 L 182.6 127.0 L 191.1 124.5 L 199.5 123.1 L 207.9 125.8 L 216.3 125.0 L 224.7 125.8 L 233.1 121.8 L 241.6 123.2 L 250.0 118.6 L 258.4 120.0 L 266.8 118.6 L 275.2 120.0 L 283.6 116.7 L 292.1 118.1 L 300.5 119.2 L 308.9 120.6 L 317.3 119.2 L 325.7 120.6 L 334.1 119.2 L 342.5 112.9 L 351.0 107.6 L 359.4 109.0 L 367.8 104.4 L 376.2 100.0 L 384.6 98.6 L 393.0 98.1 L 401.5 97.9 L 409.9 99.3 L 418.3 97.9 L 426.7 95.5 L 435.1 94.1 L 443.5 96.1 L 451.9 94.7 L 460.4 90.3 L 468.8 87.0 L 477.2 87.7 L 485.6 86.3 L 494.0 87.1 L 502.4 87.6 L 510.9 85.8 L 519.3 83.1 L 527.7 84.5 L 536.1 83.1 L 544.5 82.6 L 552.9 81.2 L 561.4 82.6 L 569.8 75.4 L 578.2 75.5 L 586.6 74.1 L 595.0 75.5 L 603.4 74.1 L 611.8 72.2 L 620.3 70.8 L 628.7 70.3 L 637.1 68.9 L 645.5 66.4 L 653.9 62.5 L 662.3 63.2 L 670.8 59.2 L 679.2 60.0 L 687.6 57.9 L 696.0 57.4" fill="none" stroke="#60a5fa" stroke-width="1.6" stroke-linecap="round" stroke-linejoin="round" opacity="0.85"/>
  <g><circle cx="48.0" cy="149.6" r="4.3" fill="#fff7ed" stroke="#1d4ed8" stroke-width="2"><title>2026-06-13: 44 users</title></circle><path d="M 44.0 150.6 C 47.0 144.6, 53.0 147.6, 51.0 153.6" fill="none" stroke="#1d4ed8" stroke-width="1.2"/></g><g><circle cx="56.4" cy="148.3" r="4.3" fill="#fff7ed" stroke="#1d4ed8" stroke-width="2"><title>2026-06-14: 46 users</title></circle><path d="M 52.4 149.3 C 55.4 143.3, 61.4 146.3, 59.4 152.3" fill="none" stroke="#1d4ed8" stroke-width="1.2"/></g><g><circle cx="64.8" cy="148.3" r="4.3" fill="#fff7ed" stroke="#1d4ed8" stroke-width="2"><title>2026-06-15: 46 users</title></circle><path d="M 60.8 149.3 C 63.8 143.3, 69.8 146.3, 67.8 152.3" fill="none" stroke="#1d4ed8" stroke-width="1.2"/></g><g><circle cx="73.2" cy="145.1" r="4.3" fill="#fff7ed" stroke="#1d4ed8" stroke-width="2"><title>2026-06-16: 51 users</title></circle><path d="M 69.2 146.1 C 72.2 140.1, 78.2 143.1, 76.2 149.1" fill="none" stroke="#1d4ed8" stroke-width="1.2"/></g><g><circle cx="81.7" cy="145.1" r="4.3" fill="#fff7ed" stroke="#1d4ed8" stroke-width="2"><title>2026-06-17: 51 users</title></circle><path d="M 77.7 146.1 C 80.7 140.1, 86.7 143.1, 84.7 149.1" fill="none" stroke="#1d4ed8" stroke-width="1.2"/></g><g><circle cx="90.1" cy="142.5" r="4.3" fill="#fff7ed" stroke="#1d4ed8" stroke-width="2"><title>2026-06-18: 55 users</title></circle><path d="M 86.1 143.5 C 89.1 137.5, 95.1 140.5, 93.1 146.5" fill="none" stroke="#1d4ed8" stroke-width="1.2"/></g><g><circle cx="98.5" cy="142.5" r="4.3" fill="#fff7ed" stroke="#1d4ed8" stroke-width="2"><title>2026-06-19: 55 users</title></circle><path d="M 94.5 143.5 C 97.5 137.5, 103.5 140.5, 101.5 146.5" fill="none" stroke="#1d4ed8" stroke-width="1.2"/></g><g><circle cx="106.9" cy="141.9" r="4.3" fill="#fff7ed" stroke="#1d4ed8" stroke-width="2"><title>2026-06-20: 56 users</title></circle><path d="M 102.9 142.9 C 105.9 136.9, 111.9 139.9, 109.9 145.9" fill="none" stroke="#1d4ed8" stroke-width="1.2"/></g><g><circle cx="115.3" cy="141.2" r="4.3" fill="#fff7ed" stroke="#1d4ed8" stroke-width="2"><title>2026-06-21: 57 users</title></circle><path d="M 111.3 142.2 C 114.3 136.2, 120.3 139.2, 118.3 145.2" fill="none" stroke="#1d4ed8" stroke-width="1.2"/></g><g><circle cx="123.7" cy="141.2" r="4.3" fill="#fff7ed" stroke="#1d4ed8" stroke-width="2"><title>2026-06-22: 57 users</title></circle><path d="M 119.7 142.2 C 122.7 136.2, 128.7 139.2, 126.7 145.2" fill="none" stroke="#1d4ed8" stroke-width="1.2"/></g><g><circle cx="132.2" cy="138.6" r="4.3" fill="#fff7ed" stroke="#1d4ed8" stroke-width="2"><title>2026-06-23: 61 users</title></circle><path d="M 128.2 139.6 C 131.2 133.6, 137.2 136.6, 135.2 142.6" fill="none" stroke="#1d4ed8" stroke-width="1.2"/></g><g><circle cx="140.6" cy="137.4" r="4.3" fill="#fff7ed" stroke="#1d4ed8" stroke-width="2"><title>2026-06-24: 63 users</title></circle><path d="M 136.6 138.4 C 139.6 132.4, 145.6 135.4, 143.6 141.4" fill="none" stroke="#1d4ed8" stroke-width="1.2"/></g><g><circle cx="149.0" cy="133.5" r="4.3" fill="#fff7ed" stroke="#1d4ed8" stroke-width="2"><title>2026-06-25: 69 users</title></circle><path d="M 145.0 134.5 C 148.0 128.5, 154.0 131.5, 152.0 137.5" fill="none" stroke="#1d4ed8" stroke-width="1.2"/></g><g><circle cx="157.4" cy="133.5" r="4.3" fill="#fff7ed" stroke="#1d4ed8" stroke-width="2"><title>2026-06-26: 69 users</title></circle><path d="M 153.4 134.5 C 156.4 128.5, 162.4 131.5, 160.4 137.5" fill="none" stroke="#1d4ed8" stroke-width="1.2"/></g><g><circle cx="165.8" cy="131.5" r="4.3" fill="#fff7ed" stroke="#1d4ed8" stroke-width="2"><title>2026-06-27: 72 users</title></circle><path d="M 161.8 132.5 C 164.8 126.5, 170.8 129.5, 168.8 135.5" fill="none" stroke="#1d4ed8" stroke-width="1.2"/></g><g><circle cx="174.2" cy="131.5" r="4.3" fill="#fff7ed" stroke="#1d4ed8" stroke-width="2"><title>2026-06-28: 72 users</title></circle><path d="M 170.2 132.5 C 173.2 126.5, 179.2 129.5, 177.2 135.5" fill="none" stroke="#1d4ed8" stroke-width="1.2"/></g><g><circle cx="182.6" cy="127.7" r="4.3" fill="#fff7ed" stroke="#1d4ed8" stroke-width="2"><title>2026-06-29: 78 users</title></circle><path d="M 178.6 128.7 C 181.6 122.7, 187.6 125.7, 185.6 131.7" fill="none" stroke="#1d4ed8" stroke-width="1.2"/></g><g><circle cx="191.1" cy="123.8" r="4.3" fill="#fff7ed" stroke="#1d4ed8" stroke-width="2"><title>2026-06-30: 84 users</title></circle><path d="M 187.1 124.8 C 190.1 118.8, 196.1 121.8, 194.1 127.8" fill="none" stroke="#1d4ed8" stroke-width="1.2"/></g><g><circle cx="199.5" cy="123.8" r="4.3" fill="#fff7ed" stroke="#1d4ed8" stroke-width="2"><title>2026-07-01: 84 users</title></circle><path d="M 195.5 124.8 C 198.5 118.8, 204.5 121.8, 202.5 127.8" fill="none" stroke="#1d4ed8" stroke-width="1.2"/></g><g><circle cx="207.9" cy="125.1" r="4.3" fill="#fff7ed" stroke="#1d4ed8" stroke-width="2"><title>2026-07-02: 82 users</title></circle><path d="M 203.9 126.1 C 206.9 120.1, 212.9 123.1, 210.9 129.1" fill="none" stroke="#1d4ed8" stroke-width="1.2"/></g><g><circle cx="216.3" cy="125.7" r="4.3" fill="#fff7ed" stroke="#1d4ed8" stroke-width="2"><title>2026-07-03: 81 users</title></circle><path d="M 212.3 126.7 C 215.3 120.7, 221.3 123.7, 219.3 129.7" fill="none" stroke="#1d4ed8" stroke-width="1.2"/></g><g><circle cx="224.7" cy="125.1" r="4.3" fill="#fff7ed" stroke="#1d4ed8" stroke-width="2"><title>2026-07-04: 82 users</title></circle><path d="M 220.7 126.1 C 223.7 120.1, 229.7 123.1, 227.7 129.1" fill="none" stroke="#1d4ed8" stroke-width="1.2"/></g><g><circle cx="233.1" cy="122.5" r="4.3" fill="#fff7ed" stroke="#1d4ed8" stroke-width="2"><title>2026-07-05: 86 users</title></circle><path d="M 229.1 123.5 C 232.1 117.5, 238.1 120.5, 236.1 126.5" fill="none" stroke="#1d4ed8" stroke-width="1.2"/></g><g><circle cx="241.6" cy="122.5" r="4.3" fill="#fff7ed" stroke="#1d4ed8" stroke-width="2"><title>2026-07-06: 86 users</title></circle><path d="M 237.6 123.5 C 240.6 117.5, 246.6 120.5, 244.6 126.5" fill="none" stroke="#1d4ed8" stroke-width="1.2"/></g><g><circle cx="250.0" cy="119.3" r="4.3" fill="#fff7ed" stroke="#1d4ed8" stroke-width="2"><title>2026-07-07: 91 users</title></circle><path d="M 246.0 120.3 C 249.0 114.3, 255.0 117.3, 253.0 123.3" fill="none" stroke="#1d4ed8" stroke-width="1.2"/></g><g><circle cx="258.4" cy="119.3" r="4.3" fill="#fff7ed" stroke="#1d4ed8" stroke-width="2"><title>2026-07-08: 91 users</title></circle><path d="M 254.4 120.3 C 257.4 114.3, 263.4 117.3, 261.4 123.3" fill="none" stroke="#1d4ed8" stroke-width="1.2"/></g><g><circle cx="266.8" cy="119.3" r="4.3" fill="#fff7ed" stroke="#1d4ed8" stroke-width="2"><title>2026-07-09: 91 users</title></circle><path d="M 262.8 120.3 C 265.8 114.3, 271.8 117.3, 269.8 123.3" fill="none" stroke="#1d4ed8" stroke-width="1.2"/></g><g><circle cx="275.2" cy="119.3" r="4.3" fill="#fff7ed" stroke="#1d4ed8" stroke-width="2"><title>2026-07-10: 91 users</title></circle><path d="M 271.2 120.3 C 274.2 114.3, 280.2 117.3, 278.2 123.3" fill="none" stroke="#1d4ed8" stroke-width="1.2"/></g><g><circle cx="283.6" cy="117.4" r="4.3" fill="#fff7ed" stroke="#1d4ed8" stroke-width="2"><title>2026-07-11: 94 users</title></circle><path d="M 279.6 118.4 C 282.6 112.4, 288.6 115.4, 286.6 121.4" fill="none" stroke="#1d4ed8" stroke-width="1.2"/></g><g><circle cx="292.1" cy="117.4" r="4.3" fill="#fff7ed" stroke="#1d4ed8" stroke-width="2"><title>2026-07-12: 94 users</title></circle><path d="M 288.1 118.4 C 291.1 112.4, 297.1 115.4, 295.1 121.4" fill="none" stroke="#1d4ed8" stroke-width="1.2"/></g><g><circle cx="300.5" cy="119.9" r="4.3" fill="#fff7ed" stroke="#1d4ed8" stroke-width="2"><title>2026-07-13: 90 users</title></circle><path d="M 296.5 120.9 C 299.5 114.9, 305.5 117.9, 303.5 123.9" fill="none" stroke="#1d4ed8" stroke-width="1.2"/></g><g><circle cx="308.9" cy="119.9" r="4.3" fill="#fff7ed" stroke="#1d4ed8" stroke-width="2"><title>2026-07-14: 90 users</title></circle><path d="M 304.9 120.9 C 307.9 114.9, 313.9 117.9, 311.9 123.9" fill="none" stroke="#1d4ed8" stroke-width="1.2"/></g><g><circle cx="317.3" cy="119.9" r="4.3" fill="#fff7ed" stroke="#1d4ed8" stroke-width="2"><title>2026-07-15: 90 users</title></circle><path d="M 313.3 120.9 C 316.3 114.9, 322.3 117.9, 320.3 123.9" fill="none" stroke="#1d4ed8" stroke-width="1.2"/></g><g><circle cx="325.7" cy="119.9" r="4.3" fill="#fff7ed" stroke="#1d4ed8" stroke-width="2"><title>2026-07-16: 90 users</title></circle><path d="M 321.7 120.9 C 324.7 114.9, 330.7 117.9, 328.7 123.9" fill="none" stroke="#1d4ed8" stroke-width="1.2"/></g><g><circle cx="334.1" cy="119.9" r="4.3" fill="#fff7ed" stroke="#1d4ed8" stroke-width="2"><title>2026-07-17: 90 users</title></circle><path d="M 330.1 120.9 C 333.1 114.9, 339.1 117.9, 337.1 123.9" fill="none" stroke="#1d4ed8" stroke-width="1.2"/></g><g><circle cx="342.5" cy="112.2" r="4.3" fill="#fff7ed" stroke="#1d4ed8" stroke-width="2"><title>2026-07-18: 102 users</title></circle><path d="M 338.5 113.2 C 341.5 107.2, 347.5 110.2, 345.5 116.2" fill="none" stroke="#1d4ed8" stroke-width="1.2"/></g><g><circle cx="351.0" cy="108.3" r="4.3" fill="#fff7ed" stroke="#1d4ed8" stroke-width="2"><title>2026-07-19: 108 users</title></circle><path d="M 347.0 109.3 C 350.0 103.3, 356.0 106.3, 354.0 112.3" fill="none" stroke="#1d4ed8" stroke-width="1.2"/></g><g><circle cx="359.4" cy="108.3" r="4.3" fill="#fff7ed" stroke="#1d4ed8" stroke-width="2"><title>2026-07-20: 108 users</title></circle><path d="M 355.4 109.3 C 358.4 103.3, 364.4 106.3, 362.4 112.3" fill="none" stroke="#1d4ed8" stroke-width="1.2"/></g><g><circle cx="367.8" cy="105.1" r="4.3" fill="#fff7ed" stroke="#1d4ed8" stroke-width="2"><title>2026-07-21: 113 users</title></circle><path d="M 363.8 106.1 C 366.8 100.1, 372.8 103.1, 370.8 109.1" fill="none" stroke="#1d4ed8" stroke-width="1.2"/></g><g><circle cx="376.2" cy="99.3" r="4.3" fill="#fff7ed" stroke="#1d4ed8" stroke-width="2"><title>2026-07-22: 122 users</title></circle><path d="M 372.2 100.3 C 375.2 94.3, 381.2 97.3, 379.2 103.3" fill="none" stroke="#1d4ed8" stroke-width="1.2"/></g><g><circle cx="384.6" cy="99.3" r="4.3" fill="#fff7ed" stroke="#1d4ed8" stroke-width="2"><title>2026-07-23: 122 users</title></circle><path d="M 380.6 100.3 C 383.6 94.3, 389.6 97.3, 387.6 103.3" fill="none" stroke="#1d4ed8" stroke-width="1.2"/></g><g><circle cx="393.0" cy="97.4" r="4.3" fill="#fff7ed" stroke="#1d4ed8" stroke-width="2"><title>2026-07-24: 125 users</title></circle><path d="M 389.0 98.4 C 392.0 92.4, 398.0 95.4, 396.0 101.4" fill="none" stroke="#1d4ed8" stroke-width="1.2"/></g><g><circle cx="401.5" cy="98.6" r="4.3" fill="#fff7ed" stroke="#1d4ed8" stroke-width="2"><title>2026-07-25: 123 users</title></circle><path d="M 397.5 99.6 C 400.5 93.6, 406.5 96.6, 404.5 102.6" fill="none" stroke="#1d4ed8" stroke-width="1.2"/></g><g><circle cx="409.9" cy="98.6" r="4.3" fill="#fff7ed" stroke="#1d4ed8" stroke-width="2"><title>2026-07-26: 123 users</title></circle><path d="M 405.9 99.6 C 408.9 93.6, 414.9 96.6, 412.9 102.6" fill="none" stroke="#1d4ed8" stroke-width="1.2"/></g><g><circle cx="418.3" cy="98.6" r="4.3" fill="#fff7ed" stroke="#1d4ed8" stroke-width="2"><title>2026-07-27: 123 users</title></circle><path d="M 414.3 99.6 C 417.3 93.6, 423.3 96.6, 421.3 102.6" fill="none" stroke="#1d4ed8" stroke-width="1.2"/></g><g><circle cx="426.7" cy="94.8" r="4.3" fill="#fff7ed" stroke="#1d4ed8" stroke-width="2"><title>2026-07-28: 129 users</title></circle><path d="M 422.7 95.8 C 425.7 89.8, 431.7 92.8, 429.7 98.8" fill="none" stroke="#1d4ed8" stroke-width="1.2"/></g><g><circle cx="435.1" cy="94.8" r="4.3" fill="#fff7ed" stroke="#1d4ed8" stroke-width="2"><title>2026-07-29: 129 users</title></circle><path d="M 431.1 95.8 C 434.1 89.8, 440.1 92.8, 438.1 98.8" fill="none" stroke="#1d4ed8" stroke-width="1.2"/></g><g><circle cx="443.5" cy="95.4" r="4.3" fill="#fff7ed" stroke="#1d4ed8" stroke-width="2"><title>2026-07-30: 128 users</title></circle><path d="M 439.5 96.4 C 442.5 90.4, 448.5 93.4, 446.5 99.4" fill="none" stroke="#1d4ed8" stroke-width="1.2"/></g><g><circle cx="451.9" cy="95.4" r="4.3" fill="#fff7ed" stroke="#1d4ed8" stroke-width="2"><title>2026-07-31: 128 users</title></circle><path d="M 447.9 96.4 C 450.9 90.4, 456.9 93.4, 454.9 99.4" fill="none" stroke="#1d4ed8" stroke-width="1.2"/></g><g><circle cx="460.4" cy="89.6" r="4.3" fill="#fff7ed" stroke="#1d4ed8" stroke-width="2"><title>2026-08-01: 137 users</title></circle><path d="M 456.4 90.6 C 459.4 84.6, 465.4 87.6, 463.4 93.6" fill="none" stroke="#1d4ed8" stroke-width="1.2"/></g><g><circle cx="468.8" cy="87.7" r="4.3" fill="#fff7ed" stroke="#1d4ed8" stroke-width="2"><title>2026-08-02: 140 users</title></circle><path d="M 464.8 88.7 C 467.8 82.7, 473.8 85.7, 471.8 91.7" fill="none" stroke="#1d4ed8" stroke-width="1.2"/></g><g><circle cx="477.2" cy="87.0" r="4.3" fill="#fff7ed" stroke="#1d4ed8" stroke-width="2"><title>2026-08-03: 141 users</title></circle><path d="M 473.2 88.0 C 476.2 82.0, 482.2 85.0, 480.2 91.0" fill="none" stroke="#1d4ed8" stroke-width="1.2"/></g><g><circle cx="485.6" cy="87.0" r="4.3" fill="#fff7ed" stroke="#1d4ed8" stroke-width="2"><title>2026-08-04: 141 users</title></circle><path d="M 481.6 88.0 C 484.6 82.0, 490.6 85.0, 488.6 91.0" fill="none" stroke="#1d4ed8" stroke-width="1.2"/></g><g><circle cx="494.0" cy="86.4" r="4.3" fill="#fff7ed" stroke="#1d4ed8" stroke-width="2"><title>2026-08-06: 142 users</title></circle><path d="M 490.0 87.4 C 493.0 81.4, 499.0 84.4, 497.0 90.4" fill="none" stroke="#1d4ed8" stroke-width="1.2"/></g><g><circle cx="502.4" cy="88.3" r="4.3" fill="#fff7ed" stroke="#1d4ed8" stroke-width="2"><title>2026-08-07: 139 users</title></circle><path d="M 498.4 89.3 C 501.4 83.3, 507.4 86.3, 505.4 92.3" fill="none" stroke="#1d4ed8" stroke-width="1.2"/></g><g><circle cx="510.9" cy="85.1" r="4.3" fill="#fff7ed" stroke="#1d4ed8" stroke-width="2"><title>2026-08-08: 144 users</title></circle><path d="M 506.9 86.1 C 509.9 80.1, 515.9 83.1, 513.9 89.1" fill="none" stroke="#1d4ed8" stroke-width="1.2"/></g><g><circle cx="519.3" cy="83.8" r="4.3" fill="#fff7ed" stroke="#1d4ed8" stroke-width="2"><title>2026-08-09: 146 users</title></circle><path d="M 515.3 84.8 C 518.3 78.8, 524.3 81.8, 522.3 87.8" fill="none" stroke="#1d4ed8" stroke-width="1.2"/></g><g><circle cx="527.7" cy="83.8" r="4.3" fill="#fff7ed" stroke="#1d4ed8" stroke-width="2"><title>2026-08-10: 146 users</title></circle><path d="M 523.7 84.8 C 526.7 78.8, 532.7 81.8, 530.7 87.8" fill="none" stroke="#1d4ed8" stroke-width="1.2"/></g><g><circle cx="536.1" cy="83.8" r="4.3" fill="#fff7ed" stroke="#1d4ed8" stroke-width="2"><title>2026-08-11: 146 users</title></circle><path d="M 532.1 84.8 C 535.1 78.8, 541.1 81.8, 539.1 87.8" fill="none" stroke="#1d4ed8" stroke-width="1.2"/></g><g><circle cx="544.5" cy="81.9" r="4.3" fill="#fff7ed" stroke="#1d4ed8" stroke-width="2"><title>2026-08-12: 149 users</title></circle><path d="M 540.5 82.9 C 543.5 76.9, 549.5 79.9, 547.5 85.9" fill="none" stroke="#1d4ed8" stroke-width="1.2"/></g><g><circle cx="552.9" cy="81.9" r="4.3" fill="#fff7ed" stroke="#1d4ed8" stroke-width="2"><title>2026-08-13: 149 users</title></circle><path d="M 548.9 82.9 C 551.9 76.9, 557.9 79.9, 555.9 85.9" fill="none" stroke="#1d4ed8" stroke-width="1.2"/></g><g><circle cx="561.4" cy="81.9" r="4.3" fill="#fff7ed" stroke="#1d4ed8" stroke-width="2"><title>2026-08-14: 149 users</title></circle><path d="M 557.4 82.9 C 560.4 76.9, 566.4 79.9, 564.4 85.9" fill="none" stroke="#1d4ed8" stroke-width="1.2"/></g><g><circle cx="569.8" cy="76.1" r="4.3" fill="#fff7ed" stroke="#1d4ed8" stroke-width="2"><title>2026-08-15: 158 users</title></circle><path d="M 565.8 77.1 C 568.8 71.1, 574.8 74.1, 572.8 80.1" fill="none" stroke="#1d4ed8" stroke-width="1.2"/></g><g><circle cx="578.2" cy="74.8" r="4.3" fill="#fff7ed" stroke="#1d4ed8" stroke-width="2"><title>2026-08-16: 160 users</title></circle><path d="M 574.2 75.8 C 577.2 69.8, 583.2 72.8, 581.2 78.8" fill="none" stroke="#1d4ed8" stroke-width="1.2"/></g><g><circle cx="586.6" cy="74.8" r="4.3" fill="#fff7ed" stroke="#1d4ed8" stroke-width="2"><title>2026-08-17: 160 users</title></circle><path d="M 582.6 75.8 C 585.6 69.8, 591.6 72.8, 589.6 78.8" fill="none" stroke="#1d4ed8" stroke-width="1.2"/></g><g><circle cx="595.0" cy="74.8" r="4.3" fill="#fff7ed" stroke="#1d4ed8" stroke-width="2"><title>2026-08-18: 160 users</title></circle><path d="M 591.0 75.8 C 594.0 69.8, 600.0 72.8, 598.0 78.8" fill="none" stroke="#1d4ed8" stroke-width="1.2"/></g><g><circle cx="603.4" cy="74.8" r="4.3" fill="#fff7ed" stroke="#1d4ed8" stroke-width="2"><title>2026-08-19: 160 users</title></circle><path d="M 599.4 75.8 C 602.4 69.8, 608.4 72.8, 606.4 78.8" fill="none" stroke="#1d4ed8" stroke-width="1.2"/></g><g><circle cx="611.8" cy="71.5" r="4.3" fill="#fff7ed" stroke="#1d4ed8" stroke-width="2"><title>2026-08-20: 165 users</title></circle><path d="M 607.8 72.5 C 610.8 66.5, 616.8 69.5, 614.8 75.5" fill="none" stroke="#1d4ed8" stroke-width="1.2"/></g><g><circle cx="620.3" cy="71.5" r="4.3" fill="#fff7ed" stroke="#1d4ed8" stroke-width="2"><title>2026-08-21: 165 users</title></circle><path d="M 616.3 72.5 C 619.3 66.5, 625.3 69.5, 623.3 75.5" fill="none" stroke="#1d4ed8" stroke-width="1.2"/></g><g><circle cx="628.7" cy="69.6" r="4.3" fill="#fff7ed" stroke="#1d4ed8" stroke-width="2"><title>2026-08-22: 168 users</title></circle><path d="M 624.7 70.6 C 627.7 64.6, 633.7 67.6, 631.7 73.6" fill="none" stroke="#1d4ed8" stroke-width="1.2"/></g><g><circle cx="637.1" cy="69.6" r="4.3" fill="#fff7ed" stroke="#1d4ed8" stroke-width="2"><title>2026-08-23: 168 users</title></circle><path d="M 633.1 70.6 C 636.1 64.6, 642.1 67.6, 640.1 73.6" fill="none" stroke="#1d4ed8" stroke-width="1.2"/></g><g><circle cx="645.5" cy="65.7" r="4.3" fill="#fff7ed" stroke="#1d4ed8" stroke-width="2"><title>2026-08-24: 174 users</title></circle><path d="M 641.5 66.7 C 644.5 60.7, 650.5 63.7, 648.5 69.7" fill="none" stroke="#1d4ed8" stroke-width="1.2"/></g><g><circle cx="653.9" cy="63.2" r="4.3" fill="#fff7ed" stroke="#1d4ed8" stroke-width="2"><title>2026-08-25: 178 users</title></circle><path d="M 649.9 64.2 C 652.9 58.2, 658.9 61.2, 656.9 67.2" fill="none" stroke="#1d4ed8" stroke-width="1.2"/></g><g><circle cx="662.3" cy="62.5" r="4.3" fill="#fff7ed" stroke="#1d4ed8" stroke-width="2"><title>2026-08-26: 179 users</title></circle><path d="M 658.3 63.5 C 661.3 57.5, 667.3 60.5, 665.3 66.5" fill="none" stroke="#1d4ed8" stroke-width="1.2"/></g><g><circle cx="670.8" cy="59.9" r="4.3" fill="#fff7ed" stroke="#1d4ed8" stroke-width="2"><title>2026-08-27: 183 users</title></circle><path d="M 666.8 60.9 C 669.8 54.9, 675.8 57.9, 673.8 63.9" fill="none" stroke="#1d4ed8" stroke-width="1.2"/></g><g><circle cx="679.2" cy="59.3" r="4.3" fill="#fff7ed" stroke="#1d4ed8" stroke-width="2"><title>2026-08-28: 184 users</title></circle><path d="M 675.2 60.3 C 678.2 54.3, 684.2 57.3, 682.2 63.3" fill="none" stroke="#1d4ed8" stroke-width="1.2"/></g><g><circle cx="687.6" cy="58.6" r="4.3" fill="#fff7ed" stroke="#1d4ed8" stroke-width="2"><title>2026-08-29: 185 users</title></circle><path d="M 683.6 59.6 C 686.6 53.6, 692.6 56.6, 690.6 62.6" fill="none" stroke="#1d4ed8" stroke-width="1.2"/></g><g><circle cx="696.0" cy="56.7" r="4.3" fill="#fff7ed" stroke="#1d4ed8" stroke-width="2"><title>2026-08-30: 188 users</title></circle><path d="M 692.0 57.7 C 695.0 51.7, 701.0 54.7, 699.0 60.7" fill="none" stroke="#1d4ed8" stroke-width="1.2"/></g>
  <text x="48" y="206" fill="#57534e" font-family="'Comic Sans MS', 'Segoe Print', cursive" font-size="11">2026-06-13</text>
  <text x="696" y="206" fill="#57534e" font-family="'Comic Sans MS', 'Segoe Print', cursive" font-size="11" text-anchor="end">2026-08-30</text>
</svg>
