<svg xmlns="http://www.w3.org/2000/svg" width="720" height="220" viewBox="0 0 720 220" role="img" aria-label="Chrome Web Store users trend">
  <rect width="720" height="220" rx="8" fill="#fffdf7"/>
  <path d="M 11 8 C 190 3, 512 7, 710 11 M 714 11 C 717 74, 715 151, 711 211 M 708 214 C 523 218, 177 216, 12 211 M 9 211 C 4 145, 7 78, 11 8" fill="none" stroke="#292524" stroke-width="1.3" opacity="0.7"/>
  <text x="24" y="24" fill="#1c1917" font-family="'Comic Sans MS', 'Segoe Print', cursive" font-size="16" font-weight="700">Chrome Web Store users</text>
  <text x="696" y="24" fill="#1d4ed8" font-family="'Comic Sans MS', 'Segoe Print', cursive" font-size="16" font-weight="700" text-anchor="end">82 users</text>
  <text x="696" y="43" fill="#57534e" font-family="'Comic Sans MS', 'Segoe Print', cursive" font-size="11" text-anchor="end">Data through 2026-07-04</text>
  <g><path d="M 48 37.1 C 228 38.9, 468 37.1, 696 38.9" fill="none" stroke="#d6d3c8" stroke-width="1.1"/><text x="38" y="42" text-anchor="end" fill="#57534e" font-size="11">97</text></g>
  <g><path d="M 48 109.4 C 228 106.6, 468 109.4, 696 106.6" fill="none" stroke="#d6d3c8" stroke-width="1.1"/><text x="38" y="112" text-anchor="end" fill="#57534e" font-size="11">49</text></g>
  <g><path d="M 48 177.1 C 228 178.9, 468 177.1, 696 178.9" fill="none" stroke="#d6d3c8" stroke-width="1.1"/><text x="38" y="182" text-anchor="end" fill="#57534e" font-size="11">0</text></g>
  <path d="M 48 36 C 44 98, 50 156, 48 178" fill="none" stroke="#292524" stroke-width="1.4"/>
  <path d="M 46 178 C 218 182, 478 175, 696 179" fill="none" stroke="#292524" stroke-width="1.4"/>
  <path d="M 48.0 115.3 L 78.9 110.8 L 109.7 112.4 L 140.6 103.6 L 171.4 105.2 L 202.3 97.8 L 233.1 99.4 L 264.0 96.4 L 294.9 96.5 L 325.7 94.9 L 356.6 90.8 L 387.4 86.3 L 418.3 79.2 L 449.1 77.6 L 480.0 74.9 L 510.9 73.3 L 541.7 66.2 L 572.6 56.0 L 603.4 57.6 L 634.3 58.8 L 665.1 61.9 L 696.0 58.8" fill="none" stroke="#2563eb" stroke-width="3.6" stroke-linecap="round" stroke-linejoin="round"/>
  <path d="M 48.0 113.8 L 78.9 112.3 L 109.7 110.9 L 140.6 105.1 L 171.4 103.7 L 202.3 99.3 L 233.1 97.9 L 264.0 97.9 L 294.9 95.0 L 325.7 96.4 L 356.6 89.3 L 387.4 87.8 L 418.3 77.7 L 449.1 79.1 L 480.0 73.4 L 510.9 74.8 L 541.7 64.7 L 572.6 57.5 L 603.4 56.1 L 634.3 60.3 L 665.1 60.4 L 696.0 60.3" fill="none" stroke="#60a5fa" stroke-width="1.6" stroke-linecap="round" stroke-linejoin="round" opacity="0.85"/>
  <g><circle cx="48.0" cy="114.5" r="4.3" fill="#fff7ed" stroke="#1d4ed8" stroke-width="2"><title>2026-06-13: 44 users</title></circle><path d="M 44.0 115.5 C 47.0 109.5, 53.0 112.5, 51.0 118.5" fill="none" stroke="#1d4ed8" stroke-width="1.2"/></g><g><circle cx="78.9" cy="111.6" r="4.3" fill="#fff7ed" stroke="#1d4ed8" stroke-width="2"><title>2026-06-14: 46 users</title></circle><path d="M 74.9 112.6 C 77.9 106.6, 83.9 109.6, 81.9 115.6" fill="none" stroke="#1d4ed8" stroke-width="1.2"/></g><g><circle cx="109.7" cy="111.6" r="4.3" fill="#fff7ed" stroke="#1d4ed8" stroke-width="2"><title>2026-06-15: 46 users</title></circle><path d="M 105.7 112.6 C 108.7 106.6, 114.7 109.6, 112.7 115.6" fill="none" stroke="#1d4ed8" stroke-width="1.2"/></g><g><circle cx="140.6" cy="104.4" r="4.3" fill="#fff7ed" stroke="#1d4ed8" stroke-width="2"><title>2026-06-16: 51 users</title></circle><path d="M 136.6 105.4 C 139.6 99.4, 145.6 102.4, 143.6 108.4" fill="none" stroke="#1d4ed8" stroke-width="1.2"/></g><g><circle cx="171.4" cy="104.4" r="4.3" fill="#fff7ed" stroke="#1d4ed8" stroke-width="2"><title>2026-06-17: 51 users</title></circle><path d="M 167.4 105.4 C 170.4 99.4, 176.4 102.4, 174.4 108.4" fill="none" stroke="#1d4ed8" stroke-width="1.2"/></g><g><circle cx="202.3" cy="98.6" r="4.3" fill="#fff7ed" stroke="#1d4ed8" stroke-width="2"><title>2026-06-18: 55 users</title></circle><path d="M 198.3 99.6 C 201.3 93.6, 207.3 96.6, 205.3 102.6" fill="none" stroke="#1d4ed8" stroke-width="1.2"/></g><g><circle cx="233.1" cy="98.6" r="4.3" fill="#fff7ed" stroke="#1d4ed8" stroke-width="2"><title>2026-06-19: 55 users</title></circle><path d="M 229.1 99.6 C 232.1 93.6, 238.1 96.6, 236.1 102.6" fill="none" stroke="#1d4ed8" stroke-width="1.2"/></g><g><circle cx="264.0" cy="97.2" r="4.3" fill="#fff7ed" stroke="#1d4ed8" stroke-width="2"><title>2026-06-20: 56 users</title></circle><path d="M 260.0 98.2 C 263.0 92.2, 269.0 95.2, 267.0 101.2" fill="none" stroke="#1d4ed8" stroke-width="1.2"/></g><g><circle cx="294.9" cy="95.7" r="4.3" fill="#fff7ed" stroke="#1d4ed8" stroke-width="2"><title>2026-06-21: 57 users</title></circle><path d="M 290.9 96.7 C 293.9 90.7, 299.9 93.7, 297.9 99.7" fill="none" stroke="#1d4ed8" stroke-width="1.2"/></g><g><circle cx="325.7" cy="95.7" r="4.3" fill="#fff7ed" stroke="#1d4ed8" stroke-width="2"><title>2026-06-22: 57 users</title></circle><path d="M 321.7 96.7 C 324.7 90.7, 330.7 93.7, 328.7 99.7" fill="none" stroke="#1d4ed8" stroke-width="1.2"/></g><g><circle cx="356.6" cy="90.0" r="4.3" fill="#fff7ed" stroke="#1d4ed8" stroke-width="2"><title>2026-06-23: 61 users</title></circle><path d="M 352.6 91.0 C 355.6 85.0, 361.6 88.0, 359.6 94.0" fill="none" stroke="#1d4ed8" stroke-width="1.2"/></g><g><circle cx="387.4" cy="87.1" r="4.3" fill="#fff7ed" stroke="#1d4ed8" stroke-width="2"><title>2026-06-24: 63 users</title></circle><path d="M 383.4 88.1 C 386.4 82.1, 392.4 85.1, 390.4 91.1" fill="none" stroke="#1d4ed8" stroke-width="1.2"/></g><g><circle cx="418.3" cy="78.4" r="4.3" fill="#fff7ed" stroke="#1d4ed8" stroke-width="2"><title>2026-06-25: 69 users</title></circle><path d="M 414.3 79.4 C 417.3 73.4, 423.3 76.4, 421.3 82.4" fill="none" stroke="#1d4ed8" stroke-width="1.2"/></g><g><circle cx="449.1" cy="78.4" r="4.3" fill="#fff7ed" stroke="#1d4ed8" stroke-width="2"><title>2026-06-26: 69 users</title></circle><path d="M 445.1 79.4 C 448.1 73.4, 454.1 76.4, 452.1 82.4" fill="none" stroke="#1d4ed8" stroke-width="1.2"/></g><g><circle cx="480.0" cy="74.1" r="4.3" fill="#fff7ed" stroke="#1d4ed8" stroke-width="2"><title>2026-06-27: 72 users</title></circle><path d="M 476.0 75.1 C 479.0 69.1, 485.0 72.1, 483.0 78.1" fill="none" stroke="#1d4ed8" stroke-width="1.2"/></g><g><circle cx="510.9" cy="74.1" r="4.3" fill="#fff7ed" stroke="#1d4ed8" stroke-width="2"><title>2026-06-28: 72 users</title></circle><path d="M 506.9 75.1 C 509.9 69.1, 515.9 72.1, 513.9 78.1" fill="none" stroke="#1d4ed8" stroke-width="1.2"/></g><g><circle cx="541.7" cy="65.4" r="4.3" fill="#fff7ed" stroke="#1d4ed8" stroke-width="2"><title>2026-06-29: 78 users</title></circle><path d="M 537.7 66.4 C 540.7 60.4, 546.7 63.4, 544.7 69.4" fill="none" stroke="#1d4ed8" stroke-width="1.2"/></g><g><circle cx="572.6" cy="56.8" r="4.3" fill="#fff7ed" stroke="#1d4ed8" stroke-width="2"><title>2026-06-30: 84 users</title></circle><path d="M 568.6 57.8 C 571.6 51.8, 577.6 54.8, 575.6 60.8" fill="none" stroke="#1d4ed8" stroke-width="1.2"/></g><g><circle cx="603.4" cy="56.8" r="4.3" fill="#fff7ed" stroke="#1d4ed8" stroke-width="2"><title>2026-07-01: 84 users</title></circle><path d="M 599.4 57.8 C 602.4 51.8, 608.4 54.8, 606.4 60.8" fill="none" stroke="#1d4ed8" stroke-width="1.2"/></g><g><circle cx="634.3" cy="59.6" r="4.3" fill="#fff7ed" stroke="#1d4ed8" stroke-width="2"><title>2026-07-02: 82 users</title></circle><path d="M 630.3 60.6 C 633.3 54.6, 639.3 57.6, 637.3 63.6" fill="none" stroke="#1d4ed8" stroke-width="1.2"/></g><g><circle cx="665.1" cy="61.1" r="4.3" fill="#fff7ed" stroke="#1d4ed8" stroke-width="2"><title>2026-07-03: 81 users</title></circle><path d="M 661.1 62.1 C 664.1 56.1, 670.1 59.1, 668.1 65.1" fill="none" stroke="#1d4ed8" stroke-width="1.2"/></g><g><circle cx="696.0" cy="59.6" r="4.3" fill="#fff7ed" stroke="#1d4ed8" stroke-width="2"><title>2026-07-04: 82 users</title></circle><path d="M 692.0 60.6 C 695.0 54.6, 701.0 57.6, 699.0 63.6" fill="none" stroke="#1d4ed8" stroke-width="1.2"/></g>
  <text x="48" y="206" fill="#57534e" font-family="'Comic Sans MS', 'Segoe Print', cursive" font-size="11">2026-06-13</text>
  <text x="696" y="206" fill="#57534e" font-family="'Comic Sans MS', 'Segoe Print', cursive" font-size="11" text-anchor="end">2026-07-04</text>
</svg>
