<svg xmlns="http://www.w3.org/2000/svg" width="720" height="220" viewBox="0 0 720 220" role="img" aria-label="Chrome Web Store users trend">
  <rect width="720" height="220" rx="8" fill="#fffdf7"/>
  <path d="M 11 8 C 190 3, 512 7, 710 11 M 714 11 C 717 74, 715 151, 711 211 M 708 214 C 523 218, 177 216, 12 211 M 9 211 C 4 145, 7 78, 11 8" fill="none" stroke="#292524" stroke-width="1.3" opacity="0.7"/>
  <text x="24" y="24" fill="#1c1917" font-family="'Comic Sans MS', 'Segoe Print', cursive" font-size="16" font-weight="700">Chrome Web Store users</text>
  <text x="696" y="24" fill="#1d4ed8" font-family="'Comic Sans MS', 'Segoe Print', cursive" font-size="16" font-weight="700" text-anchor="end">46 users</text>
  <text x="696" y="43" fill="#57534e" font-family="'Comic Sans MS', 'Segoe Print', cursive" font-size="11" text-anchor="end">Updated 2026-06-17</text>
  <g><path d="M 48 37.1 C 228 38.9, 468 37.1, 696 38.9" fill="none" stroke="#d6d3c8" stroke-width="1.1"/><text x="38" y="42" text-anchor="end" fill="#57534e" font-size="11">53</text></g>
  <g><path d="M 48 109.4 C 228 106.6, 468 109.4, 696 106.6" fill="none" stroke="#d6d3c8" stroke-width="1.1"/><text x="38" y="112" text-anchor="end" fill="#57534e" font-size="11">27</text></g>
  <g><path d="M 48 177.1 C 228 178.9, 468 177.1, 696 178.9" fill="none" stroke="#d6d3c8" stroke-width="1.1"/><text x="38" y="182" text-anchor="end" fill="#57534e" font-size="11">0</text></g>
  <path d="M 48 36 C 44 98, 50 156, 48 178" fill="none" stroke="#292524" stroke-width="1.4"/>
  <path d="M 46 178 C 218 182, 478 175, 696 179" fill="none" stroke="#292524" stroke-width="1.4"/>
  <path d="M 48.0 62.6 L 372.0 55.7 L 696.0 57.3" fill="none" stroke="#2563eb" stroke-width="3.6" stroke-linecap="round" stroke-linejoin="round"/>
  <path d="M 48.0 61.1 L 372.0 57.2 L 696.0 55.8" fill="none" stroke="#60a5fa" stroke-width="1.6" stroke-linecap="round" stroke-linejoin="round" opacity="0.85"/>
  <g><circle cx="48.0" cy="61.8" r="4.3" fill="#fff7ed" stroke="#1d4ed8" stroke-width="2"><title>2026-06-15: 44 users</title></circle><path d="M 44.0 62.8 C 47.0 56.8, 53.0 59.8, 51.0 65.8" fill="none" stroke="#1d4ed8" stroke-width="1.2"/></g><g><circle cx="372.0" cy="56.5" r="4.3" fill="#fff7ed" stroke="#1d4ed8" stroke-width="2"><title>2026-06-16: 46 users</title></circle><path d="M 368.0 57.5 C 371.0 51.5, 377.0 54.5, 375.0 60.5" fill="none" stroke="#1d4ed8" stroke-width="1.2"/></g><g><circle cx="696.0" cy="56.5" r="4.3" fill="#fff7ed" stroke="#1d4ed8" stroke-width="2"><title>2026-06-17: 46 users</title></circle><path d="M 692.0 57.5 C 695.0 51.5, 701.0 54.5, 699.0 60.5" fill="none" stroke="#1d4ed8" stroke-width="1.2"/></g>
  <text x="48" y="206" fill="#57534e" font-family="'Comic Sans MS', 'Segoe Print', cursive" font-size="11">2026-06-15</text>
  <text x="696" y="206" fill="#57534e" font-family="'Comic Sans MS', 'Segoe Print', cursive" font-size="11" text-anchor="end">2026-06-17</text>
</svg>
