<svg xmlns="http://www.w3.org/2000/svg" width="720" height="220" viewBox="0 0 720 220" role="img" aria-label="Chrome Web Store users trend">
  <rect width="720" height="220" rx="8" fill="#fffdf7"/>
  <path d="M 11 8 C 190 3, 512 7, 710 11 M 714 11 C 717 74, 715 151, 711 211 M 708 214 C 523 218, 177 216, 12 211 M 9 211 C 4 145, 7 78, 11 8" fill="none" stroke="#292524" stroke-width="1.3" opacity="0.7"/>
  <text x="24" y="24" fill="#1c1917" font-family="'Comic Sans MS', 'Segoe Print', cursive" font-size="16" font-weight="700">Chrome Web Store users</text>
  <text x="696" y="24" fill="#1d4ed8" font-family="'Comic Sans MS', 'Segoe Print', cursive" font-size="16" font-weight="700" text-anchor="end">90 users</text>
  <text x="696" y="43" fill="#57534e" font-family="'Comic Sans MS', 'Segoe Print', cursive" font-size="11" text-anchor="end">Data through 2026-07-15</text>
  <g><path d="M 48 37.1 C 228 38.9, 468 37.1, 696 38.9" fill="none" stroke="#d6d3c8" stroke-width="1.1"/><text x="38" y="42" text-anchor="end" fill="#57534e" font-size="11">109</text></g>
  <g><path d="M 48 109.4 C 228 106.6, 468 109.4, 696 106.6" fill="none" stroke="#d6d3c8" stroke-width="1.1"/><text x="38" y="112" text-anchor="end" fill="#57534e" font-size="11">55</text></g>
  <g><path d="M 48 177.1 C 228 178.9, 468 177.1, 696 178.9" fill="none" stroke="#d6d3c8" stroke-width="1.1"/><text x="38" y="182" text-anchor="end" fill="#57534e" font-size="11">0</text></g>
  <path d="M 48 36 C 44 98, 50 156, 48 178" fill="none" stroke="#292524" stroke-width="1.4"/>
  <path d="M 46 178 C 218 182, 478 175, 696 179" fill="none" stroke="#292524" stroke-width="1.4"/>
  <path d="M 48.0 122.3 L 68.3 118.1 L 88.5 119.7 L 108.8 111.7 L 129.0 113.3 L 149.3 106.6 L 169.5 108.2 L 189.8 105.3 L 210.0 105.6 L 230.3 104.0 L 250.5 100.5 L 270.8 96.3 L 291.0 90.2 L 311.3 88.6 L 331.5 86.3 L 351.8 84.7 L 372.0 78.6 L 392.3 69.3 L 412.5 70.9 L 432.8 71.9 L 453.0 74.8 L 473.3 71.9 L 493.5 68.3 L 513.8 66.7 L 534.0 61.9 L 554.3 60.3 L 574.5 61.9 L 594.8 60.3 L 615.0 58.1 L 635.3 56.5 L 655.5 63.2 L 675.8 61.6 L 696.0 63.2" fill="none" stroke="#2563eb" stroke-width="3.6" stroke-linecap="round" stroke-linejoin="round"/>
  <path d="M 48.0 120.8 L 68.3 119.6 L 88.5 118.2 L 108.8 113.2 L 129.0 111.8 L 149.3 108.1 L 169.5 106.7 L 189.8 106.8 L 210.0 104.1 L 230.3 105.5 L 250.5 99.0 L 270.8 97.8 L 291.0 88.7 L 311.3 90.1 L 331.5 84.8 L 351.8 86.2 L 372.0 77.1 L 392.3 70.8 L 412.5 69.4 L 432.8 73.4 L 453.0 73.3 L 473.3 73.4 L 493.5 66.8 L 513.8 68.2 L 534.0 60.4 L 554.3 61.8 L 574.5 60.4 L 594.8 61.8 L 615.0 56.6 L 635.3 58.0 L 655.5 61.7 L 675.8 63.1 L 696.0 61.7" fill="none" stroke="#60a5fa" stroke-width="1.6" stroke-linecap="round" stroke-linejoin="round" opacity="0.85"/>
  <g><circle cx="48.0" cy="121.5" r="4.3" fill="#fff7ed" stroke="#1d4ed8" stroke-width="2"><title>2026-06-13: 44 users</title></circle><path d="M 44.0 122.5 C 47.0 116.5, 53.0 119.5, 51.0 125.5" fill="none" stroke="#1d4ed8" stroke-width="1.2"/></g><g><circle cx="68.3" cy="118.9" r="4.3" fill="#fff7ed" stroke="#1d4ed8" stroke-width="2"><title>2026-06-14: 46 users</title></circle><path d="M 64.3 119.9 C 67.3 113.9, 73.3 116.9, 71.3 122.9" fill="none" stroke="#1d4ed8" stroke-width="1.2"/></g><g><circle cx="88.5" cy="118.9" r="4.3" fill="#fff7ed" stroke="#1d4ed8" stroke-width="2"><title>2026-06-15: 46 users</title></circle><path d="M 84.5 119.9 C 87.5 113.9, 93.5 116.9, 91.5 122.9" fill="none" stroke="#1d4ed8" stroke-width="1.2"/></g><g><circle cx="108.8" cy="112.5" r="4.3" fill="#fff7ed" stroke="#1d4ed8" stroke-width="2"><title>2026-06-16: 51 users</title></circle><path d="M 104.8 113.5 C 107.8 107.5, 113.8 110.5, 111.8 116.5" fill="none" stroke="#1d4ed8" stroke-width="1.2"/></g><g><circle cx="129.0" cy="112.5" r="4.3" fill="#fff7ed" stroke="#1d4ed8" stroke-width="2"><title>2026-06-17: 51 users</title></circle><path d="M 125.0 113.5 C 128.0 107.5, 134.0 110.5, 132.0 116.5" fill="none" stroke="#1d4ed8" stroke-width="1.2"/></g><g><circle cx="149.3" cy="107.4" r="4.3" fill="#fff7ed" stroke="#1d4ed8" stroke-width="2"><title>2026-06-18: 55 users</title></circle><path d="M 145.3 108.4 C 148.3 102.4, 154.3 105.4, 152.3 111.4" fill="none" stroke="#1d4ed8" stroke-width="1.2"/></g><g><circle cx="169.5" cy="107.4" r="4.3" fill="#fff7ed" stroke="#1d4ed8" stroke-width="2"><title>2026-06-19: 55 users</title></circle><path d="M 165.5 108.4 C 168.5 102.4, 174.5 105.4, 172.5 111.4" fill="none" stroke="#1d4ed8" stroke-width="1.2"/></g><g><circle cx="189.8" cy="106.1" r="4.3" fill="#fff7ed" stroke="#1d4ed8" stroke-width="2"><title>2026-06-20: 56 users</title></circle><path d="M 185.8 107.1 C 188.8 101.1, 194.8 104.1, 192.8 110.1" fill="none" stroke="#1d4ed8" stroke-width="1.2"/></g><g><circle cx="210.0" cy="104.8" r="4.3" fill="#fff7ed" stroke="#1d4ed8" stroke-width="2"><title>2026-06-21: 57 users</title></circle><path d="M 206.0 105.8 C 209.0 99.8, 215.0 102.8, 213.0 108.8" fill="none" stroke="#1d4ed8" stroke-width="1.2"/></g><g><circle cx="230.3" cy="104.8" r="4.3" fill="#fff7ed" stroke="#1d4ed8" stroke-width="2"><title>2026-06-22: 57 users</title></circle><path d="M 226.3 105.8 C 229.3 99.8, 235.3 102.8, 233.3 108.8" fill="none" stroke="#1d4ed8" stroke-width="1.2"/></g><g><circle cx="250.5" cy="99.7" r="4.3" fill="#fff7ed" stroke="#1d4ed8" stroke-width="2"><title>2026-06-23: 61 users</title></circle><path d="M 246.5 100.7 C 249.5 94.7, 255.5 97.7, 253.5 103.7" fill="none" stroke="#1d4ed8" stroke-width="1.2"/></g><g><circle cx="270.8" cy="97.1" r="4.3" fill="#fff7ed" stroke="#1d4ed8" stroke-width="2"><title>2026-06-24: 63 users</title></circle><path d="M 266.8 98.1 C 269.8 92.1, 275.8 95.1, 273.8 101.1" fill="none" stroke="#1d4ed8" stroke-width="1.2"/></g><g><circle cx="291.0" cy="89.4" r="4.3" fill="#fff7ed" stroke="#1d4ed8" stroke-width="2"><title>2026-06-25: 69 users</title></circle><path d="M 287.0 90.4 C 290.0 84.4, 296.0 87.4, 294.0 93.4" fill="none" stroke="#1d4ed8" stroke-width="1.2"/></g><g><circle cx="311.3" cy="89.4" r="4.3" fill="#fff7ed" stroke="#1d4ed8" stroke-width="2"><title>2026-06-26: 69 users</title></circle><path d="M 307.3 90.4 C 310.3 84.4, 316.3 87.4, 314.3 93.4" fill="none" stroke="#1d4ed8" stroke-width="1.2"/></g><g><circle cx="331.5" cy="85.5" r="4.3" fill="#fff7ed" stroke="#1d4ed8" stroke-width="2"><title>2026-06-27: 72 users</title></circle><path d="M 327.5 86.5 C 330.5 80.5, 336.5 83.5, 334.5 89.5" fill="none" stroke="#1d4ed8" stroke-width="1.2"/></g><g><circle cx="351.8" cy="85.5" r="4.3" fill="#fff7ed" stroke="#1d4ed8" stroke-width="2"><title>2026-06-28: 72 users</title></circle><path d="M 347.8 86.5 C 350.8 80.5, 356.8 83.5, 354.8 89.5" fill="none" stroke="#1d4ed8" stroke-width="1.2"/></g><g><circle cx="372.0" cy="77.8" r="4.3" fill="#fff7ed" stroke="#1d4ed8" stroke-width="2"><title>2026-06-29: 78 users</title></circle><path d="M 368.0 78.8 C 371.0 72.8, 377.0 75.8, 375.0 81.8" fill="none" stroke="#1d4ed8" stroke-width="1.2"/></g><g><circle cx="392.3" cy="70.1" r="4.3" fill="#fff7ed" stroke="#1d4ed8" stroke-width="2"><title>2026-06-30: 84 users</title></circle><path d="M 388.3 71.1 C 391.3 65.1, 397.3 68.1, 395.3 74.1" fill="none" stroke="#1d4ed8" stroke-width="1.2"/></g><g><circle cx="412.5" cy="70.1" r="4.3" fill="#fff7ed" stroke="#1d4ed8" stroke-width="2"><title>2026-07-01: 84 users</title></circle><path d="M 408.5 71.1 C 411.5 65.1, 417.5 68.1, 415.5 74.1" fill="none" stroke="#1d4ed8" stroke-width="1.2"/></g><g><circle cx="432.8" cy="72.7" r="4.3" fill="#fff7ed" stroke="#1d4ed8" stroke-width="2"><title>2026-07-02: 82 users</title></circle><path d="M 428.8 73.7 C 431.8 67.7, 437.8 70.7, 435.8 76.7" fill="none" stroke="#1d4ed8" stroke-width="1.2"/></g><g><circle cx="453.0" cy="74.0" r="4.3" fill="#fff7ed" stroke="#1d4ed8" stroke-width="2"><title>2026-07-03: 81 users</title></circle><path d="M 449.0 75.0 C 452.0 69.0, 458.0 72.0, 456.0 78.0" fill="none" stroke="#1d4ed8" stroke-width="1.2"/></g><g><circle cx="473.3" cy="72.7" r="4.3" fill="#fff7ed" stroke="#1d4ed8" stroke-width="2"><title>2026-07-04: 82 users</title></circle><path d="M 469.3 73.7 C 472.3 67.7, 478.3 70.7, 476.3 76.7" fill="none" stroke="#1d4ed8" stroke-width="1.2"/></g><g><circle cx="493.5" cy="67.5" r="4.3" fill="#fff7ed" stroke="#1d4ed8" stroke-width="2"><title>2026-07-05: 86 users</title></circle><path d="M 489.5 68.5 C 492.5 62.5, 498.5 65.5, 496.5 71.5" fill="none" stroke="#1d4ed8" stroke-width="1.2"/></g><g><circle cx="513.8" cy="67.5" r="4.3" fill="#fff7ed" stroke="#1d4ed8" stroke-width="2"><title>2026-07-06: 86 users</title></circle><path d="M 509.8 68.5 C 512.8 62.5, 518.8 65.5, 516.8 71.5" fill="none" stroke="#1d4ed8" stroke-width="1.2"/></g><g><circle cx="534.0" cy="61.1" r="4.3" fill="#fff7ed" stroke="#1d4ed8" stroke-width="2"><title>2026-07-07: 91 users</title></circle><path d="M 530.0 62.1 C 533.0 56.1, 539.0 59.1, 537.0 65.1" fill="none" stroke="#1d4ed8" stroke-width="1.2"/></g><g><circle cx="554.3" cy="61.1" r="4.3" fill="#fff7ed" stroke="#1d4ed8" stroke-width="2"><title>2026-07-08: 91 users</title></circle><path d="M 550.3 62.1 C 553.3 56.1, 559.3 59.1, 557.3 65.1" fill="none" stroke="#1d4ed8" stroke-width="1.2"/></g><g><circle cx="574.5" cy="61.1" r="4.3" fill="#fff7ed" stroke="#1d4ed8" stroke-width="2"><title>2026-07-09: 91 users</title></circle><path d="M 570.5 62.1 C 573.5 56.1, 579.5 59.1, 577.5 65.1" fill="none" stroke="#1d4ed8" stroke-width="1.2"/></g><g><circle cx="594.8" cy="61.1" r="4.3" fill="#fff7ed" stroke="#1d4ed8" stroke-width="2"><title>2026-07-10: 91 users</title></circle><path d="M 590.8 62.1 C 593.8 56.1, 599.8 59.1, 597.8 65.1" fill="none" stroke="#1d4ed8" stroke-width="1.2"/></g><g><circle cx="615.0" cy="57.3" r="4.3" fill="#fff7ed" stroke="#1d4ed8" stroke-width="2"><title>2026-07-11: 94 users</title></circle><path d="M 611.0 58.3 C 614.0 52.3, 620.0 55.3, 618.0 61.3" fill="none" stroke="#1d4ed8" stroke-width="1.2"/></g><g><circle cx="635.3" cy="57.3" r="4.3" fill="#fff7ed" stroke="#1d4ed8" stroke-width="2"><title>2026-07-12: 94 users</title></circle><path d="M 631.3 58.3 C 634.3 52.3, 640.3 55.3, 638.3 61.3" fill="none" stroke="#1d4ed8" stroke-width="1.2"/></g><g><circle cx="655.5" cy="62.4" r="4.3" fill="#fff7ed" stroke="#1d4ed8" stroke-width="2"><title>2026-07-13: 90 users</title></circle><path d="M 651.5 63.4 C 654.5 57.4, 660.5 60.4, 658.5 66.4" fill="none" stroke="#1d4ed8" stroke-width="1.2"/></g><g><circle cx="675.8" cy="62.4" r="4.3" fill="#fff7ed" stroke="#1d4ed8" stroke-width="2"><title>2026-07-14: 90 users</title></circle><path d="M 671.8 63.4 C 674.8 57.4, 680.8 60.4, 678.8 66.4" fill="none" stroke="#1d4ed8" stroke-width="1.2"/></g><g><circle cx="696.0" cy="62.4" r="4.3" fill="#fff7ed" stroke="#1d4ed8" stroke-width="2"><title>2026-07-15: 90 users</title></circle><path d="M 692.0 63.4 C 695.0 57.4, 701.0 60.4, 699.0 66.4" fill="none" stroke="#1d4ed8" stroke-width="1.2"/></g>
  <text x="48" y="206" fill="#57534e" font-family="'Comic Sans MS', 'Segoe Print', cursive" font-size="11">2026-06-13</text>
  <text x="696" y="206" fill="#57534e" font-family="'Comic Sans MS', 'Segoe Print', cursive" font-size="11" text-anchor="end">2026-07-15</text>
</svg>
