<svg xmlns="http://www.w3.org/2000/svg" width="720" height="220" viewBox="0 0 720 220" role="img" aria-label="Chrome Web Store users trend">
  <rect width="720" height="220" rx="8" fill="#fffdf7"/>
  <path d="M 11 8 C 190 3, 512 7, 710 11 M 714 11 C 717 74, 715 151, 711 211 M 708 214 C 523 218, 177 216, 12 211 M 9 211 C 4 145, 7 78, 11 8" fill="none" stroke="#292524" stroke-width="1.3" opacity="0.7"/>
  <text x="24" y="24" fill="#1c1917" font-family="'Comic Sans MS', 'Segoe Print', cursive" font-size="16" font-weight="700">Chrome Web Store users</text>
  <text x="696" y="24" fill="#1d4ed8" font-family="'Comic Sans MS', 'Segoe Print', cursive" font-size="16" font-weight="700" text-anchor="end">268 users</text>
  <text x="696" y="43" fill="#57534e" font-family="'Comic Sans MS', 'Segoe Print', cursive" font-size="11" text-anchor="end">Data through 2026-09-24</text>
  <g><path d="M 48 37.1 C 228 38.9, 468 37.1, 696 38.9" fill="none" stroke="#d6d3c8" stroke-width="1.1"/><text x="38" y="42" text-anchor="end" fill="#57534e" font-size="11">309</text></g>
  <g><path d="M 48 109.4 C 228 106.6, 468 109.4, 696 106.6" fill="none" stroke="#d6d3c8" stroke-width="1.1"/><text x="38" y="112" text-anchor="end" fill="#57534e" font-size="11">155</text></g>
  <g><path d="M 48 177.1 C 228 178.9, 468 177.1, 696 178.9" fill="none" stroke="#d6d3c8" stroke-width="1.1"/><text x="38" y="182" text-anchor="end" fill="#57534e" font-size="11">0</text></g>
  <path d="M 48 36 C 44 98, 50 156, 48 178" fill="none" stroke="#292524" stroke-width="1.4"/>
  <path d="M 46 178 C 218 182, 478 175, 696 179" fill="none" stroke="#292524" stroke-width="1.4"/>
  <path d="M 48.0 158.9 L 54.4 156.4 L 60.7 158.0 L 67.1 154.1 L 73.4 155.7 L 79.8 152.3 L 86.1 153.9 L 92.5 151.8 L 98.8 153.0 L 105.2 151.4 L 111.5 151.2 L 117.9 148.7 L 124.2 147.5 L 130.6 145.9 L 136.9 146.2 L 143.3 144.6 L 149.6 143.5 L 156.0 139.1 L 162.4 140.7 L 168.7 140.0 L 175.1 142.1 L 181.4 140.0 L 187.8 139.8 L 194.1 138.2 L 200.5 137.6 L 206.8 136.0 L 213.2 137.6 L 219.5 136.0 L 225.9 136.2 L 232.2 134.6 L 238.6 138.0 L 244.9 136.4 L 251.3 138.0 L 257.6 136.4 L 264.0 138.0 L 270.4 131.0 L 276.7 129.9 L 283.1 128.3 L 289.4 127.6 L 295.8 121.9 L 302.1 123.5 L 308.5 120.6 L 314.8 123.1 L 321.2 121.5 L 327.5 123.1 L 333.9 118.8 L 340.2 120.4 L 346.6 119.2 L 352.9 120.8 L 359.3 115.1 L 365.6 115.4 L 372.0 113.3 L 378.4 114.9 L 384.7 112.9 L 391.1 115.8 L 397.4 112.0 L 403.8 112.7 L 410.1 111.1 L 416.5 112.7 L 422.8 109.7 L 429.2 111.3 L 435.5 109.7 L 441.9 107.2 L 448.2 104.7 L 454.6 106.3 L 460.9 104.7 L 467.3 106.3 L 473.6 102.4 L 480.0 104.0 L 486.4 101.1 L 492.7 102.7 L 499.1 98.4 L 505.4 98.2 L 511.8 96.1 L 518.1 95.9 L 524.5 93.8 L 530.8 95.0 L 537.2 92.0 L 543.5 92.7 L 549.9 90.7 L 556.2 92.3 L 562.6 84.3 L 568.9 84.6 L 575.3 83.0 L 581.6 83.2 L 588.0 82.1 L 594.4 81.4 L 600.7 79.8 L 607.1 81.4 L 613.4 76.6 L 619.8 78.2 L 626.1 76.6 L 632.5 77.3 L 638.8 73.9 L 645.2 75.5 L 651.5 73.9 L 657.9 75.5 L 664.2 62.6 L 670.6 60.5 L 676.9 58.9 L 683.3 60.5 L 689.6 55.8 L 696.0 57.4" fill="none" stroke="#2563eb" stroke-width="3.6" stroke-linecap="round" stroke-linejoin="round"/>
  <path d="M 48.0 157.4 L 54.4 157.9 L 60.7 156.5 L 67.1 155.6 L 73.4 154.2 L 79.8 153.8 L 86.1 152.4 L 92.5 153.3 L 98.8 151.5 L 105.2 152.9 L 111.5 149.7 L 117.9 150.2 L 124.2 146.0 L 130.6 147.4 L 136.9 144.7 L 143.3 146.1 L 149.6 142.0 L 156.0 140.6 L 162.4 139.2 L 168.7 141.5 L 175.1 140.6 L 181.4 141.5 L 187.8 138.3 L 194.1 139.7 L 200.5 136.1 L 206.8 137.5 L 213.2 136.1 L 219.5 137.5 L 225.9 134.7 L 232.2 136.1 L 238.6 136.5 L 244.9 137.9 L 251.3 136.5 L 257.6 137.9 L 264.0 136.5 L 270.4 132.5 L 276.7 128.4 L 283.1 129.8 L 289.4 126.1 L 295.8 123.4 L 302.1 122.0 L 308.5 122.1 L 314.8 121.6 L 321.2 123.0 L 327.5 121.6 L 333.9 120.3 L 340.2 118.9 L 346.6 120.7 L 352.9 119.3 L 359.3 116.6 L 365.6 113.9 L 372.0 114.8 L 378.4 113.4 L 384.7 114.4 L 391.1 114.3 L 397.4 113.5 L 403.8 111.2 L 410.1 112.6 L 416.5 111.2 L 422.8 111.2 L 429.2 109.8 L 435.5 111.2 L 441.9 105.7 L 448.2 106.2 L 454.6 104.8 L 460.9 106.2 L 467.3 104.8 L 473.6 103.9 L 480.0 102.5 L 486.4 102.6 L 492.7 101.2 L 499.1 99.9 L 505.4 96.7 L 511.8 97.6 L 518.1 94.4 L 524.5 95.3 L 530.8 93.5 L 537.2 93.5 L 543.5 91.2 L 549.9 92.2 L 556.2 90.8 L 562.6 85.8 L 568.9 83.1 L 575.3 84.5 L 581.6 81.7 L 588.0 83.6 L 594.4 79.9 L 600.7 81.3 L 607.1 79.9 L 613.4 78.1 L 619.8 76.7 L 626.1 78.1 L 632.5 75.8 L 638.8 75.4 L 645.2 74.0 L 651.5 75.4 L 657.9 74.0 L 664.2 64.1 L 670.6 59.0 L 676.9 60.4 L 683.3 59.0 L 689.6 57.3 L 696.0 55.9" fill="none" stroke="#60a5fa" stroke-width="1.6" stroke-linecap="round" stroke-linejoin="round" opacity="0.85"/>
  <g><circle cx="48.0" cy="158.1" r="4.3" fill="#fff7ed" stroke="#1d4ed8" stroke-width="2"><title>2026-06-13: 44 users</title></circle><path d="M 44.0 159.1 C 47.0 153.1, 53.0 156.1, 51.0 162.1" fill="none" stroke="#1d4ed8" stroke-width="1.2"/></g><g><circle cx="54.4" cy="157.2" r="4.3" fill="#fff7ed" stroke="#1d4ed8" stroke-width="2"><title>2026-06-14: 46 users</title></circle><path d="M 50.4 158.2 C 53.4 152.2, 59.4 155.2, 57.4 161.2" fill="none" stroke="#1d4ed8" stroke-width="1.2"/></g><g><circle cx="60.7" cy="157.2" r="4.3" fill="#fff7ed" stroke="#1d4ed8" stroke-width="2"><title>2026-06-15: 46 users</title></circle><path d="M 56.7 158.2 C 59.7 152.2, 65.7 155.2, 63.7 161.2" fill="none" stroke="#1d4ed8" stroke-width="1.2"/></g><g><circle cx="67.1" cy="154.9" r="4.3" fill="#fff7ed" stroke="#1d4ed8" stroke-width="2"><title>2026-06-16: 51 users</title></circle><path d="M 63.1 155.9 C 66.1 149.9, 72.1 152.9, 70.1 158.9" fill="none" stroke="#1d4ed8" stroke-width="1.2"/></g><g><circle cx="73.4" cy="154.9" r="4.3" fill="#fff7ed" stroke="#1d4ed8" stroke-width="2"><title>2026-06-17: 51 users</title></circle><path d="M 69.4 155.9 C 72.4 149.9, 78.4 152.9, 76.4 158.9" fill="none" stroke="#1d4ed8" stroke-width="1.2"/></g><g><circle cx="79.8" cy="153.1" r="4.3" fill="#fff7ed" stroke="#1d4ed8" stroke-width="2"><title>2026-06-18: 55 users</title></circle><path d="M 75.8 154.1 C 78.8 148.1, 84.8 151.1, 82.8 157.1" fill="none" stroke="#1d4ed8" stroke-width="1.2"/></g><g><circle cx="86.1" cy="153.1" r="4.3" fill="#fff7ed" stroke="#1d4ed8" stroke-width="2"><title>2026-06-19: 55 users</title></circle><path d="M 82.1 154.1 C 85.1 148.1, 91.1 151.1, 89.1 157.1" fill="none" stroke="#1d4ed8" stroke-width="1.2"/></g><g><circle cx="92.5" cy="152.6" r="4.3" fill="#fff7ed" stroke="#1d4ed8" stroke-width="2"><title>2026-06-20: 56 users</title></circle><path d="M 88.5 153.6 C 91.5 147.6, 97.5 150.6, 95.5 156.6" fill="none" stroke="#1d4ed8" stroke-width="1.2"/></g><g><circle cx="98.8" cy="152.2" r="4.3" fill="#fff7ed" stroke="#1d4ed8" stroke-width="2"><title>2026-06-21: 57 users</title></circle><path d="M 94.8 153.2 C 97.8 147.2, 103.8 150.2, 101.8 156.2" fill="none" stroke="#1d4ed8" stroke-width="1.2"/></g><g><circle cx="105.2" cy="152.2" r="4.3" fill="#fff7ed" stroke="#1d4ed8" stroke-width="2"><title>2026-06-22: 57 users</title></circle><path d="M 101.2 153.2 C 104.2 147.2, 110.2 150.2, 108.2 156.2" fill="none" stroke="#1d4ed8" stroke-width="1.2"/></g><g><circle cx="111.5" cy="150.4" r="4.3" fill="#fff7ed" stroke="#1d4ed8" stroke-width="2"><title>2026-06-23: 61 users</title></circle><path d="M 107.5 151.4 C 110.5 145.4, 116.5 148.4, 114.5 154.4" fill="none" stroke="#1d4ed8" stroke-width="1.2"/></g><g><circle cx="117.9" cy="149.5" r="4.3" fill="#fff7ed" stroke="#1d4ed8" stroke-width="2"><title>2026-06-24: 63 users</title></circle><path d="M 113.9 150.5 C 116.9 144.5, 122.9 147.5, 120.9 153.5" fill="none" stroke="#1d4ed8" stroke-width="1.2"/></g><g><circle cx="124.2" cy="146.7" r="4.3" fill="#fff7ed" stroke="#1d4ed8" stroke-width="2"><title>2026-06-25: 69 users</title></circle><path d="M 120.2 147.7 C 123.2 141.7, 129.2 144.7, 127.2 150.7" fill="none" stroke="#1d4ed8" stroke-width="1.2"/></g><g><circle cx="130.6" cy="146.7" r="4.3" fill="#fff7ed" stroke="#1d4ed8" stroke-width="2"><title>2026-06-26: 69 users</title></circle><path d="M 126.6 147.7 C 129.6 141.7, 135.6 144.7, 133.6 150.7" fill="none" stroke="#1d4ed8" stroke-width="1.2"/></g><g><circle cx="136.9" cy="145.4" r="4.3" fill="#fff7ed" stroke="#1d4ed8" stroke-width="2"><title>2026-06-27: 72 users</title></circle><path d="M 132.9 146.4 C 135.9 140.4, 141.9 143.4, 139.9 149.4" fill="none" stroke="#1d4ed8" stroke-width="1.2"/></g><g><circle cx="143.3" cy="145.4" r="4.3" fill="#fff7ed" stroke="#1d4ed8" stroke-width="2"><title>2026-06-28: 72 users</title></circle><path d="M 139.3 146.4 C 142.3 140.4, 148.3 143.4, 146.3 149.4" fill="none" stroke="#1d4ed8" stroke-width="1.2"/></g><g><circle cx="149.6" cy="142.7" r="4.3" fill="#fff7ed" stroke="#1d4ed8" stroke-width="2"><title>2026-06-29: 78 users</title></circle><path d="M 145.6 143.7 C 148.6 137.7, 154.6 140.7, 152.6 146.7" fill="none" stroke="#1d4ed8" stroke-width="1.2"/></g><g><circle cx="156.0" cy="139.9" r="4.3" fill="#fff7ed" stroke="#1d4ed8" stroke-width="2"><title>2026-06-30: 84 users</title></circle><path d="M 152.0 140.9 C 155.0 134.9, 161.0 137.9, 159.0 143.9" fill="none" stroke="#1d4ed8" stroke-width="1.2"/></g><g><circle cx="162.4" cy="139.9" r="4.3" fill="#fff7ed" stroke="#1d4ed8" stroke-width="2"><title>2026-07-01: 84 users</title></circle><path d="M 158.4 140.9 C 161.4 134.9, 167.4 137.9, 165.4 143.9" fill="none" stroke="#1d4ed8" stroke-width="1.2"/></g><g><circle cx="168.7" cy="140.8" r="4.3" fill="#fff7ed" stroke="#1d4ed8" stroke-width="2"><title>2026-07-02: 82 users</title></circle><path d="M 164.7 141.8 C 167.7 135.8, 173.7 138.8, 171.7 144.8" fill="none" stroke="#1d4ed8" stroke-width="1.2"/></g><g><circle cx="175.1" cy="141.3" r="4.3" fill="#fff7ed" stroke="#1d4ed8" stroke-width="2"><title>2026-07-03: 81 users</title></circle><path d="M 171.1 142.3 C 174.1 136.3, 180.1 139.3, 178.1 145.3" fill="none" stroke="#1d4ed8" stroke-width="1.2"/></g><g><circle cx="181.4" cy="140.8" r="4.3" fill="#fff7ed" stroke="#1d4ed8" stroke-width="2"><title>2026-07-04: 82 users</title></circle><path d="M 177.4 141.8 C 180.4 135.8, 186.4 138.8, 184.4 144.8" fill="none" stroke="#1d4ed8" stroke-width="1.2"/></g><g><circle cx="187.8" cy="139.0" r="4.3" fill="#fff7ed" stroke="#1d4ed8" stroke-width="2"><title>2026-07-05: 86 users</title></circle><path d="M 183.8 140.0 C 186.8 134.0, 192.8 137.0, 190.8 143.0" fill="none" stroke="#1d4ed8" stroke-width="1.2"/></g><g><circle cx="194.1" cy="139.0" r="4.3" fill="#fff7ed" stroke="#1d4ed8" stroke-width="2"><title>2026-07-06: 86 users</title></circle><path d="M 190.1 140.0 C 193.1 134.0, 199.1 137.0, 197.1 143.0" fill="none" stroke="#1d4ed8" stroke-width="1.2"/></g><g><circle cx="200.5" cy="136.8" r="4.3" fill="#fff7ed" stroke="#1d4ed8" stroke-width="2"><title>2026-07-07: 91 users</title></circle><path d="M 196.5 137.8 C 199.5 131.8, 205.5 134.8, 203.5 140.8" fill="none" stroke="#1d4ed8" stroke-width="1.2"/></g><g><circle cx="206.8" cy="136.8" r="4.3" fill="#fff7ed" stroke="#1d4ed8" stroke-width="2"><title>2026-07-08: 91 users</title></circle><path d="M 202.8 137.8 C 205.8 131.8, 211.8 134.8, 209.8 140.8" fill="none" stroke="#1d4ed8" stroke-width="1.2"/></g><g><circle cx="213.2" cy="136.8" r="4.3" fill="#fff7ed" stroke="#1d4ed8" stroke-width="2"><title>2026-07-09: 91 users</title></circle><path d="M 209.2 137.8 C 212.2 131.8, 218.2 134.8, 216.2 140.8" fill="none" stroke="#1d4ed8" stroke-width="1.2"/></g><g><circle cx="219.5" cy="136.8" r="4.3" fill="#fff7ed" stroke="#1d4ed8" stroke-width="2"><title>2026-07-10: 91 users</title></circle><path d="M 215.5 137.8 C 218.5 131.8, 224.5 134.8, 222.5 140.8" fill="none" stroke="#1d4ed8" stroke-width="1.2"/></g><g><circle cx="225.9" cy="135.4" r="4.3" fill="#fff7ed" stroke="#1d4ed8" stroke-width="2"><title>2026-07-11: 94 users</title></circle><path d="M 221.9 136.4 C 224.9 130.4, 230.9 133.4, 228.9 139.4" fill="none" stroke="#1d4ed8" stroke-width="1.2"/></g><g><circle cx="232.2" cy="135.4" r="4.3" fill="#fff7ed" stroke="#1d4ed8" stroke-width="2"><title>2026-07-12: 94 users</title></circle><path d="M 228.2 136.4 C 231.2 130.4, 237.2 133.4, 235.2 139.4" fill="none" stroke="#1d4ed8" stroke-width="1.2"/></g><g><circle cx="238.6" cy="137.2" r="4.3" fill="#fff7ed" stroke="#1d4ed8" stroke-width="2"><title>2026-07-13: 90 users</title></circle><path d="M 234.6 138.2 C 237.6 132.2, 243.6 135.2, 241.6 141.2" fill="none" stroke="#1d4ed8" stroke-width="1.2"/></g><g><circle cx="244.9" cy="137.2" r="4.3" fill="#fff7ed" stroke="#1d4ed8" stroke-width="2"><title>2026-07-14: 90 users</title></circle><path d="M 240.9 138.2 C 243.9 132.2, 249.9 135.2, 247.9 141.2" fill="none" stroke="#1d4ed8" stroke-width="1.2"/></g><g><circle cx="251.3" cy="137.2" r="4.3" fill="#fff7ed" stroke="#1d4ed8" stroke-width="2"><title>2026-07-15: 90 users</title></circle><path d="M 247.3 138.2 C 250.3 132.2, 256.3 135.2, 254.3 141.2" fill="none" stroke="#1d4ed8" stroke-width="1.2"/></g><g><circle cx="257.6" cy="137.2" r="4.3" fill="#fff7ed" stroke="#1d4ed8" stroke-width="2"><title>2026-07-16: 90 users</title></circle><path d="M 253.6 138.2 C 256.6 132.2, 262.6 135.2, 260.6 141.2" fill="none" stroke="#1d4ed8" stroke-width="1.2"/></g><g><circle cx="264.0" cy="137.2" r="4.3" fill="#fff7ed" stroke="#1d4ed8" stroke-width="2"><title>2026-07-17: 90 users</title></circle><path d="M 260.0 138.2 C 263.0 132.2, 269.0 135.2, 267.0 141.2" fill="none" stroke="#1d4ed8" stroke-width="1.2"/></g><g><circle cx="270.4" cy="131.8" r="4.3" fill="#fff7ed" stroke="#1d4ed8" stroke-width="2"><title>2026-07-18: 102 users</title></circle><path d="M 266.4 132.8 C 269.4 126.8, 275.4 129.8, 273.4 135.8" fill="none" stroke="#1d4ed8" stroke-width="1.2"/></g><g><circle cx="276.7" cy="129.1" r="4.3" fill="#fff7ed" stroke="#1d4ed8" stroke-width="2"><title>2026-07-19: 108 users</title></circle><path d="M 272.7 130.1 C 275.7 124.1, 281.7 127.1, 279.7 133.1" fill="none" stroke="#1d4ed8" stroke-width="1.2"/></g><g><circle cx="283.1" cy="129.1" r="4.3" fill="#fff7ed" stroke="#1d4ed8" stroke-width="2"><title>2026-07-20: 108 users</title></circle><path d="M 279.1 130.1 C 282.1 124.1, 288.1 127.1, 286.1 133.1" fill="none" stroke="#1d4ed8" stroke-width="1.2"/></g><g><circle cx="289.4" cy="126.8" r="4.3" fill="#fff7ed" stroke="#1d4ed8" stroke-width="2"><title>2026-07-21: 113 users</title></circle><path d="M 285.4 127.8 C 288.4 121.8, 294.4 124.8, 292.4 130.8" fill="none" stroke="#1d4ed8" stroke-width="1.2"/></g><g><circle cx="295.8" cy="122.7" r="4.3" fill="#fff7ed" stroke="#1d4ed8" stroke-width="2"><title>2026-07-22: 122 users</title></circle><path d="M 291.8 123.7 C 294.8 117.7, 300.8 120.7, 298.8 126.7" fill="none" stroke="#1d4ed8" stroke-width="1.2"/></g><g><circle cx="302.1" cy="122.7" r="4.3" fill="#fff7ed" stroke="#1d4ed8" stroke-width="2"><title>2026-07-23: 122 users</title></circle><path d="M 298.1 123.7 C 301.1 117.7, 307.1 120.7, 305.1 126.7" fill="none" stroke="#1d4ed8" stroke-width="1.2"/></g><g><circle cx="308.5" cy="121.4" r="4.3" fill="#fff7ed" stroke="#1d4ed8" stroke-width="2"><title>2026-07-24: 125 users</title></circle><path d="M 304.5 122.4 C 307.5 116.4, 313.5 119.4, 311.5 125.4" fill="none" stroke="#1d4ed8" stroke-width="1.2"/></g><g><circle cx="314.8" cy="122.3" r="4.3" fill="#fff7ed" stroke="#1d4ed8" stroke-width="2"><title>2026-07-25: 123 users</title></circle><path d="M 310.8 123.3 C 313.8 117.3, 319.8 120.3, 317.8 126.3" fill="none" stroke="#1d4ed8" stroke-width="1.2"/></g><g><circle cx="321.2" cy="122.3" r="4.3" fill="#fff7ed" stroke="#1d4ed8" stroke-width="2"><title>2026-07-26: 123 users</title></circle><path d="M 317.2 123.3 C 320.2 117.3, 326.2 120.3, 324.2 126.3" fill="none" stroke="#1d4ed8" stroke-width="1.2"/></g><g><circle cx="327.5" cy="122.3" r="4.3" fill="#fff7ed" stroke="#1d4ed8" stroke-width="2"><title>2026-07-27: 123 users</title></circle><path d="M 323.5 123.3 C 326.5 117.3, 332.5 120.3, 330.5 126.3" fill="none" stroke="#1d4ed8" stroke-width="1.2"/></g><g><circle cx="333.9" cy="119.6" r="4.3" fill="#fff7ed" stroke="#1d4ed8" stroke-width="2"><title>2026-07-28: 129 users</title></circle><path d="M 329.9 120.6 C 332.9 114.6, 338.9 117.6, 336.9 123.6" fill="none" stroke="#1d4ed8" stroke-width="1.2"/></g><g><circle cx="340.2" cy="119.6" r="4.3" fill="#fff7ed" stroke="#1d4ed8" stroke-width="2"><title>2026-07-29: 129 users</title></circle><path d="M 336.2 120.6 C 339.2 114.6, 345.2 117.6, 343.2 123.6" fill="none" stroke="#1d4ed8" stroke-width="1.2"/></g><g><circle cx="346.6" cy="120.0" r="4.3" fill="#fff7ed" stroke="#1d4ed8" stroke-width="2"><title>2026-07-30: 128 users</title></circle><path d="M 342.6 121.0 C 345.6 115.0, 351.6 118.0, 349.6 124.0" fill="none" stroke="#1d4ed8" stroke-width="1.2"/></g><g><circle cx="352.9" cy="120.0" r="4.3" fill="#fff7ed" stroke="#1d4ed8" stroke-width="2"><title>2026-07-31: 128 users</title></circle><path d="M 348.9 121.0 C 351.9 115.0, 357.9 118.0, 355.9 124.0" fill="none" stroke="#1d4ed8" stroke-width="1.2"/></g><g><circle cx="359.3" cy="115.9" r="4.3" fill="#fff7ed" stroke="#1d4ed8" stroke-width="2"><title>2026-08-01: 137 users</title></circle><path d="M 355.3 116.9 C 358.3 110.9, 364.3 113.9, 362.3 119.9" fill="none" stroke="#1d4ed8" stroke-width="1.2"/></g><g><circle cx="365.6" cy="114.6" r="4.3" fill="#fff7ed" stroke="#1d4ed8" stroke-width="2"><title>2026-08-02: 140 users</title></circle><path d="M 361.6 115.6 C 364.6 109.6, 370.6 112.6, 368.6 118.6" fill="none" stroke="#1d4ed8" stroke-width="1.2"/></g><g><circle cx="372.0" cy="114.1" r="4.3" fill="#fff7ed" stroke="#1d4ed8" stroke-width="2"><title>2026-08-03: 141 users</title></circle><path d="M 368.0 115.1 C 371.0 109.1, 377.0 112.1, 375.0 118.1" fill="none" stroke="#1d4ed8" stroke-width="1.2"/></g><g><circle cx="378.4" cy="114.1" r="4.3" fill="#fff7ed" stroke="#1d4ed8" stroke-width="2"><title>2026-08-04: 141 users</title></circle><path d="M 374.4 115.1 C 377.4 109.1, 383.4 112.1, 381.4 118.1" fill="none" stroke="#1d4ed8" stroke-width="1.2"/></g><g><circle cx="384.7" cy="113.7" r="4.3" fill="#fff7ed" stroke="#1d4ed8" stroke-width="2"><title>2026-08-06: 142 users</title></circle><path d="M 380.7 114.7 C 383.7 108.7, 389.7 111.7, 387.7 117.7" fill="none" stroke="#1d4ed8" stroke-width="1.2"/></g><g><circle cx="391.1" cy="115.0" r="4.3" fill="#fff7ed" stroke="#1d4ed8" stroke-width="2"><title>2026-08-07: 139 users</title></circle><path d="M 387.1 116.0 C 390.1 110.0, 396.1 113.0, 394.1 119.0" fill="none" stroke="#1d4ed8" stroke-width="1.2"/></g><g><circle cx="397.4" cy="112.8" r="4.3" fill="#fff7ed" stroke="#1d4ed8" stroke-width="2"><title>2026-08-08: 144 users</title></circle><path d="M 393.4 113.8 C 396.4 107.8, 402.4 110.8, 400.4 116.8" fill="none" stroke="#1d4ed8" stroke-width="1.2"/></g><g><circle cx="403.8" cy="111.9" r="4.3" fill="#fff7ed" stroke="#1d4ed8" stroke-width="2"><title>2026-08-09: 146 users</title></circle><path d="M 399.8 112.9 C 402.8 106.9, 408.8 109.9, 406.8 115.9" fill="none" stroke="#1d4ed8" stroke-width="1.2"/></g><g><circle cx="410.1" cy="111.9" r="4.3" fill="#fff7ed" stroke="#1d4ed8" stroke-width="2"><title>2026-08-10: 146 users</title></circle><path d="M 406.1 112.9 C 409.1 106.9, 415.1 109.9, 413.1 115.9" fill="none" stroke="#1d4ed8" stroke-width="1.2"/></g><g><circle cx="416.5" cy="111.9" r="4.3" fill="#fff7ed" stroke="#1d4ed8" stroke-width="2"><title>2026-08-11: 146 users</title></circle><path d="M 412.5 112.9 C 415.5 106.9, 421.5 109.9, 419.5 115.9" fill="none" stroke="#1d4ed8" stroke-width="1.2"/></g><g><circle cx="422.8" cy="110.5" r="4.3" fill="#fff7ed" stroke="#1d4ed8" stroke-width="2"><title>2026-08-12: 149 users</title></circle><path d="M 418.8 111.5 C 421.8 105.5, 427.8 108.5, 425.8 114.5" fill="none" stroke="#1d4ed8" stroke-width="1.2"/></g><g><circle cx="429.2" cy="110.5" r="4.3" fill="#fff7ed" stroke="#1d4ed8" stroke-width="2"><title>2026-08-13: 149 users</title></circle><path d="M 425.2 111.5 C 428.2 105.5, 434.2 108.5, 432.2 114.5" fill="none" stroke="#1d4ed8" stroke-width="1.2"/></g><g><circle cx="435.5" cy="110.5" r="4.3" fill="#fff7ed" stroke="#1d4ed8" stroke-width="2"><title>2026-08-14: 149 users</title></circle><path d="M 431.5 111.5 C 434.5 105.5, 440.5 108.5, 438.5 114.5" fill="none" stroke="#1d4ed8" stroke-width="1.2"/></g><g><circle cx="441.9" cy="106.4" r="4.3" fill="#fff7ed" stroke="#1d4ed8" stroke-width="2"><title>2026-08-15: 158 users</title></circle><path d="M 437.9 107.4 C 440.9 101.4, 446.9 104.4, 444.9 110.4" fill="none" stroke="#1d4ed8" stroke-width="1.2"/></g><g><circle cx="448.2" cy="105.5" r="4.3" fill="#fff7ed" stroke="#1d4ed8" stroke-width="2"><title>2026-08-16: 160 users</title></circle><path d="M 444.2 106.5 C 447.2 100.5, 453.2 103.5, 451.2 109.5" fill="none" stroke="#1d4ed8" stroke-width="1.2"/></g><g><circle cx="454.6" cy="105.5" r="4.3" fill="#fff7ed" stroke="#1d4ed8" stroke-width="2"><title>2026-08-17: 160 users</title></circle><path d="M 450.6 106.5 C 453.6 100.5, 459.6 103.5, 457.6 109.5" fill="none" stroke="#1d4ed8" stroke-width="1.2"/></g><g><circle cx="460.9" cy="105.5" r="4.3" fill="#fff7ed" stroke="#1d4ed8" stroke-width="2"><title>2026-08-18: 160 users</title></circle><path d="M 456.9 106.5 C 459.9 100.5, 465.9 103.5, 463.9 109.5" fill="none" stroke="#1d4ed8" stroke-width="1.2"/></g><g><circle cx="467.3" cy="105.5" r="4.3" fill="#fff7ed" stroke="#1d4ed8" stroke-width="2"><title>2026-08-19: 160 users</title></circle><path d="M 463.3 106.5 C 466.3 100.5, 472.3 103.5, 470.3 109.5" fill="none" stroke="#1d4ed8" stroke-width="1.2"/></g><g><circle cx="473.6" cy="103.2" r="4.3" fill="#fff7ed" stroke="#1d4ed8" stroke-width="2"><title>2026-08-20: 165 users</title></circle><path d="M 469.6 104.2 C 472.6 98.2, 478.6 101.2, 476.6 107.2" fill="none" stroke="#1d4ed8" stroke-width="1.2"/></g><g><circle cx="480.0" cy="103.2" r="4.3" fill="#fff7ed" stroke="#1d4ed8" stroke-width="2"><title>2026-08-21: 165 users</title></circle><path d="M 476.0 104.2 C 479.0 98.2, 485.0 101.2, 483.0 107.2" fill="none" stroke="#1d4ed8" stroke-width="1.2"/></g><g><circle cx="486.4" cy="101.9" r="4.3" fill="#fff7ed" stroke="#1d4ed8" stroke-width="2"><title>2026-08-22: 168 users</title></circle><path d="M 482.4 102.9 C 485.4 96.9, 491.4 99.9, 489.4 105.9" fill="none" stroke="#1d4ed8" stroke-width="1.2"/></g><g><circle cx="492.7" cy="101.9" r="4.3" fill="#fff7ed" stroke="#1d4ed8" stroke-width="2"><title>2026-08-23: 168 users</title></circle><path d="M 488.7 102.9 C 491.7 96.9, 497.7 99.9, 495.7 105.9" fill="none" stroke="#1d4ed8" stroke-width="1.2"/></g><g><circle cx="499.1" cy="99.2" r="4.3" fill="#fff7ed" stroke="#1d4ed8" stroke-width="2"><title>2026-08-24: 174 users</title></circle><path d="M 495.1 100.2 C 498.1 94.2, 504.1 97.2, 502.1 103.2" fill="none" stroke="#1d4ed8" stroke-width="1.2"/></g><g><circle cx="505.4" cy="97.4" r="4.3" fill="#fff7ed" stroke="#1d4ed8" stroke-width="2"><title>2026-08-25: 178 users</title></circle><path d="M 501.4 98.4 C 504.4 92.4, 510.4 95.4, 508.4 101.4" fill="none" stroke="#1d4ed8" stroke-width="1.2"/></g><g><circle cx="511.8" cy="96.9" r="4.3" fill="#fff7ed" stroke="#1d4ed8" stroke-width="2"><title>2026-08-26: 179 users</title></circle><path d="M 507.8 97.9 C 510.8 91.9, 516.8 94.9, 514.8 100.9" fill="none" stroke="#1d4ed8" stroke-width="1.2"/></g><g><circle cx="518.1" cy="95.1" r="4.3" fill="#fff7ed" stroke="#1d4ed8" stroke-width="2"><title>2026-08-27: 183 users</title></circle><path d="M 514.1 96.1 C 517.1 90.1, 523.1 93.1, 521.1 99.1" fill="none" stroke="#1d4ed8" stroke-width="1.2"/></g><g><circle cx="524.5" cy="94.6" r="4.3" fill="#fff7ed" stroke="#1d4ed8" stroke-width="2"><title>2026-08-28: 184 users</title></circle><path d="M 520.5 95.6 C 523.5 89.6, 529.5 92.6, 527.5 98.6" fill="none" stroke="#1d4ed8" stroke-width="1.2"/></g><g><circle cx="530.8" cy="94.2" r="4.3" fill="#fff7ed" stroke="#1d4ed8" stroke-width="2"><title>2026-08-29: 185 users</title></circle><path d="M 526.8 95.2 C 529.8 89.2, 535.8 92.2, 533.8 98.2" fill="none" stroke="#1d4ed8" stroke-width="1.2"/></g><g><circle cx="537.2" cy="92.8" r="4.3" fill="#fff7ed" stroke="#1d4ed8" stroke-width="2"><title>2026-08-30: 188 users</title></circle><path d="M 533.2 93.8 C 536.2 87.8, 542.2 90.8, 540.2 96.8" fill="none" stroke="#1d4ed8" stroke-width="1.2"/></g><g><circle cx="543.5" cy="91.9" r="4.3" fill="#fff7ed" stroke="#1d4ed8" stroke-width="2"><title>2026-08-31: 190 users</title></circle><path d="M 539.5 92.9 C 542.5 86.9, 548.5 89.9, 546.5 95.9" fill="none" stroke="#1d4ed8" stroke-width="1.2"/></g><g><circle cx="549.9" cy="91.5" r="4.3" fill="#fff7ed" stroke="#1d4ed8" stroke-width="2"><title>2026-09-01: 191 users</title></circle><path d="M 545.9 92.5 C 548.9 86.5, 554.9 89.5, 552.9 95.5" fill="none" stroke="#1d4ed8" stroke-width="1.2"/></g><g><circle cx="556.2" cy="91.5" r="4.3" fill="#fff7ed" stroke="#1d4ed8" stroke-width="2"><title>2026-09-02: 191 users</title></circle><path d="M 552.2 92.5 C 555.2 86.5, 561.2 89.5, 559.2 95.5" fill="none" stroke="#1d4ed8" stroke-width="1.2"/></g><g><circle cx="562.6" cy="85.1" r="4.3" fill="#fff7ed" stroke="#1d4ed8" stroke-width="2"><title>2026-09-03: 205 users</title></circle><path d="M 558.6 86.1 C 561.6 80.1, 567.6 83.1, 565.6 89.1" fill="none" stroke="#1d4ed8" stroke-width="1.2"/></g><g><circle cx="568.9" cy="83.8" r="4.3" fill="#fff7ed" stroke="#1d4ed8" stroke-width="2"><title>2026-09-04: 208 users</title></circle><path d="M 564.9 84.8 C 567.9 78.8, 573.9 81.8, 571.9 87.8" fill="none" stroke="#1d4ed8" stroke-width="1.2"/></g><g><circle cx="575.3" cy="83.8" r="4.3" fill="#fff7ed" stroke="#1d4ed8" stroke-width="2"><title>2026-09-05: 208 users</title></circle><path d="M 571.3 84.8 C 574.3 78.8, 580.3 81.8, 578.3 87.8" fill="none" stroke="#1d4ed8" stroke-width="1.2"/></g><g><circle cx="581.6" cy="82.4" r="4.3" fill="#fff7ed" stroke="#1d4ed8" stroke-width="2"><title>2026-09-06: 211 users</title></circle><path d="M 577.6 83.4 C 580.6 77.4, 586.6 80.4, 584.6 86.4" fill="none" stroke="#1d4ed8" stroke-width="1.2"/></g><g><circle cx="588.0" cy="82.9" r="4.3" fill="#fff7ed" stroke="#1d4ed8" stroke-width="2"><title>2026-09-07: 210 users</title></circle><path d="M 584.0 83.9 C 587.0 77.9, 593.0 80.9, 591.0 86.9" fill="none" stroke="#1d4ed8" stroke-width="1.2"/></g><g><circle cx="594.4" cy="80.6" r="4.3" fill="#fff7ed" stroke="#1d4ed8" stroke-width="2"><title>2026-09-08: 215 users</title></circle><path d="M 590.4 81.6 C 593.4 75.6, 599.4 78.6, 597.4 84.6" fill="none" stroke="#1d4ed8" stroke-width="1.2"/></g><g><circle cx="600.7" cy="80.6" r="4.3" fill="#fff7ed" stroke="#1d4ed8" stroke-width="2"><title>2026-09-09: 215 users</title></circle><path d="M 596.7 81.6 C 599.7 75.6, 605.7 78.6, 603.7 84.6" fill="none" stroke="#1d4ed8" stroke-width="1.2"/></g><g><circle cx="607.1" cy="80.6" r="4.3" fill="#fff7ed" stroke="#1d4ed8" stroke-width="2"><title>2026-09-10: 215 users</title></circle><path d="M 603.1 81.6 C 606.1 75.6, 612.1 78.6, 610.1 84.6" fill="none" stroke="#1d4ed8" stroke-width="1.2"/></g><g><circle cx="613.4" cy="77.4" r="4.3" fill="#fff7ed" stroke="#1d4ed8" stroke-width="2"><title>2026-09-11: 222 users</title></circle><path d="M 609.4 78.4 C 612.4 72.4, 618.4 75.4, 616.4 81.4" fill="none" stroke="#1d4ed8" stroke-width="1.2"/></g><g><circle cx="619.8" cy="77.4" r="4.3" fill="#fff7ed" stroke="#1d4ed8" stroke-width="2"><title>2026-09-12: 222 users</title></circle><path d="M 615.8 78.4 C 618.8 72.4, 624.8 75.4, 622.8 81.4" fill="none" stroke="#1d4ed8" stroke-width="1.2"/></g><g><circle cx="626.1" cy="77.4" r="4.3" fill="#fff7ed" stroke="#1d4ed8" stroke-width="2"><title>2026-09-13: 222 users</title></circle><path d="M 622.1 78.4 C 625.1 72.4, 631.1 75.4, 629.1 81.4" fill="none" stroke="#1d4ed8" stroke-width="1.2"/></g><g><circle cx="632.5" cy="76.5" r="4.3" fill="#fff7ed" stroke="#1d4ed8" stroke-width="2"><title>2026-09-14: 224 users</title></circle><path d="M 628.5 77.5 C 631.5 71.5, 637.5 74.5, 635.5 80.5" fill="none" stroke="#1d4ed8" stroke-width="1.2"/></g><g><circle cx="638.8" cy="74.7" r="4.3" fill="#fff7ed" stroke="#1d4ed8" stroke-width="2"><title>2026-09-15: 228 users</title></circle><path d="M 634.8 75.7 C 637.8 69.7, 643.8 72.7, 641.8 78.7" fill="none" stroke="#1d4ed8" stroke-width="1.2"/></g><g><circle cx="645.2" cy="74.7" r="4.3" fill="#fff7ed" stroke="#1d4ed8" stroke-width="2"><title>2026-09-16: 228 users</title></circle><path d="M 641.2 75.7 C 644.2 69.7, 650.2 72.7, 648.2 78.7" fill="none" stroke="#1d4ed8" stroke-width="1.2"/></g><g><circle cx="651.5" cy="74.7" r="4.3" fill="#fff7ed" stroke="#1d4ed8" stroke-width="2"><title>2026-09-17: 228 users</title></circle><path d="M 647.5 75.7 C 650.5 69.7, 656.5 72.7, 654.5 78.7" fill="none" stroke="#1d4ed8" stroke-width="1.2"/></g><g><circle cx="657.9" cy="74.7" r="4.3" fill="#fff7ed" stroke="#1d4ed8" stroke-width="2"><title>2026-09-18: 228 users</title></circle><path d="M 653.9 75.7 C 656.9 69.7, 662.9 72.7, 660.9 78.7" fill="none" stroke="#1d4ed8" stroke-width="1.2"/></g><g><circle cx="664.2" cy="63.4" r="4.3" fill="#fff7ed" stroke="#1d4ed8" stroke-width="2"><title>2026-09-19: 253 users</title></circle><path d="M 660.2 64.4 C 663.2 58.4, 669.2 61.4, 667.2 67.4" fill="none" stroke="#1d4ed8" stroke-width="1.2"/></g><g><circle cx="670.6" cy="59.7" r="4.3" fill="#fff7ed" stroke="#1d4ed8" stroke-width="2"><title>2026-09-20: 261 users</title></circle><path d="M 666.6 60.7 C 669.6 54.7, 675.6 57.7, 673.6 63.7" fill="none" stroke="#1d4ed8" stroke-width="1.2"/></g><g><circle cx="676.9" cy="59.7" r="4.3" fill="#fff7ed" stroke="#1d4ed8" stroke-width="2"><title>2026-09-21: 261 users</title></circle><path d="M 672.9 60.7 C 675.9 54.7, 681.9 57.7, 679.9 63.7" fill="none" stroke="#1d4ed8" stroke-width="1.2"/></g><g><circle cx="683.3" cy="59.7" r="4.3" fill="#fff7ed" stroke="#1d4ed8" stroke-width="2"><title>2026-09-22: 261 users</title></circle><path d="M 679.3 60.7 C 682.3 54.7, 688.3 57.7, 686.3 63.7" fill="none" stroke="#1d4ed8" stroke-width="1.2"/></g><g><circle cx="689.6" cy="56.6" r="4.3" fill="#fff7ed" stroke="#1d4ed8" stroke-width="2"><title>2026-09-23: 268 users</title></circle><path d="M 685.6 57.6 C 688.6 51.6, 694.6 54.6, 692.6 60.6" fill="none" stroke="#1d4ed8" stroke-width="1.2"/></g><g><circle cx="696.0" cy="56.6" r="4.3" fill="#fff7ed" stroke="#1d4ed8" stroke-width="2"><title>2026-09-24: 268 users</title></circle><path d="M 692.0 57.6 C 695.0 51.6, 701.0 54.6, 699.0 60.6" fill="none" stroke="#1d4ed8" stroke-width="1.2"/></g>
  <text x="48" y="206" fill="#57534e" font-family="'Comic Sans MS', 'Segoe Print', cursive" font-size="11">2026-06-13</text>
  <text x="696" y="206" fill="#57534e" font-family="'Comic Sans MS', 'Segoe Print', cursive" font-size="11" text-anchor="end">2026-09-24</text>
</svg>
