<svg xmlns="http://www.w3.org/2000/svg" width="720" height="220" viewBox="0 0 720 220" role="img" aria-label="Chrome Web Store users trend">
  <rect width="720" height="220" rx="8" fill="#fffdf7"/>
  <path d="M 11 8 C 190 3, 512 7, 710 11 M 714 11 C 717 74, 715 151, 711 211 M 708 214 C 523 218, 177 216, 12 211 M 9 211 C 4 145, 7 78, 11 8" fill="none" stroke="#292524" stroke-width="1.3" opacity="0.7"/>
  <text x="24" y="24" fill="#1c1917" font-family="'Comic Sans MS', 'Segoe Print', cursive" font-size="16" font-weight="700">Chrome Web Store users</text>
  <text x="696" y="24" fill="#1d4ed8" font-family="'Comic Sans MS', 'Segoe Print', cursive" font-size="16" font-weight="700" text-anchor="end">296 users</text>
  <text x="696" y="43" fill="#57534e" font-family="'Comic Sans MS', 'Segoe Print', cursive" font-size="11" text-anchor="end">Data through 2026-10-09</text>
  <g><path d="M 48 37.1 C 228 38.9, 468 37.1, 696 38.9" fill="none" stroke="#d6d3c8" stroke-width="1.1"/><text x="38" y="42" text-anchor="end" fill="#57534e" font-size="11">341</text></g>
  <g><path d="M 48 109.4 C 228 106.6, 468 109.4, 696 106.6" fill="none" stroke="#d6d3c8" stroke-width="1.1"/><text x="38" y="112" text-anchor="end" fill="#57534e" font-size="11">171</text></g>
  <g><path d="M 48 177.1 C 228 178.9, 468 177.1, 696 178.9" fill="none" stroke="#d6d3c8" stroke-width="1.1"/><text x="38" y="182" text-anchor="end" fill="#57534e" font-size="11">0</text></g>
  <path d="M 48 36 C 44 98, 50 156, 48 178" fill="none" stroke="#292524" stroke-width="1.4"/>
  <path d="M 46 178 C 218 182, 478 175, 696 179" fill="none" stroke="#292524" stroke-width="1.4"/>
  <path d="M 48.0 160.7 L 53.5 158.3 L 59.1 159.9 L 64.6 156.3 L 70.2 157.9 L 75.7 154.6 L 81.2 156.2 L 86.8 154.2 L 92.3 155.4 L 97.8 153.8 L 103.4 153.8 L 108.9 151.3 L 114.5 150.5 L 120.0 148.9 L 125.5 149.2 L 131.1 147.6 L 136.6 146.8 L 142.2 142.7 L 147.7 144.3 L 153.2 143.5 L 158.8 145.5 L 164.3 143.5 L 169.8 143.5 L 175.4 141.9 L 180.9 141.4 L 186.5 139.8 L 192.0 141.4 L 197.5 139.8 L 203.1 140.2 L 208.6 138.6 L 214.2 141.8 L 219.7 140.2 L 225.2 141.8 L 230.8 140.2 L 236.3 141.8 L 241.8 135.3 L 247.4 134.5 L 252.9 132.9 L 258.5 132.4 L 264.0 127.1 L 269.5 128.7 L 275.1 125.9 L 280.6 128.3 L 286.2 126.7 L 291.7 128.3 L 297.2 124.2 L 302.8 125.8 L 308.3 124.6 L 313.8 126.2 L 319.4 121.0 L 324.9 121.3 L 330.5 119.3 L 336.0 120.9 L 341.5 118.9 L 347.1 121.7 L 352.6 118.1 L 358.2 118.9 L 363.7 117.3 L 369.2 118.9 L 374.8 116.0 L 380.3 117.6 L 385.8 116.0 L 391.4 113.9 L 396.9 111.5 L 402.5 113.1 L 408.0 111.5 L 413.5 113.1 L 419.1 109.5 L 424.6 111.1 L 430.2 108.2 L 435.7 109.8 L 441.2 105.8 L 446.8 105.7 L 452.3 103.7 L 457.8 103.7 L 463.4 101.7 L 468.9 102.8 L 474.5 100.0 L 480.0 100.8 L 485.5 98.8 L 491.1 100.4 L 496.6 93.0 L 502.2 93.4 L 507.7 91.8 L 513.2 92.2 L 518.8 91.0 L 524.3 90.5 L 529.8 88.9 L 535.4 90.5 L 540.9 86.1 L 546.5 87.7 L 552.0 86.1 L 557.5 86.8 L 563.1 83.6 L 568.6 85.2 L 574.2 83.6 L 579.7 85.2 L 585.2 73.3 L 590.8 71.6 L 596.3 70.0 L 601.8 71.6 L 607.4 67.2 L 612.9 68.8 L 618.5 61.8 L 624.0 63.4 L 629.5 62.7 L 635.1 64.3 L 640.6 62.7 L 646.2 64.3 L 651.7 62.7 L 657.2 64.3 L 662.8 62.7 L 668.3 64.3 L 673.8 62.7 L 679.4 64.3 L 684.9 68.4 L 690.5 65.9 L 696.0 55.7" fill="none" stroke="#2563eb" stroke-width="3.6" stroke-linecap="round" stroke-linejoin="round"/>
  <path d="M 48.0 159.2 L 53.5 159.8 L 59.1 158.4 L 64.6 157.8 L 70.2 156.4 L 75.7 156.1 L 81.2 154.7 L 86.8 155.7 L 92.3 153.9 L 97.8 155.3 L 103.4 152.3 L 108.9 152.8 L 114.5 149.0 L 120.0 150.4 L 125.5 147.7 L 131.1 149.1 L 136.6 145.3 L 142.2 144.2 L 147.7 142.8 L 153.2 145.0 L 158.8 144.0 L 164.3 145.0 L 169.8 142.0 L 175.4 143.4 L 180.9 139.9 L 186.5 141.3 L 192.0 139.9 L 197.5 141.3 L 203.1 138.7 L 208.6 140.1 L 214.2 140.3 L 219.7 141.7 L 225.2 140.3 L 230.8 141.7 L 236.3 140.3 L 241.8 136.8 L 247.4 133.0 L 252.9 134.4 L 258.5 130.9 L 264.0 128.6 L 269.5 127.2 L 275.1 127.4 L 280.6 126.8 L 286.2 128.2 L 291.7 126.8 L 297.2 125.7 L 302.8 124.3 L 308.3 126.1 L 313.8 124.7 L 319.4 122.5 L 324.9 119.8 L 330.5 120.8 L 336.0 119.4 L 341.5 120.4 L 347.1 120.2 L 352.6 119.6 L 358.2 117.4 L 363.7 118.8 L 369.2 117.4 L 374.8 117.5 L 380.3 116.1 L 385.8 117.5 L 391.4 112.4 L 396.9 113.0 L 402.5 111.6 L 408.0 113.0 L 413.5 111.6 L 419.1 111.0 L 424.6 109.6 L 430.2 109.7 L 435.7 108.3 L 441.2 107.3 L 446.8 104.2 L 452.3 105.2 L 457.8 102.2 L 463.4 103.2 L 468.9 101.3 L 474.5 101.5 L 480.0 99.3 L 485.5 100.3 L 491.1 98.9 L 496.6 94.5 L 502.2 91.9 L 507.7 93.3 L 513.2 90.7 L 518.8 92.5 L 524.3 89.0 L 529.8 90.4 L 535.4 89.0 L 540.9 87.6 L 546.5 86.2 L 552.0 87.6 L 557.5 85.3 L 563.1 85.1 L 568.6 83.7 L 574.2 85.1 L 579.7 83.7 L 585.2 74.8 L 590.8 70.1 L 596.3 71.5 L 601.8 70.1 L 607.4 68.7 L 612.9 67.3 L 618.5 63.3 L 624.0 61.9 L 629.5 64.2 L 635.1 62.8 L 640.6 64.2 L 646.2 62.8 L 651.7 64.2 L 657.2 62.8 L 662.8 64.2 L 668.3 62.8 L 673.8 64.2 L 679.4 62.8 L 684.9 69.9 L 690.5 64.4 L 696.0 57.2" fill="none" stroke="#60a5fa" stroke-width="1.6" stroke-linecap="round" stroke-linejoin="round" opacity="0.85"/>
  <g><circle cx="48.0" cy="159.9" r="4.3" fill="#fff7ed" stroke="#1d4ed8" stroke-width="2"><title>2026-06-13: 44 users</title></circle><path d="M 44.0 160.9 C 47.0 154.9, 53.0 157.9, 51.0 163.9" fill="none" stroke="#1d4ed8" stroke-width="1.2"/></g><g><circle cx="53.5" cy="159.1" r="4.3" fill="#fff7ed" stroke="#1d4ed8" stroke-width="2"><title>2026-06-14: 46 users</title></circle><path d="M 49.5 160.1 C 52.5 154.1, 58.5 157.1, 56.5 163.1" fill="none" stroke="#1d4ed8" stroke-width="1.2"/></g><g><circle cx="59.1" cy="159.1" r="4.3" fill="#fff7ed" stroke="#1d4ed8" stroke-width="2"><title>2026-06-15: 46 users</title></circle><path d="M 55.1 160.1 C 58.1 154.1, 64.1 157.1, 62.1 163.1" fill="none" stroke="#1d4ed8" stroke-width="1.2"/></g><g><circle cx="64.6" cy="157.1" r="4.3" fill="#fff7ed" stroke="#1d4ed8" stroke-width="2"><title>2026-06-16: 51 users</title></circle><path d="M 60.6 158.1 C 63.6 152.1, 69.6 155.1, 67.6 161.1" fill="none" stroke="#1d4ed8" stroke-width="1.2"/></g><g><circle cx="70.2" cy="157.1" r="4.3" fill="#fff7ed" stroke="#1d4ed8" stroke-width="2"><title>2026-06-17: 51 users</title></circle><path d="M 66.2 158.1 C 69.2 152.1, 75.2 155.1, 73.2 161.1" fill="none" stroke="#1d4ed8" stroke-width="1.2"/></g><g><circle cx="75.7" cy="155.4" r="4.3" fill="#fff7ed" stroke="#1d4ed8" stroke-width="2"><title>2026-06-18: 55 users</title></circle><path d="M 71.7 156.4 C 74.7 150.4, 80.7 153.4, 78.7 159.4" fill="none" stroke="#1d4ed8" stroke-width="1.2"/></g><g><circle cx="81.2" cy="155.4" r="4.3" fill="#fff7ed" stroke="#1d4ed8" stroke-width="2"><title>2026-06-19: 55 users</title></circle><path d="M 77.2 156.4 C 80.2 150.4, 86.2 153.4, 84.2 159.4" fill="none" stroke="#1d4ed8" stroke-width="1.2"/></g><g><circle cx="86.8" cy="155.0" r="4.3" fill="#fff7ed" stroke="#1d4ed8" stroke-width="2"><title>2026-06-20: 56 users</title></circle><path d="M 82.8 156.0 C 85.8 150.0, 91.8 153.0, 89.8 159.0" fill="none" stroke="#1d4ed8" stroke-width="1.2"/></g><g><circle cx="92.3" cy="154.6" r="4.3" fill="#fff7ed" stroke="#1d4ed8" stroke-width="2"><title>2026-06-21: 57 users</title></circle><path d="M 88.3 155.6 C 91.3 149.6, 97.3 152.6, 95.3 158.6" fill="none" stroke="#1d4ed8" stroke-width="1.2"/></g><g><circle cx="97.8" cy="154.6" r="4.3" fill="#fff7ed" stroke="#1d4ed8" stroke-width="2"><title>2026-06-22: 57 users</title></circle><path d="M 93.8 155.6 C 96.8 149.6, 102.8 152.6, 100.8 158.6" fill="none" stroke="#1d4ed8" stroke-width="1.2"/></g><g><circle cx="103.4" cy="153.0" r="4.3" fill="#fff7ed" stroke="#1d4ed8" stroke-width="2"><title>2026-06-23: 61 users</title></circle><path d="M 99.4 154.0 C 102.4 148.0, 108.4 151.0, 106.4 157.0" fill="none" stroke="#1d4ed8" stroke-width="1.2"/></g><g><circle cx="108.9" cy="152.1" r="4.3" fill="#fff7ed" stroke="#1d4ed8" stroke-width="2"><title>2026-06-24: 63 users</title></circle><path d="M 104.9 153.1 C 107.9 147.1, 113.9 150.1, 111.9 156.1" fill="none" stroke="#1d4ed8" stroke-width="1.2"/></g><g><circle cx="114.5" cy="149.7" r="4.3" fill="#fff7ed" stroke="#1d4ed8" stroke-width="2"><title>2026-06-25: 69 users</title></circle><path d="M 110.5 150.7 C 113.5 144.7, 119.5 147.7, 117.5 153.7" fill="none" stroke="#1d4ed8" stroke-width="1.2"/></g><g><circle cx="120.0" cy="149.7" r="4.3" fill="#fff7ed" stroke="#1d4ed8" stroke-width="2"><title>2026-06-26: 69 users</title></circle><path d="M 116.0 150.7 C 119.0 144.7, 125.0 147.7, 123.0 153.7" fill="none" stroke="#1d4ed8" stroke-width="1.2"/></g><g><circle cx="125.5" cy="148.4" r="4.3" fill="#fff7ed" stroke="#1d4ed8" stroke-width="2"><title>2026-06-27: 72 users</title></circle><path d="M 121.5 149.4 C 124.5 143.4, 130.5 146.4, 128.5 152.4" fill="none" stroke="#1d4ed8" stroke-width="1.2"/></g><g><circle cx="131.1" cy="148.4" r="4.3" fill="#fff7ed" stroke="#1d4ed8" stroke-width="2"><title>2026-06-28: 72 users</title></circle><path d="M 127.1 149.4 C 130.1 143.4, 136.1 146.4, 134.1 152.4" fill="none" stroke="#1d4ed8" stroke-width="1.2"/></g><g><circle cx="136.6" cy="146.0" r="4.3" fill="#fff7ed" stroke="#1d4ed8" stroke-width="2"><title>2026-06-29: 78 users</title></circle><path d="M 132.6 147.0 C 135.6 141.0, 141.6 144.0, 139.6 150.0" fill="none" stroke="#1d4ed8" stroke-width="1.2"/></g><g><circle cx="142.2" cy="143.5" r="4.3" fill="#fff7ed" stroke="#1d4ed8" stroke-width="2"><title>2026-06-30: 84 users</title></circle><path d="M 138.2 144.5 C 141.2 138.5, 147.2 141.5, 145.2 147.5" fill="none" stroke="#1d4ed8" stroke-width="1.2"/></g><g><circle cx="147.7" cy="143.5" r="4.3" fill="#fff7ed" stroke="#1d4ed8" stroke-width="2"><title>2026-07-01: 84 users</title></circle><path d="M 143.7 144.5 C 146.7 138.5, 152.7 141.5, 150.7 147.5" fill="none" stroke="#1d4ed8" stroke-width="1.2"/></g><g><circle cx="153.2" cy="144.3" r="4.3" fill="#fff7ed" stroke="#1d4ed8" stroke-width="2"><title>2026-07-02: 82 users</title></circle><path d="M 149.2 145.3 C 152.2 139.3, 158.2 142.3, 156.2 148.3" fill="none" stroke="#1d4ed8" stroke-width="1.2"/></g><g><circle cx="158.8" cy="144.7" r="4.3" fill="#fff7ed" stroke="#1d4ed8" stroke-width="2"><title>2026-07-03: 81 users</title></circle><path d="M 154.8 145.7 C 157.8 139.7, 163.8 142.7, 161.8 148.7" fill="none" stroke="#1d4ed8" stroke-width="1.2"/></g><g><circle cx="164.3" cy="144.3" r="4.3" fill="#fff7ed" stroke="#1d4ed8" stroke-width="2"><title>2026-07-04: 82 users</title></circle><path d="M 160.3 145.3 C 163.3 139.3, 169.3 142.3, 167.3 148.3" fill="none" stroke="#1d4ed8" stroke-width="1.2"/></g><g><circle cx="169.8" cy="142.7" r="4.3" fill="#fff7ed" stroke="#1d4ed8" stroke-width="2"><title>2026-07-05: 86 users</title></circle><path d="M 165.8 143.7 C 168.8 137.7, 174.8 140.7, 172.8 146.7" fill="none" stroke="#1d4ed8" stroke-width="1.2"/></g><g><circle cx="175.4" cy="142.7" r="4.3" fill="#fff7ed" stroke="#1d4ed8" stroke-width="2"><title>2026-07-06: 86 users</title></circle><path d="M 171.4 143.7 C 174.4 137.7, 180.4 140.7, 178.4 146.7" fill="none" stroke="#1d4ed8" stroke-width="1.2"/></g><g><circle cx="180.9" cy="140.6" r="4.3" fill="#fff7ed" stroke="#1d4ed8" stroke-width="2"><title>2026-07-07: 91 users</title></circle><path d="M 176.9 141.6 C 179.9 135.6, 185.9 138.6, 183.9 144.6" fill="none" stroke="#1d4ed8" stroke-width="1.2"/></g><g><circle cx="186.5" cy="140.6" r="4.3" fill="#fff7ed" stroke="#1d4ed8" stroke-width="2"><title>2026-07-08: 91 users</title></circle><path d="M 182.5 141.6 C 185.5 135.6, 191.5 138.6, 189.5 144.6" fill="none" stroke="#1d4ed8" stroke-width="1.2"/></g><g><circle cx="192.0" cy="140.6" r="4.3" fill="#fff7ed" stroke="#1d4ed8" stroke-width="2"><title>2026-07-09: 91 users</title></circle><path d="M 188.0 141.6 C 191.0 135.6, 197.0 138.6, 195.0 144.6" fill="none" stroke="#1d4ed8" stroke-width="1.2"/></g><g><circle cx="197.5" cy="140.6" r="4.3" fill="#fff7ed" stroke="#1d4ed8" stroke-width="2"><title>2026-07-10: 91 users</title></circle><path d="M 193.5 141.6 C 196.5 135.6, 202.5 138.6, 200.5 144.6" fill="none" stroke="#1d4ed8" stroke-width="1.2"/></g><g><circle cx="203.1" cy="139.4" r="4.3" fill="#fff7ed" stroke="#1d4ed8" stroke-width="2"><title>2026-07-11: 94 users</title></circle><path d="M 199.1 140.4 C 202.1 134.4, 208.1 137.4, 206.1 143.4" fill="none" stroke="#1d4ed8" stroke-width="1.2"/></g><g><circle cx="208.6" cy="139.4" r="4.3" fill="#fff7ed" stroke="#1d4ed8" stroke-width="2"><title>2026-07-12: 94 users</title></circle><path d="M 204.6 140.4 C 207.6 134.4, 213.6 137.4, 211.6 143.4" fill="none" stroke="#1d4ed8" stroke-width="1.2"/></g><g><circle cx="214.2" cy="141.0" r="4.3" fill="#fff7ed" stroke="#1d4ed8" stroke-width="2"><title>2026-07-13: 90 users</title></circle><path d="M 210.2 142.0 C 213.2 136.0, 219.2 139.0, 217.2 145.0" fill="none" stroke="#1d4ed8" stroke-width="1.2"/></g><g><circle cx="219.7" cy="141.0" r="4.3" fill="#fff7ed" stroke="#1d4ed8" stroke-width="2"><title>2026-07-14: 90 users</title></circle><path d="M 215.7 142.0 C 218.7 136.0, 224.7 139.0, 222.7 145.0" fill="none" stroke="#1d4ed8" stroke-width="1.2"/></g><g><circle cx="225.2" cy="141.0" r="4.3" fill="#fff7ed" stroke="#1d4ed8" stroke-width="2"><title>2026-07-15: 90 users</title></circle><path d="M 221.2 142.0 C 224.2 136.0, 230.2 139.0, 228.2 145.0" fill="none" stroke="#1d4ed8" stroke-width="1.2"/></g><g><circle cx="230.8" cy="141.0" r="4.3" fill="#fff7ed" stroke="#1d4ed8" stroke-width="2"><title>2026-07-16: 90 users</title></circle><path d="M 226.8 142.0 C 229.8 136.0, 235.8 139.0, 233.8 145.0" fill="none" stroke="#1d4ed8" stroke-width="1.2"/></g><g><circle cx="236.3" cy="141.0" r="4.3" fill="#fff7ed" stroke="#1d4ed8" stroke-width="2"><title>2026-07-17: 90 users</title></circle><path d="M 232.3 142.0 C 235.3 136.0, 241.3 139.0, 239.3 145.0" fill="none" stroke="#1d4ed8" stroke-width="1.2"/></g><g><circle cx="241.8" cy="136.1" r="4.3" fill="#fff7ed" stroke="#1d4ed8" stroke-width="2"><title>2026-07-18: 102 users</title></circle><path d="M 237.8 137.1 C 240.8 131.1, 246.8 134.1, 244.8 140.1" fill="none" stroke="#1d4ed8" stroke-width="1.2"/></g><g><circle cx="247.4" cy="133.7" r="4.3" fill="#fff7ed" stroke="#1d4ed8" stroke-width="2"><title>2026-07-19: 108 users</title></circle><path d="M 243.4 134.7 C 246.4 128.7, 252.4 131.7, 250.4 137.7" fill="none" stroke="#1d4ed8" stroke-width="1.2"/></g><g><circle cx="252.9" cy="133.7" r="4.3" fill="#fff7ed" stroke="#1d4ed8" stroke-width="2"><title>2026-07-20: 108 users</title></circle><path d="M 248.9 134.7 C 251.9 128.7, 257.9 131.7, 255.9 137.7" fill="none" stroke="#1d4ed8" stroke-width="1.2"/></g><g><circle cx="258.5" cy="131.6" r="4.3" fill="#fff7ed" stroke="#1d4ed8" stroke-width="2"><title>2026-07-21: 113 users</title></circle><path d="M 254.5 132.6 C 257.5 126.6, 263.5 129.6, 261.5 135.6" fill="none" stroke="#1d4ed8" stroke-width="1.2"/></g><g><circle cx="264.0" cy="127.9" r="4.3" fill="#fff7ed" stroke="#1d4ed8" stroke-width="2"><title>2026-07-22: 122 users</title></circle><path d="M 260.0 128.9 C 263.0 122.9, 269.0 125.9, 267.0 131.9" fill="none" stroke="#1d4ed8" stroke-width="1.2"/></g><g><circle cx="269.5" cy="127.9" r="4.3" fill="#fff7ed" stroke="#1d4ed8" stroke-width="2"><title>2026-07-23: 122 users</title></circle><path d="M 265.5 128.9 C 268.5 122.9, 274.5 125.9, 272.5 131.9" fill="none" stroke="#1d4ed8" stroke-width="1.2"/></g><g><circle cx="275.1" cy="126.7" r="4.3" fill="#fff7ed" stroke="#1d4ed8" stroke-width="2"><title>2026-07-24: 125 users</title></circle><path d="M 271.1 127.7 C 274.1 121.7, 280.1 124.7, 278.1 130.7" fill="none" stroke="#1d4ed8" stroke-width="1.2"/></g><g><circle cx="280.6" cy="127.5" r="4.3" fill="#fff7ed" stroke="#1d4ed8" stroke-width="2"><title>2026-07-25: 123 users</title></circle><path d="M 276.6 128.5 C 279.6 122.5, 285.6 125.5, 283.6 131.5" fill="none" stroke="#1d4ed8" stroke-width="1.2"/></g><g><circle cx="286.2" cy="127.5" r="4.3" fill="#fff7ed" stroke="#1d4ed8" stroke-width="2"><title>2026-07-26: 123 users</title></circle><path d="M 282.2 128.5 C 285.2 122.5, 291.2 125.5, 289.2 131.5" fill="none" stroke="#1d4ed8" stroke-width="1.2"/></g><g><circle cx="291.7" cy="127.5" r="4.3" fill="#fff7ed" stroke="#1d4ed8" stroke-width="2"><title>2026-07-27: 123 users</title></circle><path d="M 287.7 128.5 C 290.7 122.5, 296.7 125.5, 294.7 131.5" fill="none" stroke="#1d4ed8" stroke-width="1.2"/></g><g><circle cx="297.2" cy="125.0" r="4.3" fill="#fff7ed" stroke="#1d4ed8" stroke-width="2"><title>2026-07-28: 129 users</title></circle><path d="M 293.2 126.0 C 296.2 120.0, 302.2 123.0, 300.2 129.0" fill="none" stroke="#1d4ed8" stroke-width="1.2"/></g><g><circle cx="302.8" cy="125.0" r="4.3" fill="#fff7ed" stroke="#1d4ed8" stroke-width="2"><title>2026-07-29: 129 users</title></circle><path d="M 298.8 126.0 C 301.8 120.0, 307.8 123.0, 305.8 129.0" fill="none" stroke="#1d4ed8" stroke-width="1.2"/></g><g><circle cx="308.3" cy="125.4" r="4.3" fill="#fff7ed" stroke="#1d4ed8" stroke-width="2"><title>2026-07-30: 128 users</title></circle><path d="M 304.3 126.4 C 307.3 120.4, 313.3 123.4, 311.3 129.4" fill="none" stroke="#1d4ed8" stroke-width="1.2"/></g><g><circle cx="313.8" cy="125.4" r="4.3" fill="#fff7ed" stroke="#1d4ed8" stroke-width="2"><title>2026-07-31: 128 users</title></circle><path d="M 309.8 126.4 C 312.8 120.4, 318.8 123.4, 316.8 129.4" fill="none" stroke="#1d4ed8" stroke-width="1.2"/></g><g><circle cx="319.4" cy="121.8" r="4.3" fill="#fff7ed" stroke="#1d4ed8" stroke-width="2"><title>2026-08-01: 137 users</title></circle><path d="M 315.4 122.8 C 318.4 116.8, 324.4 119.8, 322.4 125.8" fill="none" stroke="#1d4ed8" stroke-width="1.2"/></g><g><circle cx="324.9" cy="120.5" r="4.3" fill="#fff7ed" stroke="#1d4ed8" stroke-width="2"><title>2026-08-02: 140 users</title></circle><path d="M 320.9 121.5 C 323.9 115.5, 329.9 118.5, 327.9 124.5" fill="none" stroke="#1d4ed8" stroke-width="1.2"/></g><g><circle cx="330.5" cy="120.1" r="4.3" fill="#fff7ed" stroke="#1d4ed8" stroke-width="2"><title>2026-08-03: 141 users</title></circle><path d="M 326.5 121.1 C 329.5 115.1, 335.5 118.1, 333.5 124.1" fill="none" stroke="#1d4ed8" stroke-width="1.2"/></g><g><circle cx="336.0" cy="120.1" r="4.3" fill="#fff7ed" stroke="#1d4ed8" stroke-width="2"><title>2026-08-04: 141 users</title></circle><path d="M 332.0 121.1 C 335.0 115.1, 341.0 118.1, 339.0 124.1" fill="none" stroke="#1d4ed8" stroke-width="1.2"/></g><g><circle cx="341.5" cy="119.7" r="4.3" fill="#fff7ed" stroke="#1d4ed8" stroke-width="2"><title>2026-08-06: 142 users</title></circle><path d="M 337.5 120.7 C 340.5 114.7, 346.5 117.7, 344.5 123.7" fill="none" stroke="#1d4ed8" stroke-width="1.2"/></g><g><circle cx="347.1" cy="120.9" r="4.3" fill="#fff7ed" stroke="#1d4ed8" stroke-width="2"><title>2026-08-07: 139 users</title></circle><path d="M 343.1 121.9 C 346.1 115.9, 352.1 118.9, 350.1 124.9" fill="none" stroke="#1d4ed8" stroke-width="1.2"/></g><g><circle cx="352.6" cy="118.9" r="4.3" fill="#fff7ed" stroke="#1d4ed8" stroke-width="2"><title>2026-08-08: 144 users</title></circle><path d="M 348.6 119.9 C 351.6 113.9, 357.6 116.9, 355.6 122.9" fill="none" stroke="#1d4ed8" stroke-width="1.2"/></g><g><circle cx="358.2" cy="118.1" r="4.3" fill="#fff7ed" stroke="#1d4ed8" stroke-width="2"><title>2026-08-09: 146 users</title></circle><path d="M 354.2 119.1 C 357.2 113.1, 363.2 116.1, 361.2 122.1" fill="none" stroke="#1d4ed8" stroke-width="1.2"/></g><g><circle cx="363.7" cy="118.1" r="4.3" fill="#fff7ed" stroke="#1d4ed8" stroke-width="2"><title>2026-08-10: 146 users</title></circle><path d="M 359.7 119.1 C 362.7 113.1, 368.7 116.1, 366.7 122.1" fill="none" stroke="#1d4ed8" stroke-width="1.2"/></g><g><circle cx="369.2" cy="118.1" r="4.3" fill="#fff7ed" stroke="#1d4ed8" stroke-width="2"><title>2026-08-11: 146 users</title></circle><path d="M 365.2 119.1 C 368.2 113.1, 374.2 116.1, 372.2 122.1" fill="none" stroke="#1d4ed8" stroke-width="1.2"/></g><g><circle cx="374.8" cy="116.8" r="4.3" fill="#fff7ed" stroke="#1d4ed8" stroke-width="2"><title>2026-08-12: 149 users</title></circle><path d="M 370.8 117.8 C 373.8 111.8, 379.8 114.8, 377.8 120.8" fill="none" stroke="#1d4ed8" stroke-width="1.2"/></g><g><circle cx="380.3" cy="116.8" r="4.3" fill="#fff7ed" stroke="#1d4ed8" stroke-width="2"><title>2026-08-13: 149 users</title></circle><path d="M 376.3 117.8 C 379.3 111.8, 385.3 114.8, 383.3 120.8" fill="none" stroke="#1d4ed8" stroke-width="1.2"/></g><g><circle cx="385.8" cy="116.8" r="4.3" fill="#fff7ed" stroke="#1d4ed8" stroke-width="2"><title>2026-08-14: 149 users</title></circle><path d="M 381.8 117.8 C 384.8 111.8, 390.8 114.8, 388.8 120.8" fill="none" stroke="#1d4ed8" stroke-width="1.2"/></g><g><circle cx="391.4" cy="113.1" r="4.3" fill="#fff7ed" stroke="#1d4ed8" stroke-width="2"><title>2026-08-15: 158 users</title></circle><path d="M 387.4 114.1 C 390.4 108.1, 396.4 111.1, 394.4 117.1" fill="none" stroke="#1d4ed8" stroke-width="1.2"/></g><g><circle cx="396.9" cy="112.3" r="4.3" fill="#fff7ed" stroke="#1d4ed8" stroke-width="2"><title>2026-08-16: 160 users</title></circle><path d="M 392.9 113.3 C 395.9 107.3, 401.9 110.3, 399.9 116.3" fill="none" stroke="#1d4ed8" stroke-width="1.2"/></g><g><circle cx="402.5" cy="112.3" r="4.3" fill="#fff7ed" stroke="#1d4ed8" stroke-width="2"><title>2026-08-17: 160 users</title></circle><path d="M 398.5 113.3 C 401.5 107.3, 407.5 110.3, 405.5 116.3" fill="none" stroke="#1d4ed8" stroke-width="1.2"/></g><g><circle cx="408.0" cy="112.3" r="4.3" fill="#fff7ed" stroke="#1d4ed8" stroke-width="2"><title>2026-08-18: 160 users</title></circle><path d="M 404.0 113.3 C 407.0 107.3, 413.0 110.3, 411.0 116.3" fill="none" stroke="#1d4ed8" stroke-width="1.2"/></g><g><circle cx="413.5" cy="112.3" r="4.3" fill="#fff7ed" stroke="#1d4ed8" stroke-width="2"><title>2026-08-19: 160 users</title></circle><path d="M 409.5 113.3 C 412.5 107.3, 418.5 110.3, 416.5 116.3" fill="none" stroke="#1d4ed8" stroke-width="1.2"/></g><g><circle cx="419.1" cy="110.3" r="4.3" fill="#fff7ed" stroke="#1d4ed8" stroke-width="2"><title>2026-08-20: 165 users</title></circle><path d="M 415.1 111.3 C 418.1 105.3, 424.1 108.3, 422.1 114.3" fill="none" stroke="#1d4ed8" stroke-width="1.2"/></g><g><circle cx="424.6" cy="110.3" r="4.3" fill="#fff7ed" stroke="#1d4ed8" stroke-width="2"><title>2026-08-21: 165 users</title></circle><path d="M 420.6 111.3 C 423.6 105.3, 429.6 108.3, 427.6 114.3" fill="none" stroke="#1d4ed8" stroke-width="1.2"/></g><g><circle cx="430.2" cy="109.0" r="4.3" fill="#fff7ed" stroke="#1d4ed8" stroke-width="2"><title>2026-08-22: 168 users</title></circle><path d="M 426.2 110.0 C 429.2 104.0, 435.2 107.0, 433.2 113.0" fill="none" stroke="#1d4ed8" stroke-width="1.2"/></g><g><circle cx="435.7" cy="109.0" r="4.3" fill="#fff7ed" stroke="#1d4ed8" stroke-width="2"><title>2026-08-23: 168 users</title></circle><path d="M 431.7 110.0 C 434.7 104.0, 440.7 107.0, 438.7 113.0" fill="none" stroke="#1d4ed8" stroke-width="1.2"/></g><g><circle cx="441.2" cy="106.6" r="4.3" fill="#fff7ed" stroke="#1d4ed8" stroke-width="2"><title>2026-08-24: 174 users</title></circle><path d="M 437.2 107.6 C 440.2 101.6, 446.2 104.6, 444.2 110.6" fill="none" stroke="#1d4ed8" stroke-width="1.2"/></g><g><circle cx="446.8" cy="104.9" r="4.3" fill="#fff7ed" stroke="#1d4ed8" stroke-width="2"><title>2026-08-25: 178 users</title></circle><path d="M 442.8 105.9 C 445.8 99.9, 451.8 102.9, 449.8 108.9" fill="none" stroke="#1d4ed8" stroke-width="1.2"/></g><g><circle cx="452.3" cy="104.5" r="4.3" fill="#fff7ed" stroke="#1d4ed8" stroke-width="2"><title>2026-08-26: 179 users</title></circle><path d="M 448.3 105.5 C 451.3 99.5, 457.3 102.5, 455.3 108.5" fill="none" stroke="#1d4ed8" stroke-width="1.2"/></g><g><circle cx="457.8" cy="102.9" r="4.3" fill="#fff7ed" stroke="#1d4ed8" stroke-width="2"><title>2026-08-27: 183 users</title></circle><path d="M 453.8 103.9 C 456.8 97.9, 462.8 100.9, 460.8 106.9" fill="none" stroke="#1d4ed8" stroke-width="1.2"/></g><g><circle cx="463.4" cy="102.5" r="4.3" fill="#fff7ed" stroke="#1d4ed8" stroke-width="2"><title>2026-08-28: 184 users</title></circle><path d="M 459.4 103.5 C 462.4 97.5, 468.4 100.5, 466.4 106.5" fill="none" stroke="#1d4ed8" stroke-width="1.2"/></g><g><circle cx="468.9" cy="102.0" r="4.3" fill="#fff7ed" stroke="#1d4ed8" stroke-width="2"><title>2026-08-29: 185 users</title></circle><path d="M 464.9 103.0 C 467.9 97.0, 473.9 100.0, 471.9 106.0" fill="none" stroke="#1d4ed8" stroke-width="1.2"/></g><g><circle cx="474.5" cy="100.8" r="4.3" fill="#fff7ed" stroke="#1d4ed8" stroke-width="2"><title>2026-08-30: 188 users</title></circle><path d="M 470.5 101.8 C 473.5 95.8, 479.5 98.8, 477.5 104.8" fill="none" stroke="#1d4ed8" stroke-width="1.2"/></g><g><circle cx="480.0" cy="100.0" r="4.3" fill="#fff7ed" stroke="#1d4ed8" stroke-width="2"><title>2026-08-31: 190 users</title></circle><path d="M 476.0 101.0 C 479.0 95.0, 485.0 98.0, 483.0 104.0" fill="none" stroke="#1d4ed8" stroke-width="1.2"/></g><g><circle cx="485.5" cy="99.6" r="4.3" fill="#fff7ed" stroke="#1d4ed8" stroke-width="2"><title>2026-09-01: 191 users</title></circle><path d="M 481.5 100.6 C 484.5 94.6, 490.5 97.6, 488.5 103.6" fill="none" stroke="#1d4ed8" stroke-width="1.2"/></g><g><circle cx="491.1" cy="99.6" r="4.3" fill="#fff7ed" stroke="#1d4ed8" stroke-width="2"><title>2026-09-02: 191 users</title></circle><path d="M 487.1 100.6 C 490.1 94.6, 496.1 97.6, 494.1 103.6" fill="none" stroke="#1d4ed8" stroke-width="1.2"/></g><g><circle cx="496.6" cy="93.8" r="4.3" fill="#fff7ed" stroke="#1d4ed8" stroke-width="2"><title>2026-09-03: 205 users</title></circle><path d="M 492.6 94.8 C 495.6 88.8, 501.6 91.8, 499.6 97.8" fill="none" stroke="#1d4ed8" stroke-width="1.2"/></g><g><circle cx="502.2" cy="92.6" r="4.3" fill="#fff7ed" stroke="#1d4ed8" stroke-width="2"><title>2026-09-04: 208 users</title></circle><path d="M 498.2 93.6 C 501.2 87.6, 507.2 90.6, 505.2 96.6" fill="none" stroke="#1d4ed8" stroke-width="1.2"/></g><g><circle cx="507.7" cy="92.6" r="4.3" fill="#fff7ed" stroke="#1d4ed8" stroke-width="2"><title>2026-09-05: 208 users</title></circle><path d="M 503.7 93.6 C 506.7 87.6, 512.7 90.6, 510.7 96.6" fill="none" stroke="#1d4ed8" stroke-width="1.2"/></g><g><circle cx="513.2" cy="91.4" r="4.3" fill="#fff7ed" stroke="#1d4ed8" stroke-width="2"><title>2026-09-06: 211 users</title></circle><path d="M 509.2 92.4 C 512.2 86.4, 518.2 89.4, 516.2 95.4" fill="none" stroke="#1d4ed8" stroke-width="1.2"/></g><g><circle cx="518.8" cy="91.8" r="4.3" fill="#fff7ed" stroke="#1d4ed8" stroke-width="2"><title>2026-09-07: 210 users</title></circle><path d="M 514.8 92.8 C 517.8 86.8, 523.8 89.8, 521.8 95.8" fill="none" stroke="#1d4ed8" stroke-width="1.2"/></g><g><circle cx="524.3" cy="89.7" r="4.3" fill="#fff7ed" stroke="#1d4ed8" stroke-width="2"><title>2026-09-08: 215 users</title></circle><path d="M 520.3 90.7 C 523.3 84.7, 529.3 87.7, 527.3 93.7" fill="none" stroke="#1d4ed8" stroke-width="1.2"/></g><g><circle cx="529.8" cy="89.7" r="4.3" fill="#fff7ed" stroke="#1d4ed8" stroke-width="2"><title>2026-09-09: 215 users</title></circle><path d="M 525.8 90.7 C 528.8 84.7, 534.8 87.7, 532.8 93.7" fill="none" stroke="#1d4ed8" stroke-width="1.2"/></g><g><circle cx="535.4" cy="89.7" r="4.3" fill="#fff7ed" stroke="#1d4ed8" stroke-width="2"><title>2026-09-10: 215 users</title></circle><path d="M 531.4 90.7 C 534.4 84.7, 540.4 87.7, 538.4 93.7" fill="none" stroke="#1d4ed8" stroke-width="1.2"/></g><g><circle cx="540.9" cy="86.9" r="4.3" fill="#fff7ed" stroke="#1d4ed8" stroke-width="2"><title>2026-09-11: 222 users</title></circle><path d="M 536.9 87.9 C 539.9 81.9, 545.9 84.9, 543.9 90.9" fill="none" stroke="#1d4ed8" stroke-width="1.2"/></g><g><circle cx="546.5" cy="86.9" r="4.3" fill="#fff7ed" stroke="#1d4ed8" stroke-width="2"><title>2026-09-12: 222 users</title></circle><path d="M 542.5 87.9 C 545.5 81.9, 551.5 84.9, 549.5 90.9" fill="none" stroke="#1d4ed8" stroke-width="1.2"/></g><g><circle cx="552.0" cy="86.9" r="4.3" fill="#fff7ed" stroke="#1d4ed8" stroke-width="2"><title>2026-09-13: 222 users</title></circle><path d="M 548.0 87.9 C 551.0 81.9, 557.0 84.9, 555.0 90.9" fill="none" stroke="#1d4ed8" stroke-width="1.2"/></g><g><circle cx="557.5" cy="86.0" r="4.3" fill="#fff7ed" stroke="#1d4ed8" stroke-width="2"><title>2026-09-14: 224 users</title></circle><path d="M 553.5 87.0 C 556.5 81.0, 562.5 84.0, 560.5 90.0" fill="none" stroke="#1d4ed8" stroke-width="1.2"/></g><g><circle cx="563.1" cy="84.4" r="4.3" fill="#fff7ed" stroke="#1d4ed8" stroke-width="2"><title>2026-09-15: 228 users</title></circle><path d="M 559.1 85.4 C 562.1 79.4, 568.1 82.4, 566.1 88.4" fill="none" stroke="#1d4ed8" stroke-width="1.2"/></g><g><circle cx="568.6" cy="84.4" r="4.3" fill="#fff7ed" stroke="#1d4ed8" stroke-width="2"><title>2026-09-16: 228 users</title></circle><path d="M 564.6 85.4 C 567.6 79.4, 573.6 82.4, 571.6 88.4" fill="none" stroke="#1d4ed8" stroke-width="1.2"/></g><g><circle cx="574.2" cy="84.4" r="4.3" fill="#fff7ed" stroke="#1d4ed8" stroke-width="2"><title>2026-09-17: 228 users</title></circle><path d="M 570.2 85.4 C 573.2 79.4, 579.2 82.4, 577.2 88.4" fill="none" stroke="#1d4ed8" stroke-width="1.2"/></g><g><circle cx="579.7" cy="84.4" r="4.3" fill="#fff7ed" stroke="#1d4ed8" stroke-width="2"><title>2026-09-18: 228 users</title></circle><path d="M 575.7 85.4 C 578.7 79.4, 584.7 82.4, 582.7 88.4" fill="none" stroke="#1d4ed8" stroke-width="1.2"/></g><g><circle cx="585.2" cy="74.1" r="4.3" fill="#fff7ed" stroke="#1d4ed8" stroke-width="2"><title>2026-09-19: 253 users</title></circle><path d="M 581.2 75.1 C 584.2 69.1, 590.2 72.1, 588.2 78.1" fill="none" stroke="#1d4ed8" stroke-width="1.2"/></g><g><circle cx="590.8" cy="70.8" r="4.3" fill="#fff7ed" stroke="#1d4ed8" stroke-width="2"><title>2026-09-20: 261 users</title></circle><path d="M 586.8 71.8 C 589.8 65.8, 595.8 68.8, 593.8 74.8" fill="none" stroke="#1d4ed8" stroke-width="1.2"/></g><g><circle cx="596.3" cy="70.8" r="4.3" fill="#fff7ed" stroke="#1d4ed8" stroke-width="2"><title>2026-09-21: 261 users</title></circle><path d="M 592.3 71.8 C 595.3 65.8, 601.3 68.8, 599.3 74.8" fill="none" stroke="#1d4ed8" stroke-width="1.2"/></g><g><circle cx="601.8" cy="70.8" r="4.3" fill="#fff7ed" stroke="#1d4ed8" stroke-width="2"><title>2026-09-22: 261 users</title></circle><path d="M 597.8 71.8 C 600.8 65.8, 606.8 68.8, 604.8 74.8" fill="none" stroke="#1d4ed8" stroke-width="1.2"/></g><g><circle cx="607.4" cy="68.0" r="4.3" fill="#fff7ed" stroke="#1d4ed8" stroke-width="2"><title>2026-09-23: 268 users</title></circle><path d="M 603.4 69.0 C 606.4 63.0, 612.4 66.0, 610.4 72.0" fill="none" stroke="#1d4ed8" stroke-width="1.2"/></g><g><circle cx="612.9" cy="68.0" r="4.3" fill="#fff7ed" stroke="#1d4ed8" stroke-width="2"><title>2026-09-24: 268 users</title></circle><path d="M 608.9 69.0 C 611.9 63.0, 617.9 66.0, 615.9 72.0" fill="none" stroke="#1d4ed8" stroke-width="1.2"/></g><g><circle cx="618.5" cy="62.6" r="4.3" fill="#fff7ed" stroke="#1d4ed8" stroke-width="2"><title>2026-09-25: 281 users</title></circle><path d="M 614.5 63.6 C 617.5 57.6, 623.5 60.6, 621.5 66.6" fill="none" stroke="#1d4ed8" stroke-width="1.2"/></g><g><circle cx="624.0" cy="62.6" r="4.3" fill="#fff7ed" stroke="#1d4ed8" stroke-width="2"><title>2026-09-26: 281 users</title></circle><path d="M 620.0 63.6 C 623.0 57.6, 629.0 60.6, 627.0 66.6" fill="none" stroke="#1d4ed8" stroke-width="1.2"/></g><g><circle cx="629.5" cy="63.5" r="4.3" fill="#fff7ed" stroke="#1d4ed8" stroke-width="2"><title>2026-09-27: 279 users</title></circle><path d="M 625.5 64.5 C 628.5 58.5, 634.5 61.5, 632.5 67.5" fill="none" stroke="#1d4ed8" stroke-width="1.2"/></g><g><circle cx="635.1" cy="63.5" r="4.3" fill="#fff7ed" stroke="#1d4ed8" stroke-width="2"><title>2026-09-28: 279 users</title></circle><path d="M 631.1 64.5 C 634.1 58.5, 640.1 61.5, 638.1 67.5" fill="none" stroke="#1d4ed8" stroke-width="1.2"/></g><g><circle cx="640.6" cy="63.5" r="4.3" fill="#fff7ed" stroke="#1d4ed8" stroke-width="2"><title>2026-09-29: 279 users</title></circle><path d="M 636.6 64.5 C 639.6 58.5, 645.6 61.5, 643.6 67.5" fill="none" stroke="#1d4ed8" stroke-width="1.2"/></g><g><circle cx="646.2" cy="63.5" r="4.3" fill="#fff7ed" stroke="#1d4ed8" stroke-width="2"><title>2026-09-30: 279 users</title></circle><path d="M 642.2 64.5 C 645.2 58.5, 651.2 61.5, 649.2 67.5" fill="none" stroke="#1d4ed8" stroke-width="1.2"/></g><g><circle cx="651.7" cy="63.5" r="4.3" fill="#fff7ed" stroke="#1d4ed8" stroke-width="2"><title>2026-10-01: 279 users</title></circle><path d="M 647.7 64.5 C 650.7 58.5, 656.7 61.5, 654.7 67.5" fill="none" stroke="#1d4ed8" stroke-width="1.2"/></g><g><circle cx="657.2" cy="63.5" r="4.3" fill="#fff7ed" stroke="#1d4ed8" stroke-width="2"><title>2026-10-02: 279 users</title></circle><path d="M 653.2 64.5 C 656.2 58.5, 662.2 61.5, 660.2 67.5" fill="none" stroke="#1d4ed8" stroke-width="1.2"/></g><g><circle cx="662.8" cy="63.5" r="4.3" fill="#fff7ed" stroke="#1d4ed8" stroke-width="2"><title>2026-10-03: 279 users</title></circle><path d="M 658.8 64.5 C 661.8 58.5, 667.8 61.5, 665.8 67.5" fill="none" stroke="#1d4ed8" stroke-width="1.2"/></g><g><circle cx="668.3" cy="63.5" r="4.3" fill="#fff7ed" stroke="#1d4ed8" stroke-width="2"><title>2026-10-04: 279 users</title></circle><path d="M 664.3 64.5 C 667.3 58.5, 673.3 61.5, 671.3 67.5" fill="none" stroke="#1d4ed8" stroke-width="1.2"/></g><g><circle cx="673.8" cy="63.5" r="4.3" fill="#fff7ed" stroke="#1d4ed8" stroke-width="2"><title>2026-10-05: 279 users</title></circle><path d="M 669.8 64.5 C 672.8 58.5, 678.8 61.5, 676.8 67.5" fill="none" stroke="#1d4ed8" stroke-width="1.2"/></g><g><circle cx="679.4" cy="63.5" r="4.3" fill="#fff7ed" stroke="#1d4ed8" stroke-width="2"><title>2026-10-06: 279 users</title></circle><path d="M 675.4 64.5 C 678.4 58.5, 684.4 61.5, 682.4 67.5" fill="none" stroke="#1d4ed8" stroke-width="1.2"/></g><g><circle cx="684.9" cy="69.2" r="4.3" fill="#fff7ed" stroke="#1d4ed8" stroke-width="2"><title>2026-10-07: 265 users</title></circle><path d="M 680.9 70.2 C 683.9 64.2, 689.9 67.2, 687.9 73.2" fill="none" stroke="#1d4ed8" stroke-width="1.2"/></g><g><circle cx="690.5" cy="65.1" r="4.3" fill="#fff7ed" stroke="#1d4ed8" stroke-width="2"><title>2026-10-08: 275 users</title></circle><path d="M 686.5 66.1 C 689.5 60.1, 695.5 63.1, 693.5 69.1" fill="none" stroke="#1d4ed8" stroke-width="1.2"/></g><g><circle cx="696.0" cy="56.5" r="4.3" fill="#fff7ed" stroke="#1d4ed8" stroke-width="2"><title>2026-10-09: 296 users</title></circle><path d="M 692.0 57.5 C 695.0 51.5, 701.0 54.5, 699.0 60.5" fill="none" stroke="#1d4ed8" stroke-width="1.2"/></g>
  <text x="48" y="206" fill="#57534e" font-family="'Comic Sans MS', 'Segoe Print', cursive" font-size="11">2026-06-13</text>
  <text x="696" y="206" fill="#57534e" font-family="'Comic Sans MS', 'Segoe Print', cursive" font-size="11" text-anchor="end">2026-10-09</text>
</svg>
