<svg xmlns="http://www.w3.org/2000/svg" width="720" height="220" viewBox="0 0 720 220" role="img" aria-label="Chrome Web Store users trend">
  <rect width="720" height="220" rx="8" fill="#fffdf7"/>
  <path d="M 11 8 C 190 3, 512 7, 710 11 M 714 11 C 717 74, 715 151, 711 211 M 708 214 C 523 218, 177 216, 12 211 M 9 211 C 4 145, 7 78, 11 8" fill="none" stroke="#292524" stroke-width="1.3" opacity="0.7"/>
  <text x="24" y="24" fill="#1c1917" font-family="'Comic Sans MS', 'Segoe Print', cursive" font-size="16" font-weight="700">Chrome Web Store users</text>
  <text x="696" y="24" fill="#1d4ed8" font-family="'Comic Sans MS', 'Segoe Print', cursive" font-size="16" font-weight="700" text-anchor="end">208 users</text>
  <text x="696" y="43" fill="#57534e" font-family="'Comic Sans MS', 'Segoe Print', cursive" font-size="11" text-anchor="end">Data through 2026-09-05</text>
  <g><path d="M 48 37.1 C 228 38.9, 468 37.1, 696 38.9" fill="none" stroke="#d6d3c8" stroke-width="1.1"/><text x="38" y="42" text-anchor="end" fill="#57534e" font-size="11">240</text></g>
  <g><path d="M 48 109.4 C 228 106.6, 468 109.4, 696 106.6" fill="none" stroke="#d6d3c8" stroke-width="1.1"/><text x="38" y="112" text-anchor="end" fill="#57534e" font-size="11">120</text></g>
  <g><path d="M 48 177.1 C 228 178.9, 468 177.1, 696 178.9" fill="none" stroke="#d6d3c8" stroke-width="1.1"/><text x="38" y="182" text-anchor="end" fill="#57534e" font-size="11">0</text></g>
  <path d="M 48 36 C 44 98, 50 156, 48 178" fill="none" stroke="#292524" stroke-width="1.4"/>
  <path d="M 46 178 C 218 182, 478 175, 696 179" fill="none" stroke="#292524" stroke-width="1.4"/>
  <path d="M 48.0 153.1 L 55.8 150.4 L 63.6 152.0 L 71.4 147.4 L 79.2 149.1 L 87.0 145.1 L 94.8 146.7 L 102.7 144.5 L 110.5 145.6 L 118.3 143.9 L 126.1 143.2 L 133.9 140.4 L 141.7 138.6 L 149.5 136.9 L 157.3 136.8 L 165.1 135.2 L 172.9 133.3 L 180.7 128.2 L 188.5 129.8 L 196.3 129.4 L 204.1 131.6 L 212.0 129.4 L 219.8 128.6 L 227.6 127.0 L 235.4 125.7 L 243.2 124.1 L 251.0 125.7 L 258.8 124.1 L 266.6 124.0 L 274.4 122.4 L 282.2 126.3 L 290.0 124.7 L 297.8 126.3 L 305.6 124.7 L 313.4 126.3 L 321.3 117.7 L 329.1 115.8 L 336.9 114.2 L 344.7 112.9 L 352.5 106.0 L 360.3 107.6 L 368.1 104.3 L 375.9 107.0 L 383.7 105.5 L 391.5 107.0 L 399.3 102.0 L 407.1 103.5 L 414.9 102.5 L 422.7 104.1 L 430.6 97.3 L 438.4 97.1 L 446.2 95.0 L 454.0 96.5 L 461.8 94.4 L 469.6 97.7 L 477.4 93.2 L 485.2 93.6 L 493.0 92.0 L 500.8 93.6 L 508.6 90.3 L 516.4 91.9 L 524.2 90.3 L 532.0 86.6 L 539.9 83.9 L 547.7 85.5 L 555.5 83.9 L 563.3 85.5 L 571.1 81.0 L 578.9 82.5 L 586.7 79.2 L 594.5 80.8 L 602.3 75.7 L 610.1 75.0 L 617.9 72.8 L 625.7 72.0 L 633.5 69.9 L 641.3 70.9 L 649.2 67.5 L 657.0 68.0 L 664.8 65.8 L 672.6 67.4 L 680.4 57.6 L 688.2 57.5 L 696.0 55.9" fill="none" stroke="#2563eb" stroke-width="3.6" stroke-linecap="round" stroke-linejoin="round"/>
  <path d="M 48.0 151.6 L 55.8 151.9 L 63.6 150.5 L 71.4 148.9 L 79.2 147.6 L 87.0 146.6 L 94.8 145.2 L 102.7 146.0 L 110.5 144.1 L 118.3 145.4 L 126.1 141.7 L 133.9 141.9 L 141.7 137.1 L 149.5 138.4 L 157.3 135.3 L 165.1 136.7 L 172.9 131.8 L 180.7 129.7 L 188.5 128.3 L 196.3 130.9 L 204.1 130.1 L 212.0 130.9 L 219.8 127.1 L 227.6 128.5 L 235.4 124.2 L 243.2 125.6 L 251.0 124.2 L 258.8 125.6 L 266.6 122.5 L 274.4 123.9 L 282.2 124.8 L 290.0 126.2 L 297.8 124.8 L 305.6 126.2 L 313.4 124.8 L 321.3 119.2 L 329.1 114.3 L 336.9 115.7 L 344.7 111.4 L 352.5 107.5 L 360.3 106.1 L 368.1 105.8 L 375.9 105.5 L 383.7 107.0 L 391.5 105.5 L 399.3 103.5 L 407.1 102.0 L 414.9 104.0 L 422.7 102.6 L 430.6 98.8 L 438.4 95.6 L 446.2 96.5 L 454.0 95.0 L 461.8 95.9 L 469.6 96.2 L 477.4 94.7 L 485.2 92.1 L 493.0 93.5 L 500.8 92.1 L 508.6 91.8 L 516.4 90.4 L 524.2 91.8 L 532.0 85.1 L 539.9 85.4 L 547.7 84.0 L 555.5 85.4 L 563.3 84.0 L 571.1 82.5 L 578.9 81.0 L 586.7 80.7 L 594.5 79.3 L 602.3 77.2 L 610.1 73.5 L 617.9 74.3 L 625.7 70.5 L 633.5 71.4 L 641.3 69.4 L 649.2 69.0 L 657.0 66.5 L 664.8 67.3 L 672.6 65.9 L 680.4 59.1 L 688.2 56.0 L 696.0 57.4" fill="none" stroke="#60a5fa" stroke-width="1.6" stroke-linecap="round" stroke-linejoin="round" opacity="0.85"/>
  <g><circle cx="48.0" cy="152.3" r="4.3" fill="#fff7ed" stroke="#1d4ed8" stroke-width="2"><title>2026-06-13: 44 users</title></circle><path d="M 44.0 153.3 C 47.0 147.3, 53.0 150.3, 51.0 156.3" fill="none" stroke="#1d4ed8" stroke-width="1.2"/></g><g><circle cx="55.8" cy="151.2" r="4.3" fill="#fff7ed" stroke="#1d4ed8" stroke-width="2"><title>2026-06-14: 46 users</title></circle><path d="M 51.8 152.2 C 54.8 146.2, 60.8 149.2, 58.8 155.2" fill="none" stroke="#1d4ed8" stroke-width="1.2"/></g><g><circle cx="63.6" cy="151.2" r="4.3" fill="#fff7ed" stroke="#1d4ed8" stroke-width="2"><title>2026-06-15: 46 users</title></circle><path d="M 59.6 152.2 C 62.6 146.2, 68.6 149.2, 66.6 155.2" fill="none" stroke="#1d4ed8" stroke-width="1.2"/></g><g><circle cx="71.4" cy="148.3" r="4.3" fill="#fff7ed" stroke="#1d4ed8" stroke-width="2"><title>2026-06-16: 51 users</title></circle><path d="M 67.4 149.3 C 70.4 143.3, 76.4 146.3, 74.4 152.3" fill="none" stroke="#1d4ed8" stroke-width="1.2"/></g><g><circle cx="79.2" cy="148.3" r="4.3" fill="#fff7ed" stroke="#1d4ed8" stroke-width="2"><title>2026-06-17: 51 users</title></circle><path d="M 75.2 149.3 C 78.2 143.3, 84.2 146.3, 82.2 152.3" fill="none" stroke="#1d4ed8" stroke-width="1.2"/></g><g><circle cx="87.0" cy="145.9" r="4.3" fill="#fff7ed" stroke="#1d4ed8" stroke-width="2"><title>2026-06-18: 55 users</title></circle><path d="M 83.0 146.9 C 86.0 140.9, 92.0 143.9, 90.0 149.9" fill="none" stroke="#1d4ed8" stroke-width="1.2"/></g><g><circle cx="94.8" cy="145.9" r="4.3" fill="#fff7ed" stroke="#1d4ed8" stroke-width="2"><title>2026-06-19: 55 users</title></circle><path d="M 90.8 146.9 C 93.8 140.9, 99.8 143.9, 97.8 149.9" fill="none" stroke="#1d4ed8" stroke-width="1.2"/></g><g><circle cx="102.7" cy="145.3" r="4.3" fill="#fff7ed" stroke="#1d4ed8" stroke-width="2"><title>2026-06-20: 56 users</title></circle><path d="M 98.7 146.3 C 101.7 140.3, 107.7 143.3, 105.7 149.3" fill="none" stroke="#1d4ed8" stroke-width="1.2"/></g><g><circle cx="110.5" cy="144.8" r="4.3" fill="#fff7ed" stroke="#1d4ed8" stroke-width="2"><title>2026-06-21: 57 users</title></circle><path d="M 106.5 145.8 C 109.5 139.8, 115.5 142.8, 113.5 148.8" fill="none" stroke="#1d4ed8" stroke-width="1.2"/></g><g><circle cx="118.3" cy="144.8" r="4.3" fill="#fff7ed" stroke="#1d4ed8" stroke-width="2"><title>2026-06-22: 57 users</title></circle><path d="M 114.3 145.8 C 117.3 139.8, 123.3 142.8, 121.3 148.8" fill="none" stroke="#1d4ed8" stroke-width="1.2"/></g><g><circle cx="126.1" cy="142.4" r="4.3" fill="#fff7ed" stroke="#1d4ed8" stroke-width="2"><title>2026-06-23: 61 users</title></circle><path d="M 122.1 143.4 C 125.1 137.4, 131.1 140.4, 129.1 146.4" fill="none" stroke="#1d4ed8" stroke-width="1.2"/></g><g><circle cx="133.9" cy="141.3" r="4.3" fill="#fff7ed" stroke="#1d4ed8" stroke-width="2"><title>2026-06-24: 63 users</title></circle><path d="M 129.9 142.3 C 132.9 136.3, 138.9 139.3, 136.9 145.3" fill="none" stroke="#1d4ed8" stroke-width="1.2"/></g><g><circle cx="141.7" cy="137.8" r="4.3" fill="#fff7ed" stroke="#1d4ed8" stroke-width="2"><title>2026-06-25: 69 users</title></circle><path d="M 137.7 138.8 C 140.7 132.8, 146.7 135.8, 144.7 141.8" fill="none" stroke="#1d4ed8" stroke-width="1.2"/></g><g><circle cx="149.5" cy="137.8" r="4.3" fill="#fff7ed" stroke="#1d4ed8" stroke-width="2"><title>2026-06-26: 69 users</title></circle><path d="M 145.5 138.8 C 148.5 132.8, 154.5 135.8, 152.5 141.8" fill="none" stroke="#1d4ed8" stroke-width="1.2"/></g><g><circle cx="157.3" cy="136.0" r="4.3" fill="#fff7ed" stroke="#1d4ed8" stroke-width="2"><title>2026-06-27: 72 users</title></circle><path d="M 153.3 137.0 C 156.3 131.0, 162.3 134.0, 160.3 140.0" fill="none" stroke="#1d4ed8" stroke-width="1.2"/></g><g><circle cx="165.1" cy="136.0" r="4.3" fill="#fff7ed" stroke="#1d4ed8" stroke-width="2"><title>2026-06-28: 72 users</title></circle><path d="M 161.1 137.0 C 164.1 131.0, 170.1 134.0, 168.1 140.0" fill="none" stroke="#1d4ed8" stroke-width="1.2"/></g><g><circle cx="172.9" cy="132.5" r="4.3" fill="#fff7ed" stroke="#1d4ed8" stroke-width="2"><title>2026-06-29: 78 users</title></circle><path d="M 168.9 133.5 C 171.9 127.5, 177.9 130.5, 175.9 136.5" fill="none" stroke="#1d4ed8" stroke-width="1.2"/></g><g><circle cx="180.7" cy="129.0" r="4.3" fill="#fff7ed" stroke="#1d4ed8" stroke-width="2"><title>2026-06-30: 84 users</title></circle><path d="M 176.7 130.0 C 179.7 124.0, 185.7 127.0, 183.7 133.0" fill="none" stroke="#1d4ed8" stroke-width="1.2"/></g><g><circle cx="188.5" cy="129.0" r="4.3" fill="#fff7ed" stroke="#1d4ed8" stroke-width="2"><title>2026-07-01: 84 users</title></circle><path d="M 184.5 130.0 C 187.5 124.0, 193.5 127.0, 191.5 133.0" fill="none" stroke="#1d4ed8" stroke-width="1.2"/></g><g><circle cx="196.3" cy="130.2" r="4.3" fill="#fff7ed" stroke="#1d4ed8" stroke-width="2"><title>2026-07-02: 82 users</title></circle><path d="M 192.3 131.2 C 195.3 125.2, 201.3 128.2, 199.3 134.2" fill="none" stroke="#1d4ed8" stroke-width="1.2"/></g><g><circle cx="204.1" cy="130.8" r="4.3" fill="#fff7ed" stroke="#1d4ed8" stroke-width="2"><title>2026-07-03: 81 users</title></circle><path d="M 200.1 131.8 C 203.1 125.8, 209.1 128.8, 207.1 134.8" fill="none" stroke="#1d4ed8" stroke-width="1.2"/></g><g><circle cx="212.0" cy="130.2" r="4.3" fill="#fff7ed" stroke="#1d4ed8" stroke-width="2"><title>2026-07-04: 82 users</title></circle><path d="M 208.0 131.2 C 211.0 125.2, 217.0 128.2, 215.0 134.2" fill="none" stroke="#1d4ed8" stroke-width="1.2"/></g><g><circle cx="219.8" cy="127.8" r="4.3" fill="#fff7ed" stroke="#1d4ed8" stroke-width="2"><title>2026-07-05: 86 users</title></circle><path d="M 215.8 128.8 C 218.8 122.8, 224.8 125.8, 222.8 131.8" fill="none" stroke="#1d4ed8" stroke-width="1.2"/></g><g><circle cx="227.6" cy="127.8" r="4.3" fill="#fff7ed" stroke="#1d4ed8" stroke-width="2"><title>2026-07-06: 86 users</title></circle><path d="M 223.6 128.8 C 226.6 122.8, 232.6 125.8, 230.6 131.8" fill="none" stroke="#1d4ed8" stroke-width="1.2"/></g><g><circle cx="235.4" cy="124.9" r="4.3" fill="#fff7ed" stroke="#1d4ed8" stroke-width="2"><title>2026-07-07: 91 users</title></circle><path d="M 231.4 125.9 C 234.4 119.9, 240.4 122.9, 238.4 128.9" fill="none" stroke="#1d4ed8" stroke-width="1.2"/></g><g><circle cx="243.2" cy="124.9" r="4.3" fill="#fff7ed" stroke="#1d4ed8" stroke-width="2"><title>2026-07-08: 91 users</title></circle><path d="M 239.2 125.9 C 242.2 119.9, 248.2 122.9, 246.2 128.9" fill="none" stroke="#1d4ed8" stroke-width="1.2"/></g><g><circle cx="251.0" cy="124.9" r="4.3" fill="#fff7ed" stroke="#1d4ed8" stroke-width="2"><title>2026-07-09: 91 users</title></circle><path d="M 247.0 125.9 C 250.0 119.9, 256.0 122.9, 254.0 128.9" fill="none" stroke="#1d4ed8" stroke-width="1.2"/></g><g><circle cx="258.8" cy="124.9" r="4.3" fill="#fff7ed" stroke="#1d4ed8" stroke-width="2"><title>2026-07-10: 91 users</title></circle><path d="M 254.8 125.9 C 257.8 119.9, 263.8 122.9, 261.8 128.9" fill="none" stroke="#1d4ed8" stroke-width="1.2"/></g><g><circle cx="266.6" cy="123.2" r="4.3" fill="#fff7ed" stroke="#1d4ed8" stroke-width="2"><title>2026-07-11: 94 users</title></circle><path d="M 262.6 124.2 C 265.6 118.2, 271.6 121.2, 269.6 127.2" fill="none" stroke="#1d4ed8" stroke-width="1.2"/></g><g><circle cx="274.4" cy="123.2" r="4.3" fill="#fff7ed" stroke="#1d4ed8" stroke-width="2"><title>2026-07-12: 94 users</title></circle><path d="M 270.4 124.2 C 273.4 118.2, 279.4 121.2, 277.4 127.2" fill="none" stroke="#1d4ed8" stroke-width="1.2"/></g><g><circle cx="282.2" cy="125.5" r="4.3" fill="#fff7ed" stroke="#1d4ed8" stroke-width="2"><title>2026-07-13: 90 users</title></circle><path d="M 278.2 126.5 C 281.2 120.5, 287.2 123.5, 285.2 129.5" fill="none" stroke="#1d4ed8" stroke-width="1.2"/></g><g><circle cx="290.0" cy="125.5" r="4.3" fill="#fff7ed" stroke="#1d4ed8" stroke-width="2"><title>2026-07-14: 90 users</title></circle><path d="M 286.0 126.5 C 289.0 120.5, 295.0 123.5, 293.0 129.5" fill="none" stroke="#1d4ed8" stroke-width="1.2"/></g><g><circle cx="297.8" cy="125.5" r="4.3" fill="#fff7ed" stroke="#1d4ed8" stroke-width="2"><title>2026-07-15: 90 users</title></circle><path d="M 293.8 126.5 C 296.8 120.5, 302.8 123.5, 300.8 129.5" fill="none" stroke="#1d4ed8" stroke-width="1.2"/></g><g><circle cx="305.6" cy="125.5" r="4.3" fill="#fff7ed" stroke="#1d4ed8" stroke-width="2"><title>2026-07-16: 90 users</title></circle><path d="M 301.6 126.5 C 304.6 120.5, 310.6 123.5, 308.6 129.5" fill="none" stroke="#1d4ed8" stroke-width="1.2"/></g><g><circle cx="313.4" cy="125.5" r="4.3" fill="#fff7ed" stroke="#1d4ed8" stroke-width="2"><title>2026-07-17: 90 users</title></circle><path d="M 309.4 126.5 C 312.4 120.5, 318.4 123.5, 316.4 129.5" fill="none" stroke="#1d4ed8" stroke-width="1.2"/></g><g><circle cx="321.3" cy="118.5" r="4.3" fill="#fff7ed" stroke="#1d4ed8" stroke-width="2"><title>2026-07-18: 102 users</title></circle><path d="M 317.3 119.5 C 320.3 113.5, 326.3 116.5, 324.3 122.5" fill="none" stroke="#1d4ed8" stroke-width="1.2"/></g><g><circle cx="329.1" cy="115.0" r="4.3" fill="#fff7ed" stroke="#1d4ed8" stroke-width="2"><title>2026-07-19: 108 users</title></circle><path d="M 325.1 116.0 C 328.1 110.0, 334.1 113.0, 332.1 119.0" fill="none" stroke="#1d4ed8" stroke-width="1.2"/></g><g><circle cx="336.9" cy="115.0" r="4.3" fill="#fff7ed" stroke="#1d4ed8" stroke-width="2"><title>2026-07-20: 108 users</title></circle><path d="M 332.9 116.0 C 335.9 110.0, 341.9 113.0, 339.9 119.0" fill="none" stroke="#1d4ed8" stroke-width="1.2"/></g><g><circle cx="344.7" cy="112.1" r="4.3" fill="#fff7ed" stroke="#1d4ed8" stroke-width="2"><title>2026-07-21: 113 users</title></circle><path d="M 340.7 113.1 C 343.7 107.1, 349.7 110.1, 347.7 116.1" fill="none" stroke="#1d4ed8" stroke-width="1.2"/></g><g><circle cx="352.5" cy="106.8" r="4.3" fill="#fff7ed" stroke="#1d4ed8" stroke-width="2"><title>2026-07-22: 122 users</title></circle><path d="M 348.5 107.8 C 351.5 101.8, 357.5 104.8, 355.5 110.8" fill="none" stroke="#1d4ed8" stroke-width="1.2"/></g><g><circle cx="360.3" cy="106.8" r="4.3" fill="#fff7ed" stroke="#1d4ed8" stroke-width="2"><title>2026-07-23: 122 users</title></circle><path d="M 356.3 107.8 C 359.3 101.8, 365.3 104.8, 363.3 110.8" fill="none" stroke="#1d4ed8" stroke-width="1.2"/></g><g><circle cx="368.1" cy="105.1" r="4.3" fill="#fff7ed" stroke="#1d4ed8" stroke-width="2"><title>2026-07-24: 125 users</title></circle><path d="M 364.1 106.1 C 367.1 100.1, 373.1 103.1, 371.1 109.1" fill="none" stroke="#1d4ed8" stroke-width="1.2"/></g><g><circle cx="375.9" cy="106.3" r="4.3" fill="#fff7ed" stroke="#1d4ed8" stroke-width="2"><title>2026-07-25: 123 users</title></circle><path d="M 371.9 107.3 C 374.9 101.3, 380.9 104.3, 378.9 110.3" fill="none" stroke="#1d4ed8" stroke-width="1.2"/></g><g><circle cx="383.7" cy="106.3" r="4.3" fill="#fff7ed" stroke="#1d4ed8" stroke-width="2"><title>2026-07-26: 123 users</title></circle><path d="M 379.7 107.3 C 382.7 101.3, 388.7 104.3, 386.7 110.3" fill="none" stroke="#1d4ed8" stroke-width="1.2"/></g><g><circle cx="391.5" cy="106.3" r="4.3" fill="#fff7ed" stroke="#1d4ed8" stroke-width="2"><title>2026-07-27: 123 users</title></circle><path d="M 387.5 107.3 C 390.5 101.3, 396.5 104.3, 394.5 110.3" fill="none" stroke="#1d4ed8" stroke-width="1.2"/></g><g><circle cx="399.3" cy="102.8" r="4.3" fill="#fff7ed" stroke="#1d4ed8" stroke-width="2"><title>2026-07-28: 129 users</title></circle><path d="M 395.3 103.8 C 398.3 97.8, 404.3 100.8, 402.3 106.8" fill="none" stroke="#1d4ed8" stroke-width="1.2"/></g><g><circle cx="407.1" cy="102.8" r="4.3" fill="#fff7ed" stroke="#1d4ed8" stroke-width="2"><title>2026-07-29: 129 users</title></circle><path d="M 403.1 103.8 C 406.1 97.8, 412.1 100.8, 410.1 106.8" fill="none" stroke="#1d4ed8" stroke-width="1.2"/></g><g><circle cx="414.9" cy="103.3" r="4.3" fill="#fff7ed" stroke="#1d4ed8" stroke-width="2"><title>2026-07-30: 128 users</title></circle><path d="M 410.9 104.3 C 413.9 98.3, 419.9 101.3, 417.9 107.3" fill="none" stroke="#1d4ed8" stroke-width="1.2"/></g><g><circle cx="422.7" cy="103.3" r="4.3" fill="#fff7ed" stroke="#1d4ed8" stroke-width="2"><title>2026-07-31: 128 users</title></circle><path d="M 418.7 104.3 C 421.7 98.3, 427.7 101.3, 425.7 107.3" fill="none" stroke="#1d4ed8" stroke-width="1.2"/></g><g><circle cx="430.6" cy="98.1" r="4.3" fill="#fff7ed" stroke="#1d4ed8" stroke-width="2"><title>2026-08-01: 137 users</title></circle><path d="M 426.6 99.1 C 429.6 93.1, 435.6 96.1, 433.6 102.1" fill="none" stroke="#1d4ed8" stroke-width="1.2"/></g><g><circle cx="438.4" cy="96.3" r="4.3" fill="#fff7ed" stroke="#1d4ed8" stroke-width="2"><title>2026-08-02: 140 users</title></circle><path d="M 434.4 97.3 C 437.4 91.3, 443.4 94.3, 441.4 100.3" fill="none" stroke="#1d4ed8" stroke-width="1.2"/></g><g><circle cx="446.2" cy="95.8" r="4.3" fill="#fff7ed" stroke="#1d4ed8" stroke-width="2"><title>2026-08-03: 141 users</title></circle><path d="M 442.2 96.8 C 445.2 90.8, 451.2 93.8, 449.2 99.8" fill="none" stroke="#1d4ed8" stroke-width="1.2"/></g><g><circle cx="454.0" cy="95.8" r="4.3" fill="#fff7ed" stroke="#1d4ed8" stroke-width="2"><title>2026-08-04: 141 users</title></circle><path d="M 450.0 96.8 C 453.0 90.8, 459.0 93.8, 457.0 99.8" fill="none" stroke="#1d4ed8" stroke-width="1.2"/></g><g><circle cx="461.8" cy="95.2" r="4.3" fill="#fff7ed" stroke="#1d4ed8" stroke-width="2"><title>2026-08-06: 142 users</title></circle><path d="M 457.8 96.2 C 460.8 90.2, 466.8 93.2, 464.8 99.2" fill="none" stroke="#1d4ed8" stroke-width="1.2"/></g><g><circle cx="469.6" cy="96.9" r="4.3" fill="#fff7ed" stroke="#1d4ed8" stroke-width="2"><title>2026-08-07: 139 users</title></circle><path d="M 465.6 97.9 C 468.6 91.9, 474.6 94.9, 472.6 100.9" fill="none" stroke="#1d4ed8" stroke-width="1.2"/></g><g><circle cx="477.4" cy="94.0" r="4.3" fill="#fff7ed" stroke="#1d4ed8" stroke-width="2"><title>2026-08-08: 144 users</title></circle><path d="M 473.4 95.0 C 476.4 89.0, 482.4 92.0, 480.4 98.0" fill="none" stroke="#1d4ed8" stroke-width="1.2"/></g><g><circle cx="485.2" cy="92.8" r="4.3" fill="#fff7ed" stroke="#1d4ed8" stroke-width="2"><title>2026-08-09: 146 users</title></circle><path d="M 481.2 93.8 C 484.2 87.8, 490.2 90.8, 488.2 96.8" fill="none" stroke="#1d4ed8" stroke-width="1.2"/></g><g><circle cx="493.0" cy="92.8" r="4.3" fill="#fff7ed" stroke="#1d4ed8" stroke-width="2"><title>2026-08-10: 146 users</title></circle><path d="M 489.0 93.8 C 492.0 87.8, 498.0 90.8, 496.0 96.8" fill="none" stroke="#1d4ed8" stroke-width="1.2"/></g><g><circle cx="500.8" cy="92.8" r="4.3" fill="#fff7ed" stroke="#1d4ed8" stroke-width="2"><title>2026-08-11: 146 users</title></circle><path d="M 496.8 93.8 C 499.8 87.8, 505.8 90.8, 503.8 96.8" fill="none" stroke="#1d4ed8" stroke-width="1.2"/></g><g><circle cx="508.6" cy="91.1" r="4.3" fill="#fff7ed" stroke="#1d4ed8" stroke-width="2"><title>2026-08-12: 149 users</title></circle><path d="M 504.6 92.1 C 507.6 86.1, 513.6 89.1, 511.6 95.1" fill="none" stroke="#1d4ed8" stroke-width="1.2"/></g><g><circle cx="516.4" cy="91.1" r="4.3" fill="#fff7ed" stroke="#1d4ed8" stroke-width="2"><title>2026-08-13: 149 users</title></circle><path d="M 512.4 92.1 C 515.4 86.1, 521.4 89.1, 519.4 95.1" fill="none" stroke="#1d4ed8" stroke-width="1.2"/></g><g><circle cx="524.2" cy="91.1" r="4.3" fill="#fff7ed" stroke="#1d4ed8" stroke-width="2"><title>2026-08-14: 149 users</title></circle><path d="M 520.2 92.1 C 523.2 86.1, 529.2 89.1, 527.2 95.1" fill="none" stroke="#1d4ed8" stroke-width="1.2"/></g><g><circle cx="532.0" cy="85.8" r="4.3" fill="#fff7ed" stroke="#1d4ed8" stroke-width="2"><title>2026-08-15: 158 users</title></circle><path d="M 528.0 86.8 C 531.0 80.8, 537.0 83.8, 535.0 89.8" fill="none" stroke="#1d4ed8" stroke-width="1.2"/></g><g><circle cx="539.9" cy="84.7" r="4.3" fill="#fff7ed" stroke="#1d4ed8" stroke-width="2"><title>2026-08-16: 160 users</title></circle><path d="M 535.9 85.7 C 538.9 79.7, 544.9 82.7, 542.9 88.7" fill="none" stroke="#1d4ed8" stroke-width="1.2"/></g><g><circle cx="547.7" cy="84.7" r="4.3" fill="#fff7ed" stroke="#1d4ed8" stroke-width="2"><title>2026-08-17: 160 users</title></circle><path d="M 543.7 85.7 C 546.7 79.7, 552.7 82.7, 550.7 88.7" fill="none" stroke="#1d4ed8" stroke-width="1.2"/></g><g><circle cx="555.5" cy="84.7" r="4.3" fill="#fff7ed" stroke="#1d4ed8" stroke-width="2"><title>2026-08-18: 160 users</title></circle><path d="M 551.5 85.7 C 554.5 79.7, 560.5 82.7, 558.5 88.7" fill="none" stroke="#1d4ed8" stroke-width="1.2"/></g><g><circle cx="563.3" cy="84.7" r="4.3" fill="#fff7ed" stroke="#1d4ed8" stroke-width="2"><title>2026-08-19: 160 users</title></circle><path d="M 559.3 85.7 C 562.3 79.7, 568.3 82.7, 566.3 88.7" fill="none" stroke="#1d4ed8" stroke-width="1.2"/></g><g><circle cx="571.1" cy="81.8" r="4.3" fill="#fff7ed" stroke="#1d4ed8" stroke-width="2"><title>2026-08-20: 165 users</title></circle><path d="M 567.1 82.8 C 570.1 76.8, 576.1 79.8, 574.1 85.8" fill="none" stroke="#1d4ed8" stroke-width="1.2"/></g><g><circle cx="578.9" cy="81.8" r="4.3" fill="#fff7ed" stroke="#1d4ed8" stroke-width="2"><title>2026-08-21: 165 users</title></circle><path d="M 574.9 82.8 C 577.9 76.8, 583.9 79.8, 581.9 85.8" fill="none" stroke="#1d4ed8" stroke-width="1.2"/></g><g><circle cx="586.7" cy="80.0" r="4.3" fill="#fff7ed" stroke="#1d4ed8" stroke-width="2"><title>2026-08-22: 168 users</title></circle><path d="M 582.7 81.0 C 585.7 75.0, 591.7 78.0, 589.7 84.0" fill="none" stroke="#1d4ed8" stroke-width="1.2"/></g><g><circle cx="594.5" cy="80.0" r="4.3" fill="#fff7ed" stroke="#1d4ed8" stroke-width="2"><title>2026-08-23: 168 users</title></circle><path d="M 590.5 81.0 C 593.5 75.0, 599.5 78.0, 597.5 84.0" fill="none" stroke="#1d4ed8" stroke-width="1.2"/></g><g><circle cx="602.3" cy="76.5" r="4.3" fill="#fff7ed" stroke="#1d4ed8" stroke-width="2"><title>2026-08-24: 174 users</title></circle><path d="M 598.3 77.5 C 601.3 71.5, 607.3 74.5, 605.3 80.5" fill="none" stroke="#1d4ed8" stroke-width="1.2"/></g><g><circle cx="610.1" cy="74.2" r="4.3" fill="#fff7ed" stroke="#1d4ed8" stroke-width="2"><title>2026-08-25: 178 users</title></circle><path d="M 606.1 75.2 C 609.1 69.2, 615.1 72.2, 613.1 78.2" fill="none" stroke="#1d4ed8" stroke-width="1.2"/></g><g><circle cx="617.9" cy="73.6" r="4.3" fill="#fff7ed" stroke="#1d4ed8" stroke-width="2"><title>2026-08-26: 179 users</title></circle><path d="M 613.9 74.6 C 616.9 68.6, 622.9 71.6, 620.9 77.6" fill="none" stroke="#1d4ed8" stroke-width="1.2"/></g><g><circle cx="625.7" cy="71.3" r="4.3" fill="#fff7ed" stroke="#1d4ed8" stroke-width="2"><title>2026-08-27: 183 users</title></circle><path d="M 621.7 72.3 C 624.7 66.3, 630.7 69.3, 628.7 75.3" fill="none" stroke="#1d4ed8" stroke-width="1.2"/></g><g><circle cx="633.5" cy="70.7" r="4.3" fill="#fff7ed" stroke="#1d4ed8" stroke-width="2"><title>2026-08-28: 184 users</title></circle><path d="M 629.5 71.7 C 632.5 65.7, 638.5 68.7, 636.5 74.7" fill="none" stroke="#1d4ed8" stroke-width="1.2"/></g><g><circle cx="641.3" cy="70.1" r="4.3" fill="#fff7ed" stroke="#1d4ed8" stroke-width="2"><title>2026-08-29: 185 users</title></circle><path d="M 637.3 71.1 C 640.3 65.1, 646.3 68.1, 644.3 74.1" fill="none" stroke="#1d4ed8" stroke-width="1.2"/></g><g><circle cx="649.2" cy="68.3" r="4.3" fill="#fff7ed" stroke="#1d4ed8" stroke-width="2"><title>2026-08-30: 188 users</title></circle><path d="M 645.2 69.3 C 648.2 63.3, 654.2 66.3, 652.2 72.3" fill="none" stroke="#1d4ed8" stroke-width="1.2"/></g><g><circle cx="657.0" cy="67.2" r="4.3" fill="#fff7ed" stroke="#1d4ed8" stroke-width="2"><title>2026-08-31: 190 users</title></circle><path d="M 653.0 68.2 C 656.0 62.2, 662.0 65.2, 660.0 71.2" fill="none" stroke="#1d4ed8" stroke-width="1.2"/></g><g><circle cx="664.8" cy="66.6" r="4.3" fill="#fff7ed" stroke="#1d4ed8" stroke-width="2"><title>2026-09-01: 191 users</title></circle><path d="M 660.8 67.6 C 663.8 61.6, 669.8 64.6, 667.8 70.6" fill="none" stroke="#1d4ed8" stroke-width="1.2"/></g><g><circle cx="672.6" cy="66.6" r="4.3" fill="#fff7ed" stroke="#1d4ed8" stroke-width="2"><title>2026-09-02: 191 users</title></circle><path d="M 668.6 67.6 C 671.6 61.6, 677.6 64.6, 675.6 70.6" fill="none" stroke="#1d4ed8" stroke-width="1.2"/></g><g><circle cx="680.4" cy="58.4" r="4.3" fill="#fff7ed" stroke="#1d4ed8" stroke-width="2"><title>2026-09-03: 205 users</title></circle><path d="M 676.4 59.4 C 679.4 53.4, 685.4 56.4, 683.4 62.4" fill="none" stroke="#1d4ed8" stroke-width="1.2"/></g><g><circle cx="688.2" cy="56.7" r="4.3" fill="#fff7ed" stroke="#1d4ed8" stroke-width="2"><title>2026-09-04: 208 users</title></circle><path d="M 684.2 57.7 C 687.2 51.7, 693.2 54.7, 691.2 60.7" fill="none" stroke="#1d4ed8" stroke-width="1.2"/></g><g><circle cx="696.0" cy="56.7" r="4.3" fill="#fff7ed" stroke="#1d4ed8" stroke-width="2"><title>2026-09-05: 208 users</title></circle><path d="M 692.0 57.7 C 695.0 51.7, 701.0 54.7, 699.0 60.7" fill="none" stroke="#1d4ed8" stroke-width="1.2"/></g>
  <text x="48" y="206" fill="#57534e" font-family="'Comic Sans MS', 'Segoe Print', cursive" font-size="11">2026-06-13</text>
  <text x="696" y="206" fill="#57534e" font-family="'Comic Sans MS', 'Segoe Print', cursive" font-size="11" text-anchor="end">2026-09-05</text>
</svg>
