<svg xmlns="http://www.w3.org/2000/svg" width="720" height="220" viewBox="0 0 720 220" role="img" aria-label="Chrome Web Store users trend">
  <rect width="720" height="220" rx="8" fill="#fffdf7"/>
  <path d="M 11 8 C 190 3, 512 7, 710 11 M 714 11 C 717 74, 715 151, 711 211 M 708 214 C 523 218, 177 216, 12 211 M 9 211 C 4 145, 7 78, 11 8" fill="none" stroke="#292524" stroke-width="1.3" opacity="0.7"/>
  <text x="24" y="24" fill="#1c1917" font-family="'Comic Sans MS', 'Segoe Print', cursive" font-size="16" font-weight="700">Chrome Web Store users</text>
  <text x="696" y="24" fill="#1d4ed8" font-family="'Comic Sans MS', 'Segoe Print', cursive" font-size="16" font-weight="700" text-anchor="end">137 users</text>
  <text x="696" y="43" fill="#57534e" font-family="'Comic Sans MS', 'Segoe Print', cursive" font-size="11" text-anchor="end">Data through 2026-08-01</text>
  <g><path d="M 48 37.1 C 228 38.9, 468 37.1, 696 38.9" fill="none" stroke="#d6d3c8" stroke-width="1.1"/><text x="38" y="42" text-anchor="end" fill="#57534e" font-size="11">158</text></g>
  <g><path d="M 48 109.4 C 228 106.6, 468 109.4, 696 106.6" fill="none" stroke="#d6d3c8" stroke-width="1.1"/><text x="38" y="112" text-anchor="end" fill="#57534e" font-size="11">79</text></g>
  <g><path d="M 48 177.1 C 228 178.9, 468 177.1, 696 178.9" fill="none" stroke="#d6d3c8" stroke-width="1.1"/><text x="38" y="182" text-anchor="end" fill="#57534e" font-size="11">0</text></g>
  <path d="M 48 36 C 44 98, 50 156, 48 178" fill="none" stroke="#292524" stroke-width="1.4"/>
  <path d="M 46 178 C 218 182, 478 175, 696 179" fill="none" stroke="#292524" stroke-width="1.4"/>
  <path d="M 48.0 139.8 L 61.2 136.4 L 74.4 138.0 L 87.7 132.0 L 100.9 133.6 L 114.1 128.5 L 127.3 130.1 L 140.6 127.6 L 153.8 128.3 L 167.0 126.7 L 180.2 124.7 L 193.5 121.4 L 206.7 117.7 L 219.9 116.1 L 233.1 115.0 L 246.4 113.4 L 259.6 109.7 L 272.8 102.8 L 286.0 104.4 L 299.3 104.5 L 312.5 107.0 L 325.7 104.5 L 338.9 102.6 L 352.2 101.0 L 365.4 98.2 L 378.6 96.6 L 391.8 98.2 L 405.1 96.6 L 418.3 95.5 L 431.5 93.9 L 444.7 99.1 L 458.0 97.5 L 471.2 99.1 L 484.4 97.5 L 497.6 99.1 L 510.9 86.8 L 524.1 83.1 L 537.3 81.5 L 550.5 78.7 L 563.8 69.1 L 577.0 70.7 L 590.2 66.4 L 603.4 69.8 L 616.7 68.2 L 629.9 69.8 L 643.1 62.9 L 656.3 64.5 L 669.6 63.8 L 682.8 65.4 L 696.0 55.8" fill="none" stroke="#2563eb" stroke-width="3.6" stroke-linecap="round" stroke-linejoin="round"/>
  <path d="M 48.0 138.3 L 61.2 137.9 L 74.4 136.5 L 87.7 133.5 L 100.9 132.1 L 114.1 130.0 L 127.3 128.6 L 140.6 129.1 L 153.8 126.8 L 167.0 128.2 L 180.2 123.2 L 193.5 122.9 L 206.7 116.2 L 219.9 117.6 L 233.1 113.5 L 246.4 114.9 L 259.6 108.2 L 272.8 104.3 L 286.0 102.9 L 299.3 106.0 L 312.5 105.5 L 325.7 106.0 L 338.9 101.1 L 352.2 102.5 L 365.4 96.7 L 378.6 98.1 L 391.8 96.7 L 405.1 98.1 L 418.3 94.0 L 431.5 95.4 L 444.7 97.6 L 458.0 99.0 L 471.2 97.6 L 484.4 99.0 L 497.6 97.6 L 510.9 88.3 L 524.1 81.6 L 537.3 83.0 L 550.5 77.2 L 563.8 70.6 L 577.0 69.2 L 590.2 67.9 L 603.4 68.3 L 616.7 69.7 L 629.9 68.3 L 643.1 64.4 L 656.3 63.0 L 669.6 65.3 L 682.8 63.9 L 696.0 57.3" fill="none" stroke="#60a5fa" stroke-width="1.6" stroke-linecap="round" stroke-linejoin="round" opacity="0.85"/>
  <g><circle cx="48.0" cy="139.0" r="4.3" fill="#fff7ed" stroke="#1d4ed8" stroke-width="2"><title>2026-06-13: 44 users</title></circle><path d="M 44.0 140.0 C 47.0 134.0, 53.0 137.0, 51.0 143.0" fill="none" stroke="#1d4ed8" stroke-width="1.2"/></g><g><circle cx="61.2" cy="137.2" r="4.3" fill="#fff7ed" stroke="#1d4ed8" stroke-width="2"><title>2026-06-14: 46 users</title></circle><path d="M 57.2 138.2 C 60.2 132.2, 66.2 135.2, 64.2 141.2" fill="none" stroke="#1d4ed8" stroke-width="1.2"/></g><g><circle cx="74.4" cy="137.2" r="4.3" fill="#fff7ed" stroke="#1d4ed8" stroke-width="2"><title>2026-06-15: 46 users</title></circle><path d="M 70.4 138.2 C 73.4 132.2, 79.4 135.2, 77.4 141.2" fill="none" stroke="#1d4ed8" stroke-width="1.2"/></g><g><circle cx="87.7" cy="132.8" r="4.3" fill="#fff7ed" stroke="#1d4ed8" stroke-width="2"><title>2026-06-16: 51 users</title></circle><path d="M 83.7 133.8 C 86.7 127.8, 92.7 130.8, 90.7 136.8" fill="none" stroke="#1d4ed8" stroke-width="1.2"/></g><g><circle cx="100.9" cy="132.8" r="4.3" fill="#fff7ed" stroke="#1d4ed8" stroke-width="2"><title>2026-06-17: 51 users</title></circle><path d="M 96.9 133.8 C 99.9 127.8, 105.9 130.8, 103.9 136.8" fill="none" stroke="#1d4ed8" stroke-width="1.2"/></g><g><circle cx="114.1" cy="129.3" r="4.3" fill="#fff7ed" stroke="#1d4ed8" stroke-width="2"><title>2026-06-18: 55 users</title></circle><path d="M 110.1 130.3 C 113.1 124.3, 119.1 127.3, 117.1 133.3" fill="none" stroke="#1d4ed8" stroke-width="1.2"/></g><g><circle cx="127.3" cy="129.3" r="4.3" fill="#fff7ed" stroke="#1d4ed8" stroke-width="2"><title>2026-06-19: 55 users</title></circle><path d="M 123.3 130.3 C 126.3 124.3, 132.3 127.3, 130.3 133.3" fill="none" stroke="#1d4ed8" stroke-width="1.2"/></g><g><circle cx="140.6" cy="128.4" r="4.3" fill="#fff7ed" stroke="#1d4ed8" stroke-width="2"><title>2026-06-20: 56 users</title></circle><path d="M 136.6 129.4 C 139.6 123.4, 145.6 126.4, 143.6 132.4" fill="none" stroke="#1d4ed8" stroke-width="1.2"/></g><g><circle cx="153.8" cy="127.5" r="4.3" fill="#fff7ed" stroke="#1d4ed8" stroke-width="2"><title>2026-06-21: 57 users</title></circle><path d="M 149.8 128.5 C 152.8 122.5, 158.8 125.5, 156.8 131.5" fill="none" stroke="#1d4ed8" stroke-width="1.2"/></g><g><circle cx="167.0" cy="127.5" r="4.3" fill="#fff7ed" stroke="#1d4ed8" stroke-width="2"><title>2026-06-22: 57 users</title></circle><path d="M 163.0 128.5 C 166.0 122.5, 172.0 125.5, 170.0 131.5" fill="none" stroke="#1d4ed8" stroke-width="1.2"/></g><g><circle cx="180.2" cy="123.9" r="4.3" fill="#fff7ed" stroke="#1d4ed8" stroke-width="2"><title>2026-06-23: 61 users</title></circle><path d="M 176.2 124.9 C 179.2 118.9, 185.2 121.9, 183.2 127.9" fill="none" stroke="#1d4ed8" stroke-width="1.2"/></g><g><circle cx="193.5" cy="122.2" r="4.3" fill="#fff7ed" stroke="#1d4ed8" stroke-width="2"><title>2026-06-24: 63 users</title></circle><path d="M 189.5 123.2 C 192.5 117.2, 198.5 120.2, 196.5 126.2" fill="none" stroke="#1d4ed8" stroke-width="1.2"/></g><g><circle cx="206.7" cy="116.9" r="4.3" fill="#fff7ed" stroke="#1d4ed8" stroke-width="2"><title>2026-06-25: 69 users</title></circle><path d="M 202.7 117.9 C 205.7 111.9, 211.7 114.9, 209.7 120.9" fill="none" stroke="#1d4ed8" stroke-width="1.2"/></g><g><circle cx="219.9" cy="116.9" r="4.3" fill="#fff7ed" stroke="#1d4ed8" stroke-width="2"><title>2026-06-26: 69 users</title></circle><path d="M 215.9 117.9 C 218.9 111.9, 224.9 114.9, 222.9 120.9" fill="none" stroke="#1d4ed8" stroke-width="1.2"/></g><g><circle cx="233.1" cy="114.2" r="4.3" fill="#fff7ed" stroke="#1d4ed8" stroke-width="2"><title>2026-06-27: 72 users</title></circle><path d="M 229.1 115.2 C 232.1 109.2, 238.1 112.2, 236.1 118.2" fill="none" stroke="#1d4ed8" stroke-width="1.2"/></g><g><circle cx="246.4" cy="114.2" r="4.3" fill="#fff7ed" stroke="#1d4ed8" stroke-width="2"><title>2026-06-28: 72 users</title></circle><path d="M 242.4 115.2 C 245.4 109.2, 251.4 112.2, 249.4 118.2" fill="none" stroke="#1d4ed8" stroke-width="1.2"/></g><g><circle cx="259.6" cy="108.9" r="4.3" fill="#fff7ed" stroke="#1d4ed8" stroke-width="2"><title>2026-06-29: 78 users</title></circle><path d="M 255.6 109.9 C 258.6 103.9, 264.6 106.9, 262.6 112.9" fill="none" stroke="#1d4ed8" stroke-width="1.2"/></g><g><circle cx="272.8" cy="103.6" r="4.3" fill="#fff7ed" stroke="#1d4ed8" stroke-width="2"><title>2026-06-30: 84 users</title></circle><path d="M 268.8 104.6 C 271.8 98.6, 277.8 101.6, 275.8 107.6" fill="none" stroke="#1d4ed8" stroke-width="1.2"/></g><g><circle cx="286.0" cy="103.6" r="4.3" fill="#fff7ed" stroke="#1d4ed8" stroke-width="2"><title>2026-07-01: 84 users</title></circle><path d="M 282.0 104.6 C 285.0 98.6, 291.0 101.6, 289.0 107.6" fill="none" stroke="#1d4ed8" stroke-width="1.2"/></g><g><circle cx="299.3" cy="105.3" r="4.3" fill="#fff7ed" stroke="#1d4ed8" stroke-width="2"><title>2026-07-02: 82 users</title></circle><path d="M 295.3 106.3 C 298.3 100.3, 304.3 103.3, 302.3 109.3" fill="none" stroke="#1d4ed8" stroke-width="1.2"/></g><g><circle cx="312.5" cy="106.2" r="4.3" fill="#fff7ed" stroke="#1d4ed8" stroke-width="2"><title>2026-07-03: 81 users</title></circle><path d="M 308.5 107.2 C 311.5 101.2, 317.5 104.2, 315.5 110.2" fill="none" stroke="#1d4ed8" stroke-width="1.2"/></g><g><circle cx="325.7" cy="105.3" r="4.3" fill="#fff7ed" stroke="#1d4ed8" stroke-width="2"><title>2026-07-04: 82 users</title></circle><path d="M 321.7 106.3 C 324.7 100.3, 330.7 103.3, 328.7 109.3" fill="none" stroke="#1d4ed8" stroke-width="1.2"/></g><g><circle cx="338.9" cy="101.8" r="4.3" fill="#fff7ed" stroke="#1d4ed8" stroke-width="2"><title>2026-07-05: 86 users</title></circle><path d="M 334.9 102.8 C 337.9 96.8, 343.9 99.8, 341.9 105.8" fill="none" stroke="#1d4ed8" stroke-width="1.2"/></g><g><circle cx="352.2" cy="101.8" r="4.3" fill="#fff7ed" stroke="#1d4ed8" stroke-width="2"><title>2026-07-06: 86 users</title></circle><path d="M 348.2 102.8 C 351.2 96.8, 357.2 99.8, 355.2 105.8" fill="none" stroke="#1d4ed8" stroke-width="1.2"/></g><g><circle cx="365.4" cy="97.4" r="4.3" fill="#fff7ed" stroke="#1d4ed8" stroke-width="2"><title>2026-07-07: 91 users</title></circle><path d="M 361.4 98.4 C 364.4 92.4, 370.4 95.4, 368.4 101.4" fill="none" stroke="#1d4ed8" stroke-width="1.2"/></g><g><circle cx="378.6" cy="97.4" r="4.3" fill="#fff7ed" stroke="#1d4ed8" stroke-width="2"><title>2026-07-08: 91 users</title></circle><path d="M 374.6 98.4 C 377.6 92.4, 383.6 95.4, 381.6 101.4" fill="none" stroke="#1d4ed8" stroke-width="1.2"/></g><g><circle cx="391.8" cy="97.4" r="4.3" fill="#fff7ed" stroke="#1d4ed8" stroke-width="2"><title>2026-07-09: 91 users</title></circle><path d="M 387.8 98.4 C 390.8 92.4, 396.8 95.4, 394.8 101.4" fill="none" stroke="#1d4ed8" stroke-width="1.2"/></g><g><circle cx="405.1" cy="97.4" r="4.3" fill="#fff7ed" stroke="#1d4ed8" stroke-width="2"><title>2026-07-10: 91 users</title></circle><path d="M 401.1 98.4 C 404.1 92.4, 410.1 95.4, 408.1 101.4" fill="none" stroke="#1d4ed8" stroke-width="1.2"/></g><g><circle cx="418.3" cy="94.7" r="4.3" fill="#fff7ed" stroke="#1d4ed8" stroke-width="2"><title>2026-07-11: 94 users</title></circle><path d="M 414.3 95.7 C 417.3 89.7, 423.3 92.7, 421.3 98.7" fill="none" stroke="#1d4ed8" stroke-width="1.2"/></g><g><circle cx="431.5" cy="94.7" r="4.3" fill="#fff7ed" stroke="#1d4ed8" stroke-width="2"><title>2026-07-12: 94 users</title></circle><path d="M 427.5 95.7 C 430.5 89.7, 436.5 92.7, 434.5 98.7" fill="none" stroke="#1d4ed8" stroke-width="1.2"/></g><g><circle cx="444.7" cy="98.3" r="4.3" fill="#fff7ed" stroke="#1d4ed8" stroke-width="2"><title>2026-07-13: 90 users</title></circle><path d="M 440.7 99.3 C 443.7 93.3, 449.7 96.3, 447.7 102.3" fill="none" stroke="#1d4ed8" stroke-width="1.2"/></g><g><circle cx="458.0" cy="98.3" r="4.3" fill="#fff7ed" stroke="#1d4ed8" stroke-width="2"><title>2026-07-14: 90 users</title></circle><path d="M 454.0 99.3 C 457.0 93.3, 463.0 96.3, 461.0 102.3" fill="none" stroke="#1d4ed8" stroke-width="1.2"/></g><g><circle cx="471.2" cy="98.3" r="4.3" fill="#fff7ed" stroke="#1d4ed8" stroke-width="2"><title>2026-07-15: 90 users</title></circle><path d="M 467.2 99.3 C 470.2 93.3, 476.2 96.3, 474.2 102.3" fill="none" stroke="#1d4ed8" stroke-width="1.2"/></g><g><circle cx="484.4" cy="98.3" r="4.3" fill="#fff7ed" stroke="#1d4ed8" stroke-width="2"><title>2026-07-16: 90 users</title></circle><path d="M 480.4 99.3 C 483.4 93.3, 489.4 96.3, 487.4 102.3" fill="none" stroke="#1d4ed8" stroke-width="1.2"/></g><g><circle cx="497.6" cy="98.3" r="4.3" fill="#fff7ed" stroke="#1d4ed8" stroke-width="2"><title>2026-07-17: 90 users</title></circle><path d="M 493.6 99.3 C 496.6 93.3, 502.6 96.3, 500.6 102.3" fill="none" stroke="#1d4ed8" stroke-width="1.2"/></g><g><circle cx="510.9" cy="87.6" r="4.3" fill="#fff7ed" stroke="#1d4ed8" stroke-width="2"><title>2026-07-18: 102 users</title></circle><path d="M 506.9 88.6 C 509.9 82.6, 515.9 85.6, 513.9 91.6" fill="none" stroke="#1d4ed8" stroke-width="1.2"/></g><g><circle cx="524.1" cy="82.3" r="4.3" fill="#fff7ed" stroke="#1d4ed8" stroke-width="2"><title>2026-07-19: 108 users</title></circle><path d="M 520.1 83.3 C 523.1 77.3, 529.1 80.3, 527.1 86.3" fill="none" stroke="#1d4ed8" stroke-width="1.2"/></g><g><circle cx="537.3" cy="82.3" r="4.3" fill="#fff7ed" stroke="#1d4ed8" stroke-width="2"><title>2026-07-20: 108 users</title></circle><path d="M 533.3 83.3 C 536.3 77.3, 542.3 80.3, 540.3 86.3" fill="none" stroke="#1d4ed8" stroke-width="1.2"/></g><g><circle cx="550.5" cy="77.9" r="4.3" fill="#fff7ed" stroke="#1d4ed8" stroke-width="2"><title>2026-07-21: 113 users</title></circle><path d="M 546.5 78.9 C 549.5 72.9, 555.5 75.9, 553.5 81.9" fill="none" stroke="#1d4ed8" stroke-width="1.2"/></g><g><circle cx="563.8" cy="69.9" r="4.3" fill="#fff7ed" stroke="#1d4ed8" stroke-width="2"><title>2026-07-22: 122 users</title></circle><path d="M 559.8 70.9 C 562.8 64.9, 568.8 67.9, 566.8 73.9" fill="none" stroke="#1d4ed8" stroke-width="1.2"/></g><g><circle cx="577.0" cy="69.9" r="4.3" fill="#fff7ed" stroke="#1d4ed8" stroke-width="2"><title>2026-07-23: 122 users</title></circle><path d="M 573.0 70.9 C 576.0 64.9, 582.0 67.9, 580.0 73.9" fill="none" stroke="#1d4ed8" stroke-width="1.2"/></g><g><circle cx="590.2" cy="67.2" r="4.3" fill="#fff7ed" stroke="#1d4ed8" stroke-width="2"><title>2026-07-24: 125 users</title></circle><path d="M 586.2 68.2 C 589.2 62.2, 595.2 65.2, 593.2 71.2" fill="none" stroke="#1d4ed8" stroke-width="1.2"/></g><g><circle cx="603.4" cy="69.0" r="4.3" fill="#fff7ed" stroke="#1d4ed8" stroke-width="2"><title>2026-07-25: 123 users</title></circle><path d="M 599.4 70.0 C 602.4 64.0, 608.4 67.0, 606.4 73.0" fill="none" stroke="#1d4ed8" stroke-width="1.2"/></g><g><circle cx="616.7" cy="69.0" r="4.3" fill="#fff7ed" stroke="#1d4ed8" stroke-width="2"><title>2026-07-26: 123 users</title></circle><path d="M 612.7 70.0 C 615.7 64.0, 621.7 67.0, 619.7 73.0" fill="none" stroke="#1d4ed8" stroke-width="1.2"/></g><g><circle cx="629.9" cy="69.0" r="4.3" fill="#fff7ed" stroke="#1d4ed8" stroke-width="2"><title>2026-07-27: 123 users</title></circle><path d="M 625.9 70.0 C 628.9 64.0, 634.9 67.0, 632.9 73.0" fill="none" stroke="#1d4ed8" stroke-width="1.2"/></g><g><circle cx="643.1" cy="63.7" r="4.3" fill="#fff7ed" stroke="#1d4ed8" stroke-width="2"><title>2026-07-28: 129 users</title></circle><path d="M 639.1 64.7 C 642.1 58.7, 648.1 61.7, 646.1 67.7" fill="none" stroke="#1d4ed8" stroke-width="1.2"/></g><g><circle cx="656.3" cy="63.7" r="4.3" fill="#fff7ed" stroke="#1d4ed8" stroke-width="2"><title>2026-07-29: 129 users</title></circle><path d="M 652.3 64.7 C 655.3 58.7, 661.3 61.7, 659.3 67.7" fill="none" stroke="#1d4ed8" stroke-width="1.2"/></g><g><circle cx="669.6" cy="64.6" r="4.3" fill="#fff7ed" stroke="#1d4ed8" stroke-width="2"><title>2026-07-30: 128 users</title></circle><path d="M 665.6 65.6 C 668.6 59.6, 674.6 62.6, 672.6 68.6" fill="none" stroke="#1d4ed8" stroke-width="1.2"/></g><g><circle cx="682.8" cy="64.6" r="4.3" fill="#fff7ed" stroke="#1d4ed8" stroke-width="2"><title>2026-07-31: 128 users</title></circle><path d="M 678.8 65.6 C 681.8 59.6, 687.8 62.6, 685.8 68.6" fill="none" stroke="#1d4ed8" stroke-width="1.2"/></g><g><circle cx="696.0" cy="56.6" r="4.3" fill="#fff7ed" stroke="#1d4ed8" stroke-width="2"><title>2026-08-01: 137 users</title></circle><path d="M 692.0 57.6 C 695.0 51.6, 701.0 54.6, 699.0 60.6" fill="none" stroke="#1d4ed8" stroke-width="1.2"/></g>
  <text x="48" y="206" fill="#57534e" font-family="'Comic Sans MS', 'Segoe Print', cursive" font-size="11">2026-06-13</text>
  <text x="696" y="206" fill="#57534e" font-family="'Comic Sans MS', 'Segoe Print', cursive" font-size="11" text-anchor="end">2026-08-01</text>
</svg>
